<?xml version="1.0" encoding="UTF-8"?>
<svg id="Layer_1" data-name="Layer 1" xmlns="http://www.w3.org/2000/svg" version="1.1" xmlns:xlink="http://www.w3.org/1999/xlink" viewBox="0 0 1920 1080">
  <defs>
    <style>
      .cls-1 {
        fill: #000;
      }

      .cls-1, .cls-2, .cls-3, .cls-4, .cls-5, .cls-6, .cls-7, .cls-8 {
        stroke-width: 0px;
      }

      .cls-2 {
        fill: #ffd600;
      }

      .cls-3 {
        fill: none;
      }

      .cls-9 {
        clip-path: url(#clippath-1);
      }

      .cls-4 {
        fill: #1ca75e;
      }

      .cls-5 {
        fill: #e30613;
      }

      .cls-6 {
        fill: #004f9f;
      }

      .cls-10 {
        clip-path: url(#clippath);
      }

      .cls-7 {
        fill: #bd4000;
      }

      .cls-8 {
        fill: #fff;
      }
    </style>
    <clipPath id="clippath">
      <rect class="cls-3" width="1920" height="1080"/>
    </clipPath>
    <clipPath id="clippath-1">
      <rect class="cls-3" width="1923.1" height="1282.1"/>
    </clipPath>
  </defs>
  <g class="cls-10">
    <g id="Layer_2" data-name="Layer 2">
      <rect class="cls-7" width="1923.1" height="1282.1"/>
    </g>
    <g id="Layer_1-2" data-name="Layer 1">
      <g class="cls-9">
        <g>
          <rect class="cls-8" width="1923.1" height="1282.1"/>
          <polygon class="cls-5" points="1156 297.4 1191.7 346.3 1066.9 565.1 1212.1 374.4 1156 297.4"/>
          <polygon class="cls-4" points="1156 297.4 1066.9 565.1 1191.7 346.3 1156 297.4"/>
          <polygon class="cls-5" points="1313.1 323.2 1323.9 388.1 1077.8 599.2 1330.1 425.2 1313.1 323.2"/>
          <polygon class="cls-4" points="1313.1 323.2 1077.8 599.2 1323.9 388.1 1313.1 323.2"/>
          <polygon class="cls-5" points="1522.7 361.8 1497.4 443 1094.9 625.6 1483 489.7 1522.7 361.8"/>
          <polygon class="cls-4" points="1522.7 361.8 1094.9 625.6 1497.4 443 1522.7 361.8"/>
          <polygon class="cls-5" points="1818.6 469.9 1729.7 565.3 1094.3 649.1 1678.8 620 1818.6 469.9"/>
          <polygon class="cls-4" points="1818.6 469.9 1094.3 649.1 1729.7 565.3 1818.6 469.9"/>
          <polygon class="cls-5" points="2259.5 641.1 2068.3 755.1 1086.5 696.6 1958.6 820.5 2259.5 641.1"/>
          <polygon class="cls-4" points="2259.5 641.1 1086.5 696.6 2068.3 755.1 2259.5 641.1"/>
          <polygon class="cls-5" points="2588.7 1006.5 2271.4 1097.5 1036.1 737.1 2089.3 1149.8 2588.7 1006.5"/>
          <polygon class="cls-4" points="2588.7 1006.5 1036.1 737.1 2271.4 1097.5 2588.7 1006.5"/>
          <polygon class="cls-5" points="2838 1641.7 2359.8 1646.9 979.7 757.6 2085.5 1650 2838 1641.7"/>
          <polygon class="cls-4" points="2838 1641.7 979.7 757.6 2359.8 1646.9 2838 1641.7"/>
          <polygon class="cls-5" points="2607.5 2236.4 2049.2 2121.4 915 792.9 1728.9 2055.5 2607.5 2236.4"/>
          <polygon class="cls-4" points="2607.5 2236.4 915 792.9 2049.2 2121.4 2607.5 2236.4"/>
          <polygon class="cls-5" points="1934.4 2470.2 1423.8 2269.6 821.2 825.9 1130.8 2154.6 1934.4 2470.2"/>
          <polygon class="cls-4" points="1934.4 2470.2 821.2 825.9 1423.8 2269.6 1934.4 2470.2"/>
          <g>
            <polygon class="cls-5" points="606.4 945.1 570.8 896.2 695.6 677.5 550.3 868.2 606.4 945.1"/>
            <polygon class="cls-4" points="606.4 945.1 695.6 677.5 570.8 896.2 606.4 945.1"/>
          </g>
          <g>
            <polygon class="cls-5" points="449.4 919.3 438.6 854.5 684.6 643.3 432.4 817.3 449.4 919.3"/>
            <polygon class="cls-4" points="449.4 919.3 684.6 643.3 438.6 854.5 449.4 919.3"/>
          </g>
          <g>
            <polygon class="cls-5" points="239.7 880.8 265 799.5 667.6 617 279.5 752.8 239.7 880.8"/>
            <polygon class="cls-4" points="239.7 880.8 667.6 617 265 799.5 239.7 880.8"/>
          </g>
          <g>
            <polygon class="cls-5" points="-56.1 772.7 32.7 677.3 668.2 593.4 83.7 622.5 -56.1 772.7"/>
            <polygon class="cls-4" points="-56.1 772.7 668.2 593.4 32.7 677.3 -56.1 772.7"/>
          </g>
          <g>
            <polygon class="cls-5" points="-497 601.4 -305.8 487.4 675.9 546 -196.1 422 -497 601.4"/>
            <polygon class="cls-4" points="-497 601.4 675.9 546 -305.8 487.4 -497 601.4"/>
          </g>
          <g>
            <polygon class="cls-5" points="-826.3 236.1 -508.9 145 726.3 505.5 -326.9 92.8 -826.3 236.1"/>
            <polygon class="cls-4" points="-826.3 236.1 726.3 505.5 -508.9 145 -826.3 236.1"/>
          </g>
          <polygon class="cls-5" points="-1075.5 -399.1 -597.4 -404.4 782.8 485 -323 -407.4 -1075.5 -399.1"/>
          <polygon class="cls-4" points="-1075.5 -399.1 782.8 485 -597.4 -404.4 -1075.5 -399.1"/>
          <g>
            <polygon class="cls-5" points="-845.1 -993.9 -286.8 -878.9 847.5 449.7 33.6 -812.9 -845.1 -993.9"/>
            <polygon class="cls-4" points="-845.1 -993.9 847.5 449.7 -286.8 -878.9 -845.1 -993.9"/>
          </g>
          <g>
            <polygon class="cls-5" points="-165.8 -1212.4 344.7 -1011.8 947.3 432 637.8 -896.8 -165.8 -1212.4"/>
            <polygon class="cls-4" points="-165.8 -1212.4 947.3 432 344.7 -1011.8 -165.8 -1212.4"/>
          </g>
          <g id="HUSTol">
            <g>
              <path class="cls-1" d="M952.4,634.2c3.5,12.3,0,23.2-7,33.3-.8,1.1-1.7,2.1-2.3,3.2-6.1,13.5-6.4,13.9-17.9,23,21.6,12.3,35.5,30.6,43.5,53.6-6.6-5-12.7-10.4-19.6-14.6-6.8-4.2-14.4-7.2-22.2-11,9.6-.8,17.9,1.7,27.2,5.8-4.7-7.8-10.5-12.8-17.2-16.7-3.7-2.2-7.7-3.9-11.7-5.6-9.1-3.6-18.2-5.9-27.5-.3-2.6,1.6-5.8,2.1-8.8,3.5,16.4,0,32.7.7,47.7,9.4h-39.9c-.1.5-.2,1.1-.4,1.6,22.7,5.3,44.6,12.3,60.1,30.9-11.6-1.2-23.1-2.4-34.6-3.5-.1.6-.2,1.2-.3,1.8,3.2.7,6.5,1.1,9.5,2.2,7,2.3,14.1,4.3,20.6,7.4,7.8,3.7,13.4,9.6,12.7,20.6,5.5-6.8,7-13.3,5.7-20.6.5-.1.9-.3,1.4-.4,2.3,6.4,4.6,12.6,6.7,19,.4,1.2-.5,2.9-1.1,4.2-4.9,10.9-12.8,19.1-22.4,25.8-.7.5-1.4,1.1-2.3,1.8,9-.8,19-9.2,30.7-25.5.2.2.5.4.5.6-.3,7.3,2.1,13.1,7.4,18.6,6.3,6.5,10.4,18.7,11.5,27.6-3.6-3.6-6.5-7.3-10.1-10-4.7-3.6-9.8-6.7-15-9.7-1.1-.7-3.4-.7-4.5,0-4.4,2.9-8.4,6.3-12.8,9.2-4.3,2.9-8.9,5.4-13.8,8.4,1.2.4,1.9.8,2.7.9,6.4.7,11.6,3.4,16.4,7.7,7.5,6.8,15.3,13.3,23.4,20.3-4.4,0-8.8.3-13.2,0-19.4-1.5-37.4-7.9-54.7-16.6-2.1-1-5-1.5-7.1-.9-5.3,1.5-10.1-.2-14.9-1.8-23.5-8-47.1-15.7-70.4-24.4-13.7-5.1-25.8-13.3-37-22.7-1.4-1.2-3.1-2.2-4.2-3.8,24.1,4.6,46,1.8,65.4-13.7-15.3,3.6-30.7,3.7-46.1.7-.1.5-.2,1-.3,1.4,7.8,1.9,15.7,3.7,22.8,5.5-26.5,9.7-63.4,1.4-85.4-25.9-21.2-26.3-17.6-65-2.3-89-1.4,11.9-1.3,23.4,3.5,35.7,0-7.8-.3-14.4,0-20.9.9-17.3,6.1-32.6,20.3-43.8,1.2-1,1.8-3,2.3-4.7,3.2-9.5,7.4-18.4,15.3-24.9.7-.6,1.4-1.1,2.2-1.6.6-.4,1.3-.7,2.1-1.1,1.3,2.2,2.5,4.4,4.3,7.6.3-5.7.5-10.4.7-15.5-6.7,3.1-12.7,7.3-16.8,13.3-4.4,6.4-7.5,13.5-11.3,20.3-.9,1.6-1.8,3.5-3.3,4.5-8.6,6.1-16.1,13-19.7,23.4-2.6-5.2-1.6-11.8,3.1-21.5-9.1-10.1-17.9-20.6-18.5-36.3-1.9,2.5-3.2,4.2-5.5,7.1-2.7-9-5.1-16.8-7.5-24.7,2.7-4.9,5.8-10.5,8.9-16-.5-.3-.9-.6-1.3-.8-1.9,2.2-3.8,4.4-5.8,6.5-4.1,4.2-8.9,7-14.8,7.8-5.7.8-9.5,3.7-11.3,9.5-2.1,6.6-9.3,9.9-17.4,8.5-1.4-.3-3.3-.9-4.4-.3-3.8,2.1-6.2.2-8.3-2.8-7.6,9.6-18.7,12-29.5,13.9-10,1.7-19.1,4.5-27.6,10.5-9.2,6.5-20.1,10-31.4,11.6-1.3.2-3.1,1.4-3.5,2.6-8.9,21.5-25.2,36.1-44.6,47.8-16.3,9.9-33.9,16.5-52.4,21-4.8,1.2-7.7,3.8-8.2,8.3-.8,6.6-2,13.6-.7,20,2.8,13.3-1.7,22.5-12.7,29.4-3.2,2-5.7,4.1-7.2,8.1-2.3,6.1-13,7.9-18.9,3.5-2.8-2.1-5.4-3-8.8-3.4-6.5-.7-9.5-4.3-10.1-10.8-.5-5.4-.9-10.8-1.3-16.2,0-.3.2-.6.5-1.4,3.6,2.2,7.1,4.3,10.9,6.6.3-1.8.4-3.4.6-4.8,6.4,1,12.6,2.1,18.8,3.1.1-.6.3-1.1.4-1.6-5.5-2.6-10.2-7.9-17.3-5.5-4.4,1.5-7.4.3-9.6-3.6-.6-1-1.5-1.8-2.7-3.2-.6,1.5-1,2.6-1.4,3.8-.5-.4-.9-.6-1-.9-2.5-5.4-2.2-7.1,2.4-10.7,2-1.6,4.1-3.1,6-4.8.7-.6,1.6-2.1,1.3-2.5-2.3-3.7.6-5.4,2.7-7.4,6.8-6.6,13.6-13.1,20.5-19.7,3.5,2.5,6.9,4.8,10.3,7.1.4-.4.8-.7,1.1-1-2.3-3.3-4.6-6.6-7-10,3.3-3.6,7.4-4.7,12.1-5,1.9-.1,4.2-1,5.5-2.4,4.2-4.2,8.5-7.7,13.9-9.7-2.6,4.2-5.1,8.4-7.7,12.6s-1,3.7,1,5.4c2.4,2,4.4,4.5,7.1,7.3-2.7,2.1-5.2,4.1-7.6,5.9.3.4.6.7.8,1,1-.4,2.1-.8,3-1.2,18.3-9.2,34.4-21.2,48.5-36,8.6-9,18-16.8,30.6-19.7-.1-.5-.2-.9-.3-1.4-3.3.4-6.7.5-9.9,1.2-3.4.8-6.8,2.2-10.2,3.3-.3-.4-.6-.7-.9-1,4.2-4,7.9-8.9,12.8-11.8,6.8-4.2,14.4-7.3,21.8-10.4,2.3-1,3.5-1.8,4.3-4.3,4.7-15.7,13.1-28.2,29.8-33.2,1-.3,2-.4,3.7-.7-4.6,5.3-8.8,10.1-12.9,14.9.2.2.3.4.5.5,3.9-1.5,7.8-3.1,12.7-5-5.6,6.2-10.5,11.4-15.8,17.1,6.9-.4,12.4-.7,18.6-1,8.4-16.3,25.4-22.9,41.8-30.1,4.7-2.1,9.5-3.5,14.4-5.2,2-.7,4-1.3,3.7-4.2-.3-2.7-.1-5.3-3.4-6.6-6.2-2.5-12.4-1.6-18.6-.4-.6.1-1.1.3-1.8.5,3.1-4.9,5.1-6,16.8-9.2-6.2-6.6-17.4-7.8-27.1-3.1.8-9.9,9.2-17.1,20.3-17.4,4.6-.1,9.2-.2,13.8-.3,7.2-.1,10.9,1,19.5,5.8-2-6.8-8.1-9.8-25.3-12.4,5.7-9.1,13.3-16.2,22.8-20.5,7.4-3.3,15.5-5.2,23.5-7.1,3.5-.8,5.9-1.5,7.8-5.2,5.1-9.7,14.1-14.4,24.5-16.4,2.8-.5,5.5-.8,8.6-1.2-1.3-2.2-2.7-4.1-3.5-6.3-1.8-4.5,0-8.4,4.5-10.2,6.6-2.7,13.3-1.7,19.8.4,7.8,2.6,15.4,5.4,23.6,7.6-3.5-3-7-6-11.5-9.8,5.8-1,10.5-1.8,15.5-2.7,1.2-7.7,4.3-14.6,13.8-16.5-1.6,6.2-1.9,11.9,2.2,17,1.8-2.8,4.2-5.2,5-8.1.7-2.2-.2-5.1-1.1-7.4-.9-2.3-3-4.2-4.2-6.4-3.7-6.9-2.2-10.4,5.5-13.1-3.2-2.6-5.2-2.6-10.2.4-1.7-5.6-3.3-11.2-5.2-17.5,15.4,4.4,30.2,2.2,45,1.6,0-.4,0-.8.1-1.1-3.3-.4-6.6-.8-9.9-1-7.2-.4-14.4-.7-21.5-1.1-1.9-.1-3.9-.5-5.8-.9-8.5-1.8-9.3-3-8.7-11.1,12.5,1,25,1.9,37.5,2.9,0-.6.1-1.1.2-1.6-4.9-.6-9.9-1.1-14.8-1.8-5.5-.8-11-1.3-16.4-2.6-6-1.5-6.6-3-5.4-9,3-14.6,10.7-26.3,22.3-35.4,29-22.8,76.1-14.2,94.5,17.3,2,3.4,3.3,7.4,4.4,11.2.8,2.8,2.3,6.3-2.2,7.9-.5.2-.6,1.3-.8,2-1.9,7-7,9.9-13.7,10.1-4,0-8-.9-12.1-1.2-7-.4-13.9-.5-20.9-.9-1.5-.1-3.3-1-4.4-2.1-9.5-9.4-21.1-13.7-34.5-13.2,11.5,4.4,22.8,9.2,31.4,17.2-1.7,4.6-3.9,8.5-4.7,12.8-.9,5-.2,10,3.6,14.3,2.3,2.6,3.6,6.2,5.3,9.2,6.3-1.4,12.7-2.9,19.3-4.2,2.6-.5,5.4-.2,8.1-.6,3.5-.5,7.5-.5,10.4-2.2,5-2.9,9.4-6.6,15.5-7.6,2.1-.4,3.5-4.2,5.3-6.4,3.2,9.3-2,16.7-7.5,24.3,6.7,6.1,5.5,13.2,2.3,20.9-2.7-6.5-5.3-12.6-7.8-18.8h-1.7c-.1,2.1-.9,4.5-.1,6.2,1.9,4.5,4.3,8.9,6.9,13.1,5.5,8.7,5.7,8.7-3.4,13.3,1.5,6.5-1.2,11.4-9.4,15.5,3-.3,4.9-.4,8.3-.7-1.5,2.8-2.2,5-3.6,6.5-1.5,1.5-3.8,2.3-5.8,3.4.2.4.3.7.5,1,1.4-.5,2.9-1,4.4-1.5,1.8,6.5-1,11.6-7.8,13.8-2.8.9-5.8,1.4-8.8,1.7-2.9.3-5.8,0-8.2,0,3.3,5.9,6.7,11.9,10.1,17.8.3,0,.5.1.8.2-.4-4.4-.7-8.8-1-13.7,5.4,2.5,8.9,6.6,10.9,11.8.3.8-1.2,3-2.4,3.6-13.2,6.8-26.4,13.3-39.7,19.9-11.2-22.2-31.8-24.5-54.1-22.7-5.9.5-11.8,1.8-17.8,3.3,14.8,1.9,26.6,8.4,34.2,21.8.4-5,.3-5.3-9.5-19.7,12.5-1.5,23.6.3,33.7,9.2-6.7-.8-12.4-4.2-18.9-1.6,4,11.9,13,15.6,24.3,16,.1.5.2,1,.3,1.4-2.9,1.2-5.6,2.9-8.6,3.4-17.4,3.4-30.6,13.1-41.1,26.9.3.4.5.8.8,1.2,3.3-2.4,7.1-4.3,9.9-7.2,5.8-6.2,18.2-12.8,27.6-13.6-8.7,17-12.2,34.7-9.9,54.4,1.8-36.2,23-69.7,49.7-78.8-8.3,22-11,44.3-5.9,67.2,5.1,22.6,16,42.1,32.5,60.1-12-2.2-22.7-4.1-33.3-5.9-.1.4-.2.8-.3,1.2,9.8,2.8,19.6,5.7,29.4,8.5.1.2.2.5.3.7-4.6.5-9.1,1.1-13.7,1.5-4.7.4-9.5.6-14.2,1.2,15.7,2.9,31.2,3.4,47.6-2.6-9.2-2.5-13.6-8.8-17.6-16,12.1,7.9,23.9,9.9,35.7-.4-1.3,2.4-2.7,4.7-4.1,7.1,9.4-7.4,14.2-17.4,17.1-28.7h0ZM809.2,709.3c6.8,10.3,14.6,13.1,25.9,9.8,7.3-2.2,14.8-4.1,22.2-6.1-10.2-1-20.1-2.6-28.5-7.1,10-.5,20.4-.6,30.8-1.7,10.4-1.1,20.4-4.3,28.8-8.6-8.3-2.6-17.2-4.3-25.1-8.1-7.8-3.8-14.7-9.7-21.7-14.5,6.2,12.1,17.2,18.7,31,23.2-19.5,6.3-38.3,4.6-57,3.4-.2.5-.4,1-.6,1.5,5.4,4,10.8,7.9,16.7,12.2-7.5-1.4-14.8-2.7-22.4-4.1h0ZM441.3,729.1c-.8-3.3-1.5-6.5-2.3-9.9-3.1,1.7-5.7,3.4-8.5,4.7-1.4.6-3.6,1.1-4.6.5-.9-.7-1-3.1-.6-4.5,1.2-4.1,2.8-8.1,4.3-12.1-.2-.1-.3-.3-.5-.4-5.6,5.8-11.2,11.7-17.4,18.3,10.4.7,19.1,7.3,29.6,3.4h0ZM871.5,454.1c2.2,1.5,4.4,2.5,5.9,4.1,5.3,5.5,7.8,5.4,12.1-1,1.2-1.8,2.6-3.8,2.9-5.9.3-1.2-.9-3.6-2.1-4.1-5.7-2.6-15.8,1.3-19,7h0Z"/>
              <path class="cls-1" d="M995.4,447.9c-2.3,12.5-2,20.3,1,23.4,4.5-25.4,18.2-42.9,43.2-51.7-4.8,9.6-13.1,18.1-6.5,29.4,4.7-8.4,8.7-16.5,13.6-24.2,4.5-7,10.7-12,18.3-15.9,16.9-8.7,33.2-18.5,49.5-28.3,3.2-1.9,5.7-5.2,7.9-8.3,8.6-11.9,19.5-20,35.4-21.9-2.3,1.5-3.9,2.6-6.1,4.1,2.4.6,4.1,1,6,1.5-15.3,5.9-28.2,14.1-31.7,31.6,2.1-3.7,4.1-7.4,6.2-11.3,1.7,1.4,3,2.5,4.3,3.5.8-1.9,1.1-4.2,2.4-5,1-.7,3.2.2,5.4.5-.7-1.9-1.3-3.8-2.2-6.5,4.3-1.4,8.9-3,13.2-4.5,1.4,2.9,2.5,5.3,3.6,7.6,1.6-6.1,3.1-6.8,7.8-4.2.4-2.2-3.3-4.3-11.1-6.1,11-3.6,27.8-.5,47.4,8.5-10.5-11.5-25.3-13.1-39.2-16.7,5.6-3.4,20.2-1.9,51.7,4.6-4.2-1.6-8.3-3.3-12.4-4.9-3.1-1.1-6.3-1.9-9.3-3.2-1.3-.6-2.3-2-3.3-3,.3-.4.5-.8.8-1.1h-7.8c-.1-.3-.2-.5-.3-.8,4.4-1.8,8.7-3.5,13.1-5.3-.2-.5-.4-.9-.6-1.4-9.3,2.7-18.6,5.4-27.9,8.2-.2-.3-.3-.5-.5-.7,1.8-1.4,3.4-3,5.3-4.3,3.6-2.4,7.3-4.9,11.2-6.7,12.2-5.5,25.1-9.2,36.3-17.1,4.3-3,10.4-3.6,15.9-4.6-8.6,5.9-18.5,10-21,21.5-.3,1.2,1,2.7,1.9,5.2,1.2-6.3,2.2-6.7,7-4.1-1.4-3.8-1.9-7.1,1.9-9.2,3-1.7,5.8-3.6,8.9-5.1,1.7-.8,3.7-1.1,5.6-1.6,1.1,2,2.1,3.9,3.4,6.4.7-2.5.8-4.4,1.8-5.3.6-.6,2.6.1,4.4.3,0-.5.3-1.5.4-2.7,8.4,0,15.7,2.2,21.7,8.8-2.4-6.7-8.2-10.6-17.3-10.6s-14.2,1.2-21,1.8c7.6-8.1,17.5-7.1,27.4-5.9,1.5.2,3,.5,4.4.9,13.3,3.3,18.5,12.1,13.8,25-2.2,6.1-5.5,11.9-9.1,17.4-4.7,7.2-12,11-20.3,13.1,1,.2,1.9.4,3.4.8-8.7,5.5-17.7,9.1-27.3,10.2-7.9.9-13.5,4.8-19.9,9-13.2,8.6-27.7,15.5-42.2,21.9-8.7,3.8-18.3,2.5-27.3-.9-1.1-.4-2.2-.7-3.9-.3,1.4,1.7,2.8,3.5,4.1,5.1-6.8,4.7-14.1,9.4-21,14.6-12.3,9.3-22.5,20.7-31,33.5-13.9,20.9-29.9,39.7-50.6,54.3-4.8,3.3-10.2,5.7-15.1,8.9-3,1.9-6.4,4.1-8.4,6.9-4.4,6.1-7.5,13-12.1,18.9-2.2,2.8-6.5,4.1-9.4,5.7,5.4,3.1,5.9,4,1.8,11.1-4.3,7.4-9.5,14.4-14.2,21.2,7.6-6.2,14.7-13.5,20.2-22.3,1.5-2.5,3.3-3.8,6.1-3.5,7.4.8,14.7,1.6,22.9,2.6-1.5,3.3-2.4,5.2-3.6,7.9,8.5-3.8,16.5-3.5,25.1-2.5-.7,2.2-1.2,3.8-1.9,6.1h29.4c-9.5,7.9-24.4,11.1-34.2,7.3-1.6,2.2-3.3,4.4-5.3,7.2,13.9,4.3,26.9,4.1,39.6-3.3-1.2,3.2-5.7,7.7-13.5,13.6,5.6,0,10.3-.2,15,0,2.7.2,5.4.7,7.9,1.5,3.1,1,5.3,3,3.3,7.9,9.5-1.5,18.3-2.6,26.8-4.5,8.4-1.9,16.6-4.7,25.3-6.6-5.6,4.3-11.3,8.7-18,13.8,4.2-1.1,7.2-1.8,10.2-2.7,20-6.3,38.1-16.6,56.9-25.6,13.8-6.7,28.2-12.4,42.4-18.3,2.9-1.2,6.3-1.4,9.5-2.4-14.1-3.1-27.9-.1-41.8,1.6,11.9-6.9,24.4-11.8,38.4-11.6,0-.6.2-.9.1-1.2-.6-3.3-2.6-8.9-1.6-9.5,3.7-2.4,8.5-3,12.9-4.4,1.1-.4,2.3-.8,3.3-1.2,2.9-1.1,5.9-3.5,8.6-3.2,10.3,1.3,20-1.3,29.7-3.1,7.8-1.4,15.1-.7,22.5,1.6,1.7.6,3.4,1.2,5.2,1.3,7.3.5,10.9,5.1,13.6,11.3,3,6.8,6.5,13.4,9.7,20.1,2.8,5.7,1.2,6-4.3,8.4-9,3.9-14.1-1.8-20.3-5.3-2.1-1.2-4.3-2.3-6.1-3.8-2.8-2.3-5.5-2.2-8.7-.8-5.2,2.2-6.2,3.3-5.2,9,.2,1,1.4,2.1,2.4,2.7,2.9,1.6,5.9,2.8,8.8,4.5,6.2,3.5,6.7,12.4.9,15.8-5.1-6.2-12.3-7.3-19.6-6.4-7.2.9-11.1-3.1-15.1-7.8,2.7-.8,5.5-1,7.5-2.4,1.6-1.2,2.2-3.9,3.2-5.9-.4-.2-.7-.3-1.1-.5-1.9,1.3-3.7,3.1-5.8,3.7-4,1.1-7.9.8-11-2.8-4.6-5.2-9.5-10.2-14.9-16,1.5,4,2.7,7.2,4,10.8-1.2-.2-2.2-.3-3.5-.4.4.9.7,1.5.9,2.1.5,1.6,1.8,4,1.2,4.6-1.2,1.2-3.3,1.5-5.2,2s-2.1.1-2.6-.4c-3.7-3.5-6.8-.8-10.1.9-33.6,17.8-67.3,35.6-103.3,48.3-15.3,5.4-31.1,10.5-47.4,6.8-12-2.7-23.8-.8-35.7-1.7-6.1-.5-12.3-.9-18.4-1.5-4.7-.5-9.3-1.2-14.1.7-4.9,1.9-9.7,1.6-12.7-2.4-11.7,2.2-22.9,4.5-34.1,6.4-8.2,1.4-13.5-2.9-13.7-11.3-.2-5.3.5-10.7.9-17.4-3.2,7.1-5.9,13.2-8.7,19.2-2.3,4.9-4.1,10.1-7,14.5-10.1,15.4-27.8,17.4-41.2,4.8-11.4-10.9-18.2-24.4-21.6-39.6-4.3-19.1-5.4-38,1.8-56.6,1.7-4.5,4.3-8.7,7.1-12.6-.7,3.8-1.3,7.5-2,11.3,6.5-8,11.3-17.1,21.2-21.5-21.6,26.1-20.4,53.6-5.8,83.2,1.4-7.2,2.7-13.5,3.9-19.7.4,0,.8,0,1.1-.1,1,1.5,1.9,3.1,3.1,4.6,2.5,3.3,5,3.2,6.1-.8,1.3-4.7,1.6-9.7,2.3-14.6.2-1.3.2-2.6.4-4.2,1.1.3,1.9.5,2.8.8,7.3,2.1,11.1-1,10.1-8.6-.5-3.2-1.6-6.4-3-9.3-4.6-9.3-6.1-18.9-2.9-29,2.5,5.2,4.8,10.2,7.1,15.2.5-.2.9-.4,1.3-.5-4.6-13.4-8.5-26.8.5-40.1-2.9,14.9.6,27.6,11.9,38,8.1,7.4,17.1,12.4,28.8,13.2-6.5-4.3-12.8-7.7-18.3-12.1-10.3-8.1-17.6-18-17-32,.4-7.9,2.9-15.2,7.7-21.2,12.3-15.2,26.4-28.7,43-39.3,1.2-.8,2.6-1.4,4.5-2.5l-.2.2ZM1286,560.8c2-2.6,4.3-5,5.9-7.7,1.3-2.3,2-5,2.9-7.5-2.5-.1-4.9-.4-7.4-.3-1.2,0-2.5.5-2.9.6.5,5.1.9,9.8,1.4,15h0ZM1191.5,384.5c4.2-4.8,2.2-10.5-3.9-12.3,1.2,3.8,2.6,8,3.9,12.3ZM1307.8,543.2c-.2.6-.4,1.2-.7,1.8,5.1,2.3,10.2,4.6,15.3,6.9.3-.6.5-1.1.8-1.7-5.1-2.4-10.3-4.7-15.4-7h0ZM1195.4,389.4c-3.8.1-6.2,2.4-7.3,7,2.4-2.3,4.5-4.3,7.3-7Z"/>
              <path class="cls-1" d="M687.7,727.7c-2.5,12.1-6.1,23.6-6.1,35.8,4.1-9.6,7.7-19.3,12.2-28.6,2-4.3,5.4-7.8,8.4-11.6,1.8-2.3,4.1-4.5,7.2-2.2,2.9,2.2,6.4,3.9,5.5,8.8-1.9,10.6-5.4,20.6-10.7,29.8-.4.8-.9,1.5-1,2.5,9.1-6.6,14.2-15.8,17-27.4,1.3,3,2.4,5.3,3.2,7.6,3.9,11.7,9.9,22.2,20,29.7,5.5,4.1,7.3,9.4,7.2,15.9,0,2.2.2,4.4,1.4,6.7,1.2-3,2.4-5.9,3.5-8.9,24.8,17.5,53.2,27.7,80.6,40.2,16.8,7.6,28.5,21,35.4,38.4.5,1.3,1.1,2.7,1.9,4.8,4.2-13.5.6-24.3-8.5-34.8,8.1,2.2,15.1,3,20.3,9.7,8.6,11.2,15.3,23.2,20.1,36.4.5,1.2.9,2.5,1.3,3.9,5.3-8.9,1.9-25.1-8.8-41.4,14.6,4.7,28.5,8.9,42.2,13.6,23.7,8.1,35.4,26.8,42.9,49.1.5,1.3.8,2.7,1.3,4.4,6.3-12.1,1.2-25.7-16.5-44.8,5.5-1.5,10.6-.6,14.5,2.6,10.7,8.8,22.6,16.7,26.3,31.4.3,1.2,2.3,2.6,3.7,2.8,5.8.9,10.7-1.4,15.2-5.1-3.1,7.6-5.1,16.3-16,15.5-1,4.1.5,5.7,4.4,6,11.1.9,16.7-3.5,17.8-14.5.1-.9,0-2,.4-2.6,6.3-8.2,2.8-15.8-.9-23.6-.5-.9-1-1.8-1.4-2.8,0-.1,0-.3.2-1,2.6,1.4,5,2.7,7.4,3.9.3-.2.5-.3.8-.4-6.1-8.8-12.1-17.6-18.1-26.4.1-.3.3-.5.4-.8,5.1,3.5,10.6,6.8,15.3,10.7,11.1,9.3,19.2,20.4,18.2,35.8-.3,4.2-1.6,8.4-3.4,12.4-.9-3.1-1.7-6.1-2.6-9.2-.3,0-.5.1-.8.2.2,1.1.3,2.1.4,3.2,2.4,17.2-5.8,29.5-18.9,38.9-3.8,2.8-9.8,3.2-14.9,3.5-4.9.3-9.8-1.1-14.8-1.3-4.9-.2-9.8.2-14.7.5-5.8.4-11.7.8-17.2-2.1-1-.5-2.3-.6-3.4-.5-28.5,3.9-54.7-3.4-80-15.5-21.6-10.4-40.3-25.1-58.5-40.6-31.4-26.7-66.2-47.9-105.6-61-12.3-4.1-23.9-9.4-33.2-19.1-16.9-17.8-20-51.6-6.3-72,1.6-2.5,3.8-4.6,5.7-6.8l-.2.2Z"/>
              <path class="cls-1" d="M1424.4,320.5c-2.2-3-3.5-4.8-5-6.7,8.3-10.7,16.4-21.2,24.2-31.2,16.7.8,33.5,1.6,50.9,2.5.7,3.9,1.5,8.7,2.6,14.5,24.9-16.5,41.5-38.5,51.3-66.8-7.8,1.7-14.7,3.7-21.8,4.6-2.1.3-5.7-1.9-6.7-3.9-5.8-11.6-11.2-23.5-16.5-35.5-.8-1.8-1.1-4.7-.3-6.3,5.3-10.1,11.1-20,16.7-29.9,19.5,6.5,30.4,20.8,31.7,40.7,2.1,31-1.3,60.7-19.7,86.8-25.7,36.5-61.3,54.1-105.7,50.4-45.1-3.7-77.4-27.5-96.5-68.6-3.4-7.3-4.1-15.8-6.6-25.5,10.3,4.8,18.2,8.5,25.9,12.4,1.1.6,1.4,2.6,2.1,4,5.6,11.7,11.4,23.4,16.9,35.2,1.3,2.9,1.8,6.1,3.2,10.9,15.1,7.6,33,12.4,53.3,12.6h0Z"/>
              <path class="cls-1" d="M1372.9,204c.9-32.2-2.6-27.6,24.1-39.3,28.8-12.7,22-12.6,40.8,9.3,15.4,17.9,15,18.3,1.9,37.8-4.5,6.7-8.7,13.7-13.6,20-1.6,2.1-5.6,3.9-8.1,3.4-12.6-2.1-25.1-4.8-37.4-7.9-2.4-.6-5.3-3.9-5.8-6.5-1.3-5.8-1.3-11.8-1.8-16.9h0Z"/>
              <path class="cls-1" d="M1486.4,122.4c-9.3-.9-18.8-3.6-27.8-2.5-15.6,1.9-28.8-3.1-41.6-11.2,1-.5,2.3-1.7,3.8-1.9,20.9-3.5,41.6-3.4,61.5,5.2,5.9,2.6,6.1,3.4,4.1,10.4h0Z"/>
              <path class="cls-1" d="M924.1,520.1c-3.8,10.6-7.4,20.8-11.1,31-6.2-13.4-1.2-27.6,11.1-31Z"/>
              <path class="cls-1" d="M1323.1,191.8c5.7-25.8,19.1-44.3,37.2-59.6-5.8,23.4-23.1,39.6-37.2,59.6Z"/>
            </g>
          </g>
          <g>
            <path class="cls-2" d="M1443,48.3c-16.4-2.3-17.4-1.6-21.8,14.4,2.3-16.4,1.6-17.4-14.4-21.7,16.4,2.3,17.4,1.6,21.8-14.4-2.3,16.4-1.6,17.4,14.4,21.8h0Z"/>
            <path class="cls-6" d="M1645.7,117.7c-16.5,1.1-17.4,1.9-18.5,18.5-1.1-16.5-1.9-17.4-18.5-18.5,16.5-1.1,17.4-1.9,18.5-18.5,1.1,16.5,1.9,17.4,18.5,18.5Z"/>
            <path class="cls-4" d="M1387.4,376.4c-13.3-2.9-14.2-2.4-18.7,10.4,2.9-13.3,2.4-14.2-10.4-18.7,13.3,2.9,14.2,2.4,18.7-10.4-2.9,13.3-2.4,14.2,10.4,18.7Z"/>
            <path class="cls-5" d="M1618.5,285.8c-11.8,11.6-11.9,12.8-1.9,26-11.6-11.8-12.8-11.9-26-1.9,11.8-11.6,11.9-12.8,1.9-26,11.6,11.8,12.8,11.9,26,1.9Z"/>
            <path class="cls-5" d="M1266,90.3c-13.9,9-14.3,10.2-7.1,25.1-9-13.9-10.2-14.3-25.1-7.1,13.9-9,14.3-10.2,7.1-25.1,9,13.9,10.2,14.3,25.1,7.1h0Z"/>
            <path class="cls-6" d="M1292.5,236.3c-2.1,6.5-1.8,7,4.4,9.8-6.5-2.1-7-1.8-9.8,4.4,2.1-6.5,1.8-7-4.4-9.8,6.5,2.1,7,1.8,9.8-4.4Z"/>
          </g>
          <path class="cls-6" d="M633.1,507.3h-94.1c-1.4,0-2.6-1.2-2.6-2.6s1.2-2.6,2.6-2.6h94.1c1.4,0,2.6,1.2,2.6,2.6s-1.2,2.6-2.6,2.6Z"/>
          <path class="cls-6" d="M1240.3,250.7h-42.8c-1.4,0-2.6-1.2-2.6-2.6s1.2-2.6,2.6-2.6h42.8c1.4,0,2.6,1.2,2.6,2.6s-1.2,2.6-2.6,2.6Z"/>
          <path class="cls-6" d="M1091.4,963.5h-94.1c-1.4,0-2.6-1.2-2.6-2.6s1.2-2.6,2.6-2.6h94.1c1.4,0,2.6,1.2,2.6,2.6s-1.2,2.6-2.6,2.6Z"/>
          <path class="cls-6" d="M1670.7,357.8h-94.1c-1.4,0-2.6-1.2-2.6-2.6s1.2-2.6,2.6-2.6h94.1c1.4,0,2.6,1.2,2.6,2.6s-1.2,2.6-2.6,2.6Z"/>
          <path class="cls-6" d="M1296.7,172.1c0,1.5-1.2,2.7-2.7,2.7s-2.7-1.2-2.7-2.7,1.2-2.7,2.7-2.7,2.7,1.2,2.7,2.7Z"/>
          <path class="cls-6" d="M1557.5,365.8c0,1.5-1.2,2.7-2.7,2.7s-2.7-1.2-2.7-2.7,1.2-2.7,2.7-2.7,2.7,1.2,2.7,2.7Z"/>
          <g>
            <path class="cls-6" d="M180.4,965.4c-2.1,0-3.8-1.7-3.8-3.8v-27.1c0-2.1,1.7-3.8,3.8-3.8s3.8,1.7,3.8,3.8v27.1c0,2.1-1.7,3.8-3.8,3.8Z"/>
            <path class="cls-6" d="M194,951.8h-27.1c-2.1,0-3.8-1.7-3.8-3.8s1.7-3.8,3.8-3.8h27.1c2.1,0,3.8,1.7,3.8,3.8s-1.7,3.8-3.8,3.8Z"/>
          </g>
          <g>
            <path class="cls-6" d="M705.9,617.9c-.6,0-1.1-.5-1.1-1.1v-7.5c0-.6.5-1.1,1.1-1.1s1.1.5,1.1,1.1v7.5c0,.6-.5,1.1-1.1,1.1Z"/>
            <path class="cls-6" d="M709.6,614.1h-7.5c-.6,0-1.1-.5-1.1-1.1s.5-1.1,1.1-1.1h7.5c.6,0,1.1.5,1.1,1.1s-.5,1.1-1.1,1.1Z"/>
          </g>
          <g>
            <path class="cls-6" d="M954.2,332.5c-.6,0-1.1-.5-1.1-1.1v-7.5c0-.6.5-1.1,1.1-1.1s1.1.5,1.1,1.1v7.5c0,.6-.5,1.1-1.1,1.1Z"/>
            <path class="cls-6" d="M958,328.7h-7.5c-.6,0-1.1-.5-1.1-1.1s.5-1.1,1.1-1.1h7.5c.6,0,1.1.5,1.1,1.1s-.5,1.1-1.1,1.1Z"/>
          </g>
          <g>
            <path class="cls-4" d="M1541.4,89.3c-1.6,0-3-1.3-3-3v-20.8c0-1.6,1.3-3,3-3s3,1.3,3,3v20.8c0,1.6-1.3,3-3,3Z"/>
            <path class="cls-4" d="M1551.8,78.9h-20.8c-1.6,0-3-1.3-3-3s1.3-3,3-3h20.8c1.6,0,3,1.3,3,3s-1.3,3-3,3Z"/>
          </g>
          <g>
            <path class="cls-4" d="M1213.8,194.3c-.6,0-1.1-.5-1.1-1.1v-7.5c0-.6.5-1.1,1.1-1.1s1.1.5,1.1,1.1v7.5c0,.6-.5,1.1-1.1,1.1Z"/>
            <path class="cls-4" d="M1217.5,190.5h-7.5c-.6,0-1.1-.5-1.1-1.1s.5-1.1,1.1-1.1h7.5c.6,0,1.1.5,1.1,1.1s-.5,1.1-1.1,1.1Z"/>
          </g>
          <g>
            <path class="cls-1" d="M697.5,895.4c-.8,0-1.4-.7-1.4-1.4v-10.2c0-.8.7-1.4,1.4-1.4s1.4.7,1.4,1.4v10.2c0,.8-.7,1.4-1.4,1.4Z"/>
            <path class="cls-1" d="M702.6,890.2h-10.2c-.8,0-1.4-.7-1.4-1.4s.7-1.4,1.4-1.4h10.2c.8,0,1.4.7,1.4,1.4s-.7,1.4-1.4,1.4Z"/>
          </g>
          <g>
            <path class="cls-6" d="M1008.1,713.1c-.7,0-1.2-.6-1.2-1.2v-8.8c0-.7.6-1.2,1.2-1.2s1.2.6,1.2,1.2v8.8c0,.7-.6,1.2-1.2,1.2Z"/>
            <path class="cls-6" d="M1012.5,708.7h-8.8c-.7,0-1.2-.6-1.2-1.2s.6-1.2,1.2-1.2h8.8c.7,0,1.2.6,1.2,1.2s-.6,1.2-1.2,1.2Z"/>
          </g>
        </g>
      </g>
    </g>
  </g>
</svg>