<?xml version="1.0" encoding="utf-8"?>
<!-- Generator: Adobe Illustrator 16.0.0, SVG Export Plug-In . SVG Version: 6.00 Build 0)  -->
<!DOCTYPE svg PUBLIC "-//W3C//DTD SVG 1.1//EN" "http://www.w3.org/Graphics/SVG/1.1/DTD/svg11.dtd">
<svg version="1.1" id="Layer_2" xmlns="http://www.w3.org/2000/svg" xmlns:xlink="http://www.w3.org/1999/xlink" x="0px" y="0px"
	 width="3320px" height="2226px" viewBox="0 0 3320 2226" style="enable-background:new 0 0 3320 2226;" xml:space="preserve">
<style type="text/css">
<![CDATA[
	.st0{
	fill:#38B4E0;
	filter: url(#drop-shadow);
	}
]]>
</style>
<filter id="drop-shadow">
		<feGaussianBlur in="SourceAlpha" stdDeviation="0.6"/>
		<feOffset dx="0" dy="1" result="offsetblur"/>
		<feFlood flood-color="rgba(0,0,0,0.4)"/>
		<feComposite in2="offsetblur" operator="in"/>
		<feMerge>
			<feMergeNode/>
			<feMergeNode in="SourceGraphic"/>
		</feMerge>
	</filter>
<g>
	<g>
		<path class="st0" d="M456.379,181.374c104.125,0,189.324,80.828,196.41,183.154h167.44
			C814.953,168.655,654.625,11.459,457.482,11.459c-197.144,0-357.473,157.196-362.749,353.069h165.234
			C267.053,262.202,352.251,181.374,456.379,181.374z"/>
	</g>
</g>
<g>
	<g>
		<path class="st0" d="M1988.935,181.374c104.125,0,189.324,80.828,196.41,183.154h167.439
			c-5.275-195.873-165.604-353.068-362.747-353.068s-357.473,157.196-362.748,353.068h165.234
			C1799.608,262.202,1884.807,181.374,1988.935,181.374z"/>
	</g>
</g>
<g>
	<g>
		<path class="st0" d="M2919.49,889.707c104.125,0,189.324,80.828,196.41,183.154h167.439
			c-5.275-195.873-165.604-353.068-362.746-353.068c-197.145,0-357.474,157.196-362.749,353.068h165.233
			C2730.164,970.534,2815.362,889.707,2919.49,889.707z"/>
	</g>
</g>
<g>
	<g>
		<path class="st0" d="M400.045,1586.93c104.125,0,189.324,80.827,196.41,183.153h167.439
			c-5.275-195.872-165.604-353.068-362.747-353.068c-197.144,0-357.473,157.196-362.749,353.068h165.234
			C210.719,1667.757,295.917,1586.93,400.045,1586.93z"/>
	</g>
</g>
<g>
	<g>
		<path class="st0" d="M1322.268,2022.929c104.125,0,189.324,80.828,196.41,183.154h167.439
			c-5.275-195.873-165.604-353.068-362.747-353.068c-197.144,0-357.473,157.195-362.749,353.068h165.234
			C1132.941,2103.757,1218.14,2022.929,1322.268,2022.929z"/>
	</g>
</g>
<g>
	<g>
		<path class="st0" d="M2919.49,2009.04c104.125,0,189.324,80.828,196.41,183.154h167.439
			c-5.275-195.873-165.604-353.068-362.746-353.068c-197.145,0-357.474,157.195-362.749,353.068h165.233
			C2730.164,2089.868,2815.362,2009.04,2919.49,2009.04z"/>
	</g>
</g>
<g>
	<g>
		<path class="st0" d="M2073.332,1627.836c-104.125,0-189.324-80.828-196.41-183.154h-167.439
			c5.275,195.873,165.604,353.068,362.746,353.068c197.145,0,357.474-157.195,362.748-353.068h-165.233
			C2262.658,1547.008,2177.46,1627.836,2073.332,1627.836z"/>
	</g>
</g>
<g>
	<g>
		<path class="st0" d="M839.11,943.086c-104.125,0-189.324-80.828-196.41-183.154H475.26C480.536,955.805,640.864,1113,838.006,1113
			c197.145,0,357.474-157.195,362.748-353.068h-165.233C1028.436,862.258,943.238,943.086,839.11,943.086z"/>
	</g>
</g>
</svg>
