<?xml version="1.0" encoding="utf-8"?>
<!-- Generator: Adobe Illustrator 16.0.0, SVG Export Plug-In . SVG Version: 6.00 Build 0)  -->
<!DOCTYPE svg PUBLIC "-//W3C//DTD SVG 1.1//EN" "http://www.w3.org/Graphics/SVG/1.1/DTD/svg11.dtd">
<svg version="1.1" id="Layer_2" xmlns="http://www.w3.org/2000/svg" xmlns:xlink="http://www.w3.org/1999/xlink" x="0px" y="0px"
	 width="3386px" height="2548px" viewBox="0 0 3386 2548" style="enable-background:new 0 0 3386 2548;" xml:space="preserve">
<style type="text/css">
<![CDATA[
	.st0{
	fill:#32A49B;
	filter: url(#drop-shadow);
	}
]]>
</style>
<filter id="drop-shadow">
		<feGaussianBlur in="SourceAlpha" stdDeviation="0.6"/>
		<feOffset dx="0" dy="1" result="offsetblur"/>
		<feFlood flood-color="rgba(0,0,0,0.4)"/>
		<feComposite in2="offsetblur" operator="in"/>
		<feMerge>
			<feMergeNode/>
			<feMergeNode in="SourceGraphic"/>
		</feMerge>
	</filter>
<path class="st0" d="M986,1388c34,18,37,61.5,37,61.5c0,41.146,33.355,74.5,74.5,74.5h427c41.146,0,74.5-33.354,74.5-74.5
	s-33.354-74.5-74.5-74.5H1401c0,0-42-12-43-70c-1.106-64.186,68-75,68-75h219.5c41.146,0,74.5-33.354,74.5-74.5
	s-33.354-74.5-74.5-74.5c0,0-122.5,7-160.5-11c-33.866-16.042-36-56.5-36-56.5c0-41.146-33.354-74.5-74.5-74.5h-405
	c-41.145,0-74.5,33.354-74.5,74.5s33.355,74.5,74.5,74.5H1076c0,0,54.9,11.932,52,68c-3,58-45,70-45,70H863.5
	c-41.145,0-74.5,33.354-74.5,74.5s33.355,74.5,74.5,74.5C863.5,1375,958.782,1373.591,986,1388z"/>
<path class="st0" d="M251,497c34,18,37,61.5,37,61.5c0,41.146,33.355,74.5,74.5,74.5h427c41.146,0,74.5-33.354,74.5-74.5
	S830.646,484,789.5,484H666c0,0-42-12-43-70c-1.106-64.186,68-75,68-75h219.5c41.146,0,74.5-33.354,74.5-74.5S951.646,190,910.5,190
	c0,0-122.5,7-160.5-11c-33.866-16.042-36-56.5-36-56.5c0-41.146-33.354-74.5-74.5-74.5h-405c-41.145,0-74.5,33.354-74.5,74.5
	s33.355,74.5,74.5,74.5H341c0,0,54.9,11.932,52,68c-3,58-45,70-45,70H128.5C87.355,335,54,368.354,54,409.5S87.355,484,128.5,484
	C128.5,484,223.782,482.591,251,497z"/>
<path class="st0" d="M2625,497c34,18,37,61.5,37,61.5c0,41.146,33.355,74.5,74.5,74.5h427c41.146,0,74.5-33.354,74.5-74.5
	s-33.354-74.5-74.5-74.5H3040c0,0-42-12-43-70c-1.106-64.186,68-75,68-75h219.5c41.146,0,74.5-33.354,74.5-74.5
	s-33.354-74.5-74.5-74.5c0,0-122.5,7-160.5-11c-33.866-16.042-36-56.5-36-56.5c0-41.146-33.354-74.5-74.5-74.5h-405
	c-41.145,0-74.5,33.354-74.5,74.5s33.355,74.5,74.5,74.5H2715c0,0,54.9,11.932,52,68c-3,58-45,70-45,70h-219.5
	c-41.145,0-74.5,33.354-74.5,74.5s33.355,74.5,74.5,74.5C2502.5,484,2597.782,482.591,2625,497z"/>
<path class="st0" d="M2285,2289c34,18,37,61.5,37,61.5c0,41.146,33.355,74.5,74.5,74.5h427c41.146,0,74.5-33.354,74.5-74.5
	s-33.354-74.5-74.5-74.5H2700c0,0-42-12-43-70c-1.106-64.186,68-75,68-75h219.5c41.146,0,74.5-33.354,74.5-74.5
	s-33.354-74.5-74.5-74.5c0,0-122.5,7-160.5-11c-33.866-16.042-36-56.5-36-56.5c0-41.146-33.354-74.5-74.5-74.5h-405
	c-41.145,0-74.5,33.354-74.5,74.5s33.355,74.5,74.5,74.5H2375c0,0,54.9,11.932,52,68c-3,58-45,70-45,70h-219.5
	c-41.145,0-74.5,33.354-74.5,74.5s33.355,74.5,74.5,74.5C2162.5,2276,2257.782,2274.591,2285,2289z"/>
<path class="st0" d="M251,2333c34,18,37,61.5,37,61.5c0,41.146,33.355,74.5,74.5,74.5h427c41.146,0,74.5-33.354,74.5-74.5
	s-33.354-74.5-74.5-74.5H666c0,0-42-12-43-70c-1.106-64.186,68-75,68-75h219.5c41.146,0,74.5-33.354,74.5-74.5
	s-33.354-74.5-74.5-74.5c0,0-122.5,7-160.5-11c-33.866-16.042-36-56.5-36-56.5c0-41.146-33.354-74.5-74.5-74.5h-405
	c-41.145,0-74.5,33.354-74.5,74.5s33.355,74.5,74.5,74.5H341c0,0,54.9,11.932,52,68c-3,58-45,70-45,70H128.5
	c-41.145,0-74.5,33.354-74.5,74.5s33.355,74.5,74.5,74.5C128.5,2320,223.782,2318.591,251,2333z"/>
</svg>
