<?xml version="1.0" encoding="utf-8"?>
<!-- Generator: Adobe Illustrator 16.0.0, SVG Export Plug-In . SVG Version: 6.00 Build 0)  -->
<!DOCTYPE svg PUBLIC "-//W3C//DTD SVG 1.1//EN" "http://www.w3.org/Graphics/SVG/1.1/DTD/svg11.dtd">
<svg version="1.1" xmlns="http://www.w3.org/2000/svg" xmlns:xlink="http://www.w3.org/1999/xlink" x="0px" y="0px" width="854px"
	 height="738px" viewBox="0 0 854 738" style="enable-background:new 0 0 854 738;" xml:space="preserve">
<style type="text/css">
<![CDATA[
	.st0{fill:url(#rgrad__uniqueID_c1abc411b33a2);}
	.st1{fill:#4FA5B8;}
	.st2{fill:#2D6473;}
	.st3{
	fill:#3A6976;
	filter: url(#drop-shadow);
	}



]]>
</style>
<defs>
<radialGradient id="rgrad__uniqueID_c1abc411b33a2" cx="50%" cy="50%" r="100%" gradientUnits="objectBoundingBox">
 <stop offset="0%" style="stop-color:rgb(234, 182, 118); stop-opacity:1"></stop>
 <stop offset="50%" style="stop-color:rgb(201, 149, 95); stop-opacity:1"></stop>
 <stop offset="100%" style="stop-color:rgb(216, 140, 57); stop-opacity:1"></stop>
</radialGradient>
<filter id="drop-shadow">
		<feGaussianBlur in="SourceAlpha" stdDeviation="10"/>
		<feOffset dx="40" dy="40" result="offsetblur"/>
		<feFlood flood-color="rgba(0,0,0,0.3)"/>
		<feComposite in2="offsetblur" operator="in"/>
		<feMerge>
			<feMergeNode/>
			<feMergeNode in="SourceGraphic"/>
		</feMerge>
	</filter>
</defs>
<g id="Layer_5">
	<path class="st3" d="M292.206,379.662c54.699,7.472,108.231-3.932,149.92-36.396c50.134-39.041,84.298-112.681,92.128-189.942
		c2.68-26.445,2.274-53.313-1.632-79.364c-6.447-43.002-22.435-83.774-49.831-116.73c-42.575-51.214-107.514-75.772-173.991-80.057
		c-77.927-5.022-157.969,17.813-206.584,58.229C60.793-30.163,38.827,20.343,36.173,75.674
		c-3.118,65.004,13.419,159.669,63.378,219.765c31.353,37.715,61.393,44.271,101.583,62.739
		C226.026,369.615,266.742,376.184,292.206,379.662z"/>
</g>
<g id="Layer_4">
	<circle class="st1" cx="266.438" cy="93.634" r="265.589"/>
</g>
<g id="Layer_3">
	<circle class="st2" cx="269.522" cy="93.435" r="248.673"/>
</g>
<g id="Layer_2">
	<path class="st0" d="M123.603,269.622c16.2,16.202,34.881,29.923,55.425,40.543c30.634,15.837,65.409,24.782,102.273,24.782
		c3.335,0,6.651-0.073,9.95-0.219c16.557-0.727,32.645-3.259,48.07-7.404c38.26-10.28,72.454-30.483,99.656-57.68
		c38.161-38.154,62.56-90.072,65.11-147.669c0.147-3.327,0.222-6.673,0.222-10.037c0-4.49-0.133-8.949-0.395-13.374
		c-1.354-22.903-6.166-44.876-13.919-65.405c-11.293-29.903-28.829-56.743-51.019-78.928c-27.2-27.195-61.393-47.398-99.648-57.679
		c-15.426-4.146-31.512-6.678-48.067-7.406c-3.302-0.145-6.623-0.218-9.961-0.218c-36.858,0-71.628,8.942-102.259,24.774
		c-20.543,10.619-39.225,24.337-55.425,40.536C101.432-23.577,83.898,3.26,72.605,33.16c-7.752,20.526-12.563,42.496-13.918,65.396
		c-0.262,4.428-0.395,8.89-0.395,13.383c0,3.359,0.074,6.702,0.221,10.025C61.061,179.554,85.452,231.468,123.603,269.622z"/>
</g>
</svg>
