<?xml version="1.0" encoding="utf-8"?>
<!-- Generator: Adobe Illustrator 16.0.0, SVG Export Plug-In . SVG Version: 6.00 Build 0)  -->
<!DOCTYPE svg PUBLIC "-//W3C//DTD SVG 1.1//EN" "http://www.w3.org/Graphics/SVG/1.1/DTD/svg11.dtd">
<svg version="1.1" id="Layer_2" xmlns="http://www.w3.org/2000/svg" xmlns:xlink="http://www.w3.org/1999/xlink" x="0px" y="0px"
	 width="984px" height="660px" viewBox="0 0 984 660" style="enable-background:new 0 0 984 660;" xml:space="preserve">
<style type="text/css">
<![CDATA[
	.st0{fill:#5C9A77;}
	.st1{fill:#0A0909;}
]]>
</style>
<path class="st0" d="M850.533,263.625L525.93,247.55c-13.467-0.667-25.944,5.069-35.355,13.29c-0.656-0.209-1.314-1.415-1.984-1.598
	l-35.684-9.783c-5.048-1.384-10.127-1.939-15.094-1.754c-3.303-13.877-12.48-26.255-26.23-33.149L121.055,68.887
	C96.37,56.51,66.325,66.488,53.948,91.173L35.133,232.337c-12.377,24.685,52.198,163.682,76.883,176.059l170.93,62.717
	c24.685,12.377,54.729,2.399,67.106-22.286l55.19-110.073c5.599,5.031,12.414,8.879,20.168,11.004l35.684,9.783
	c3.049,0.836,6.109,0.356,9.15,0.608l-5.975,121.637c-1.365,27.581,19.885,51.048,47.465,52.412l179.673,29.471
	c27.581,1.366,152.173-87.891,153.538-115.471l53.054-132.162C899.365,288.456,878.112,264.99,850.533,263.625z"/>
<ellipse transform="matrix(0.9576 0.2881 -0.2881 0.9576 96.3024 -54.1937)" class="st1" cx="232.286" cy="300.111" rx="145.635" ry="118.254"/>
<ellipse transform="matrix(0.9576 0.2881 -0.2881 0.9576 145.2444 -166.7775)" class="st1" cx="639.286" cy="410.111" rx="145.635" ry="118.254"/>
</svg>
