<svg id="Layer_1" data-name="Layer 1" xmlns="http://www.w3.org/2000/svg" xmlns:xlink="http://www.w3.org/1999/xlink" viewBox="0 0 66.51 50.6"><defs><style>.cls-1{fill:url(#RedGrad);}.cls-2{fill:url(#RedGrad-2);}.cls-3{fill:url(#RedGrad-3);}.cls-4{fill:url(#GreyGrad);}.cls-5{fill:url(#GreyGrad-2);}.cls-6{fill:url(#GreyGrad-3);}</style><linearGradient id="RedGrad" x1="65.72" y1="87.5" x2="65.72" y2="63" gradientUnits="userSpaceOnUse"><stop offset="0" stop-color="#a11c1f"/><stop offset="1" stop-color="#d91921"/></linearGradient><linearGradient id="RedGrad-2" x1="89.98" y1="87.5" x2="89.98" y2="65.35" xlink:href="#RedGrad"/><linearGradient id="RedGrad-3" x1="110.98" y1="87.5" x2="110.98" y2="63" xlink:href="#RedGrad"/><linearGradient id="GreyGrad" x1="65.42" y1="61.41" x2="65.42" y2="36.91" gradientUnits="userSpaceOnUse"><stop offset="0" stop-color="#d4d4d5"/><stop offset="1" stop-color="#fff"/></linearGradient><linearGradient id="GreyGrad-2" x1="89.9" y1="61.41" x2="89.9" y2="39.26" xlink:href="#GreyGrad"/><linearGradient id="GreyGrad-3" x1="111" y1="61.41" x2="111" y2="36.91" xlink:href="#GreyGrad"/></defs><path class="cls-1" d="M62.43,69.26H67a2.89,2.89,0,0,1,1.77.42,1.66,1.66,0,0,1,.53,1.37,1.87,1.87,0,0,1-.62,1.55,2.73,2.73,0,0,1-1.81.53h-4.4Zm0,8.55H67a3.35,3.35,0,0,1,2,.48,1.64,1.64,0,0,1,.66,1.44A1.84,1.84,0,0,1,69,81.32a4,4,0,0,1-2.27.49h-4.3Zm7.33,9.69c3,0,5.1-.49,6.38-1.48s1.91-2.64,1.91-4.94a5.46,5.46,0,0,0-1.56-4.28,7.75,7.75,0,0,0-4.94-1.56,7.09,7.09,0,0,0,4.68-1.73,6.1,6.1,0,0,0,1.5-4.5c0-2.23-.54-3.78-1.61-4.67S73.14,63,70.39,63h-17V87.5Z" transform="translate(-53.39 -36.91)"/><path class="cls-2" d="M87.9,71.85A3.91,3.91,0,0,1,90.64,71a3.85,3.85,0,0,1,2.72.83,3.45,3.45,0,0,1,.94,2.56H87A3.45,3.45,0,0,1,87.9,71.85Zm12.71,8.63A37.5,37.5,0,0,1,96,81.57a24.22,24.22,0,0,1-4,.36,6.88,6.88,0,0,1-3.55-.74,3,3,0,0,1-1.43-2.28h14.12c.06-.64.11-1.24.15-1.81s.06-1.11.06-1.62q0-5.4-2.6-7.76c-1.73-1.58-4.56-2.37-8.51-2.37-4.14,0-7.13.83-9,2.5s-2.73,4.41-2.73,8.21c0,4,.9,6.84,2.72,8.68S86,87.5,89.89,87.5a28.67,28.67,0,0,0,4.84-.41,35.94,35.94,0,0,0,5-1.23Z" transform="translate(-53.39 -36.91)"/><path class="cls-3" d="M119.61,81.58c-.8.12-1.46.2-2,.24s-1,.08-1.37.09a3.06,3.06,0,0,1-1.83-.44,1.54,1.54,0,0,1-.58-1.34V73.79h6V67h-6V63H109c-1.14,1.22-2.29,2.39-3.45,3.49s-2.31,2.15-3.48,3.12v4.18h2.83V82c0,2,.5,3.45,1.5,4.28s2.71,1.25,5.14,1.25a37.08,37.08,0,0,0,4-.2,38.35,38.35,0,0,0,3.81-.58Z" transform="translate(-53.39 -36.91)"/><path class="cls-4" d="M61.51,46c.33,1.08.71,2.19,1.14,3.31s.91,2.26,1.44,3.4l4,8.71h9.4V36.91H69.1V41.4c0,1.73,0,3.28.13,4.66s.22,2.66.4,3.84h-.3c-.5-1.47-1-2.75-1.36-3.85s-.79-2-1.14-2.83L64,36.91H53.39v24.5h8.38V54.88c0-1.78-.05-3.41-.14-4.88s-.23-2.81-.41-4Z" transform="translate(-53.39 -36.91)"/><path class="cls-5" d="M87.82,45.76a3.91,3.91,0,0,1,2.74-.83,3.85,3.85,0,0,1,2.72.83,3.47,3.47,0,0,1,.94,2.56H86.87A3.44,3.44,0,0,1,87.82,45.76Zm12.7,8.63a37.07,37.07,0,0,1-4.58,1.09,24.11,24.11,0,0,1-4,.36,6.88,6.88,0,0,1-3.55-.74A3,3,0,0,1,87,52.82h14.12c.06-.64.11-1.24.15-1.81s.06-1.11.06-1.62q0-5.4-2.6-7.76t-8.51-2.37q-6.22,0-9,2.5T78.5,50q0,5.93,2.73,8.68t8.57,2.76A28.79,28.79,0,0,0,94.65,61a35.94,35.94,0,0,0,5-1.23Z" transform="translate(-53.39 -36.91)"/><path class="cls-6" d="M119.62,55.49q-1.19.18-2,.24c-.53.05-1,.08-1.37.09a3.09,3.09,0,0,1-1.84-.44,1.56,1.56,0,0,1-.58-1.34V47.7h6.05V40.9h-6.05v-4H109c-1.14,1.22-2.28,2.39-3.44,3.49s-2.32,2.14-3.49,3.12V47.7h2.84v8.18c0,2,.5,3.45,1.5,4.28s2.71,1.25,5.14,1.25a37.21,37.21,0,0,0,4-.2,38.15,38.15,0,0,0,3.8-.58Z" transform="translate(-53.39 -36.91)"/></svg>