<?xml version="1.0" encoding="UTF-8"?><svg xmlns="http://www.w3.org/2000/svg" xmlns:xlink="http://www.w3.org/1999/xlink" viewBox="0 0 1335.69 695.09"><defs><style>.cls-1{fill:url(#radial-gradient-11);}.cls-1,.cls-2,.cls-3,.cls-4,.cls-5,.cls-6,.cls-7,.cls-8,.cls-9,.cls-10,.cls-11,.cls-12,.cls-13,.cls-14,.cls-15,.cls-16,.cls-17,.cls-18,.cls-19,.cls-20,.cls-21,.cls-22,.cls-23,.cls-24,.cls-25,.cls-26,.cls-27,.cls-28,.cls-29,.cls-30,.cls-31,.cls-32{mix-blend-mode:multiply;}.cls-33{fill:url(#radial-gradient-87);}.cls-33,.cls-34,.cls-35,.cls-36,.cls-37,.cls-38,.cls-39,.cls-40,.cls-41,.cls-42,.cls-43,.cls-44,.cls-45,.cls-46,.cls-47,.cls-48,.cls-49,.cls-50,.cls-51,.cls-52,.cls-53,.cls-54,.cls-55,.cls-56,.cls-57,.cls-58,.cls-59,.cls-60,.cls-61{mix-blend-mode:screen;}.cls-34{fill:url(#radial-gradient-57);}.cls-2{fill:url(#radial-gradient-38);}.cls-62{fill:url(#radial-gradient-7);}.cls-62,.cls-63,.cls-64,.cls-65,.cls-66,.cls-67,.cls-68,.cls-69,.cls-70,.cls-71,.cls-72,.cls-73,.cls-74,.cls-75,.cls-76,.cls-77,.cls-78,.cls-79,.cls-80,.cls-81,.cls-82,.cls-83,.cls-84,.cls-85,.cls-86,.cls-87,.cls-88,.cls-89,.cls-90{mix-blend-mode:color-dodge;}.cls-63{fill:url(#radial-gradient-19);}.cls-64{fill:url(#radial-gradient-82);}.cls-3{fill:url(#radial-gradient-50);}.cls-35{fill:url(#radial-gradient-36);}.cls-36{fill:url(#radial-gradient-30);}.cls-65{fill:url(#radial-gradient-64);}.cls-37{fill:url(#radial-gradient-81);}.cls-4{fill:url(#radial-gradient-41);}.cls-91{fill:#7d1414;}.cls-66{fill:url(#radial-gradient-34);}.cls-5{fill:url(#radial-gradient-65);}.cls-67{fill:url(#radial-gradient-55);}.cls-38{fill:url(#radial-gradient-39);}.cls-6{fill:url(#radial-gradient-8);}.cls-39{fill:url(#radial-gradient-27);}.cls-7{fill:url(#radial-gradient-29);}.cls-68{fill:url(#radial-gradient-28);}.cls-8{fill:url(#radial-gradient-2);}.cls-69{fill:url(#radial-gradient-43);}.cls-70{fill:url(#radial-gradient-70);}.cls-40{fill:url(#radial-gradient-21);}.cls-71{fill:url(#radial-gradient-49);}.cls-9{fill:url(#radial-gradient-4);}.cls-10{fill:url(#radial-gradient-62);}.cls-72{fill:url(#radial-gradient-46);}.cls-11{fill:url(#radial-gradient-20);}.cls-73{fill:url(#radial-gradient-61);}.cls-74{fill:url(#radial-gradient-88);}.cls-92{fill:#470b11;}.cls-12{fill:url(#radial-gradient-71);}.cls-41{fill:url(#radial-gradient-54);}.cls-13{fill:url(#radial-gradient-5);}.cls-14{fill:url(#radial-gradient-83);}.cls-15{fill:url(#radial-gradient-53);}.cls-75{fill:url(#radial-gradient-73);}.cls-16{fill:url(#radial-gradient-35);}.cls-93{fill:url(#radial-gradient);}.cls-76{fill:url(#radial-gradient-25);}.cls-77{fill:url(#radial-gradient-16);}.cls-78{fill:url(#radial-gradient-79);}.cls-42{fill:url(#radial-gradient-69);}.cls-94{isolation:isolate;}.cls-94,.cls-95{fill:none;}.cls-79{fill:url(#radial-gradient-37);}.cls-80{fill:url(#radial-gradient-13);}.cls-17{fill:url(#radial-gradient-56);}.cls-81{fill:url(#radial-gradient-10);}.cls-43{fill:url(#radial-gradient-12);}.cls-82{fill:url(#radial-gradient-31);}.cls-83{fill:url(#radial-gradient-91);}.cls-44{fill:url(#radial-gradient-18);}.cls-18{fill:url(#radial-gradient-77);}.cls-45{fill:url(#radial-gradient-15);}.cls-46{fill:url(#radial-gradient-24);}.cls-19{fill:url(#radial-gradient-86);}.cls-47{fill:url(#radial-gradient-60);}.cls-20{fill:url(#radial-gradient-47);}.cls-84{fill:url(#radial-gradient-67);}.cls-21{fill:url(#radial-gradient-23);}.cls-48{fill:url(#radial-gradient-51);}.cls-49{fill:url(#radial-gradient-9);}.cls-95{clip-path:url(#clippath);}.cls-50{fill:url(#radial-gradient-45);}.cls-51{fill:url(#radial-gradient-66);}.cls-52{fill:url(#radial-gradient-63);}.cls-22{fill:url(#radial-gradient-14);}.cls-23{fill:url(#radial-gradient-44);}.cls-53{fill:url(#radial-gradient-84);}.cls-96{fill:#b31c1c;}.cls-54{fill:url(#radial-gradient-6);}.cls-55{fill:url(#radial-gradient-72);}.cls-24{fill:url(#radial-gradient-17);}.cls-85{fill:url(#radial-gradient-40);}.cls-56{fill:url(#radial-gradient-42);}.cls-97{fill:#ed343b;}.cls-86{fill:url(#radial-gradient-58);}.cls-57{fill:url(#radial-gradient-75);}.cls-58{fill:url(#radial-gradient-78);}.cls-87{fill:url(#radial-gradient-85);}.cls-59{fill:url(#radial-gradient-90);}.cls-25{fill:url(#radial-gradient-68);}.cls-26{fill:url(#radial-gradient-80);}.cls-60{fill:url(#radial-gradient-48);}.cls-27{fill:url(#radial-gradient-59);}.cls-28{fill:url(#radial-gradient-3);}.cls-88{fill:url(#radial-gradient-52);}.cls-89{fill:url(#radial-gradient-22);}.cls-29{fill:url(#radial-gradient-26);}.cls-30{fill:url(#radial-gradient-74);}.cls-90{fill:url(#radial-gradient-76);}.cls-31{fill:url(#radial-gradient-32);}.cls-61{fill:url(#radial-gradient-33);}.cls-32{fill:url(#radial-gradient-89);}</style><radialGradient id="radial-gradient" cx="667.85" cy="5439.4" fx="667.85" fy="5439.4" r="711.57" gradientTransform="translate(0 -2971.84) scale(1 .62)" gradientUnits="userSpaceOnUse"><stop offset="0" stop-color="#2e0025"/><stop offset=".3" stop-color="#25011f"/><stop offset=".78" stop-color="#0d0411"/><stop offset="1" stop-color="#00070a"/></radialGradient><clipPath id="clippath"><path class="cls-92" d="m1063.03,293.91c-41.11-23.69-246.81-142.2-259.81-148.4l-3.24-1.5c-41.33-19.09-85.78-28.77-132.13-28.77s-90.79,9.68-132.17,28.79l-3.41,1.59c-12.79,6.1-218.5,124.61-259.53,148.26-45.76,26.16-70.97,62.32-70.97,101.82,0,39.5,25.2,75.67,70.9,101.79,41.11,23.69,246.81,142.2,259.83,148.41l3.23,1.5c41.33,19.09,85.79,28.77,132.13,28.77s90.79-9.68,132.15-28.78l3.43-1.59c12.79-6.1,218.49-124.61,259.52-148.26,45.77-26.16,70.97-62.32,70.97-101.83s-25.2-75.67-70.9-101.78Zm-22.49,166.28c-97.2,56.03-245.45,141.17-256.5,146.68l-2.98,1.38c-35.37,16.34-73.46,24.62-113.21,24.62s-77.84-8.28-113.19-24.61l-3-1.39c-11.04-5.5-159.29-90.64-256.58-146.71-31.62-18.08-49.04-40.96-49.04-64.45s17.41-46.38,49.11-64.49c97.21-56.03,245.46-141.17,256.51-146.68l2.98-1.38c35.37-16.34,73.46-24.62,113.21-24.62s77.84,8.28,113.18,24.6l3.01,1.4c11.01,5.48,159.29,90.64,256.58,146.72,31.62,18.07,49.04,40.96,49.04,64.45s-17.41,46.38-49.11,64.49Z"/></clipPath><radialGradient id="radial-gradient-2" cx="1835.16" cy="-152.58" fx="1835.16" fy="-152.58" r="226.21" gradientTransform="translate(846.53 519.59) rotate(-90.03) scale(.22 1.17)" gradientUnits="userSpaceOnUse"><stop offset="0" stop-color="#574d50"/><stop offset=".11" stop-color="#5e5457"/><stop offset=".28" stop-color="#726a6d"/><stop offset=".49" stop-color="#948d8f"/><stop offset=".73" stop-color="#c2bfc0"/><stop offset=".99" stop-color="#fdfdfd"/><stop offset="1" stop-color="#fff"/></radialGradient><radialGradient id="radial-gradient-3" cx="1681.96" cy="-10.05" fx="1681.96" fy="-10.05" r="226.2" gradientTransform="translate(785.97 557.61) rotate(-60.43) scale(.22 1.93)" xlink:href="#radial-gradient-2"/><radialGradient id="radial-gradient-4" cx="1181.37" cy="-112.62" fx="1181.37" fy="-112.62" r="226.2" gradientTransform="translate(322.19 557.61) rotate(-119.57) scale(.22 -1.93)" xlink:href="#radial-gradient-2"/><radialGradient id="radial-gradient-5" cx="2107.24" cy="476.4" fx="2107.24" fy="476.4" r="20.04" gradientTransform="translate(2761.17 637.69) rotate(-178.99)" gradientUnits="userSpaceOnUse"><stop offset="0" stop-color="#231f20"/><stop offset=".09" stop-color="#2a2627"/><stop offset=".24" stop-color="#403c3d"/><stop offset=".42" stop-color="#625f60"/><stop offset=".62" stop-color="#939191"/><stop offset=".84" stop-color="#d0cfcf"/><stop offset="1" stop-color="#fff"/></radialGradient><radialGradient id="radial-gradient-6" cx="2100.55" cy="482.83" fx="2100.55" fy="482.83" r="21.4" gradientTransform="translate(2761.17 637.69) rotate(-178.99)" gradientUnits="userSpaceOnUse"><stop offset="0" stop-color="#853939"/><stop offset=".15" stop-color="#7f3636"/><stop offset=".33" stop-color="#703030"/><stop offset=".53" stop-color="#572525"/><stop offset=".74" stop-color="#341616"/><stop offset=".96" stop-color="#070303"/><stop offset="1" stop-color="#000"/></radialGradient><radialGradient id="radial-gradient-7" cx="2102.24" cy="479.85" fx="2102.24" fy="479.85" r="20.06" gradientTransform="translate(2761.17 637.69) rotate(-178.99)" gradientUnits="userSpaceOnUse"><stop offset=".37" stop-color="#f1e1db"/><stop offset=".42" stop-color="#f1ddc4"/><stop offset=".53" stop-color="#f1d68a"/><stop offset=".69" stop-color="#f1c92e"/><stop offset=".7" stop-color="#f1c929"/><stop offset=".73" stop-color="#e6c027"/><stop offset=".78" stop-color="#caa822"/><stop offset=".84" stop-color="#9c821a"/><stop offset=".91" stop-color="#5c4d0f"/><stop offset=".99" stop-color="#0c0a02"/><stop offset="1" stop-color="#000"/></radialGradient><radialGradient id="radial-gradient-8" cx="2563.44" cy="193.31" fx="2563.44" fy="193.31" r="20.04" xlink:href="#radial-gradient-5"/><radialGradient id="radial-gradient-9" cx="2556.75" cy="199.73" fx="2556.75" fy="199.73" r="21.4" xlink:href="#radial-gradient-6"/><radialGradient id="radial-gradient-10" cx="2558.44" cy="196.75" fx="2558.44" fy="196.75" r="20.06" xlink:href="#radial-gradient-7"/><radialGradient id="radial-gradient-11" cx="2463.04" cy="307.03" fx="2463.04" fy="307.03" r="20.04" xlink:href="#radial-gradient-5"/><radialGradient id="radial-gradient-12" cx="2456.35" cy="313.46" fx="2456.35" fy="313.46" r="21.4" xlink:href="#radial-gradient-6"/><radialGradient id="radial-gradient-13" cx="2458.04" cy="310.48" fx="2458.04" fy="310.48" r="20.06" xlink:href="#radial-gradient-7"/><radialGradient id="radial-gradient-14" cx="2326.77" cy="390.35" fx="2326.77" fy="390.35" r="20.04" xlink:href="#radial-gradient-5"/><radialGradient id="radial-gradient-15" cx="2320.07" cy="396.78" fx="2320.07" fy="396.78" r="21.4" xlink:href="#radial-gradient-6"/><radialGradient id="radial-gradient-16" cx="2321.77" cy="393.8" fx="2321.77" fy="393.8" r="20.06" xlink:href="#radial-gradient-7"/><radialGradient id="radial-gradient-17" cx="2185.97" cy="464.57" fx="2185.97" fy="464.57" r="20.04" xlink:href="#radial-gradient-5"/><radialGradient id="radial-gradient-18" cx="2179.28" cy="471" fx="2179.28" fy="471" r="21.4" xlink:href="#radial-gradient-6"/><radialGradient id="radial-gradient-19" cx="2180.97" cy="468.02" fx="2180.97" fy="468.02" r="20.06" xlink:href="#radial-gradient-7"/><radialGradient id="radial-gradient-20" cx="1641.3" cy="209.63" fx="1641.3" fy="209.63" r="20.04" xlink:href="#radial-gradient-5"/><radialGradient id="radial-gradient-21" cx="1634.61" cy="216.06" fx="1634.61" fy="216.06" r="21.4" xlink:href="#radial-gradient-6"/><radialGradient id="radial-gradient-22" cx="1636.3" cy="213.08" fx="1636.3" fy="213.08" r="20.06" xlink:href="#radial-gradient-7"/><radialGradient id="radial-gradient-23" cx="1954.5" cy="437.14" fx="1954.5" fy="437.14" r="20.04" xlink:href="#radial-gradient-5"/><radialGradient id="radial-gradient-24" cx="1947.81" cy="443.57" fx="1947.81" fy="443.57" r="21.4" xlink:href="#radial-gradient-6"/><radialGradient id="radial-gradient-25" cx="1949.5" cy="440.59" fx="1949.5" fy="440.59" r="20.06" xlink:href="#radial-gradient-7"/><radialGradient id="radial-gradient-26" cx="1745.64" cy="319.72" fx="1745.64" fy="319.72" r="20.04" xlink:href="#radial-gradient-5"/><radialGradient id="radial-gradient-27" cx="1738.95" cy="326.15" fx="1738.95" fy="326.15" r="21.4" xlink:href="#radial-gradient-6"/><radialGradient id="radial-gradient-28" cx="1740.64" cy="323.17" fx="1740.64" fy="323.17" r="20.06" xlink:href="#radial-gradient-7"/><radialGradient id="radial-gradient-29" cx="2097.5" cy="-73.47" fx="2097.5" fy="-73.47" r="20.04" xlink:href="#radial-gradient-5"/><radialGradient id="radial-gradient-30" cx="2090.81" cy="-67.04" fx="2090.81" fy="-67.04" r="21.4" xlink:href="#radial-gradient-6"/><radialGradient id="radial-gradient-31" cx="2092.5" cy="-70.02" fx="2092.5" fy="-70.02" r="20.06" xlink:href="#radial-gradient-7"/><radialGradient id="radial-gradient-32" cx="1685.5" cy="131.52" fx="1685.5" fy="131.52" r="20.04" xlink:href="#radial-gradient-5"/><radialGradient id="radial-gradient-33" cx="1678.81" cy="137.95" fx="1678.81" fy="137.95" r="21.4" xlink:href="#radial-gradient-6"/><radialGradient id="radial-gradient-34" cx="1680.5" cy="134.97" fx="1680.5" fy="134.97" r="20.06" xlink:href="#radial-gradient-7"/><radialGradient id="radial-gradient-35" cx="1843.88" cy="33.38" fx="1843.88" fy="33.38" r="20.04" xlink:href="#radial-gradient-5"/><radialGradient id="radial-gradient-36" cx="1837.19" cy="39.81" fx="1837.19" fy="39.81" xlink:href="#radial-gradient-6"/><radialGradient id="radial-gradient-37" cx="1838.88" cy="36.83" fx="1838.88" fy="36.83" r="20.06" xlink:href="#radial-gradient-7"/><radialGradient id="radial-gradient-38" cx="2006.08" cy="-57.62" fx="2006.08" fy="-57.62" r="20.04" xlink:href="#radial-gradient-5"/><radialGradient id="radial-gradient-39" cx="1999.39" cy="-51.19" fx="1999.39" fy="-51.19" r="21.4" xlink:href="#radial-gradient-6"/><radialGradient id="radial-gradient-40" cx="2001.08" cy="-54.17" fx="2001.08" fy="-54.17" r="20.06" xlink:href="#radial-gradient-7"/><radialGradient id="radial-gradient-41" cx="2250.24" cy="-34.21" fx="2250.24" fy="-34.21" r="20.04" xlink:href="#radial-gradient-5"/><radialGradient id="radial-gradient-42" cx="2243.55" cy="-27.78" fx="2243.55" fy="-27.78" r="21.4" xlink:href="#radial-gradient-6"/><radialGradient id="radial-gradient-43" cx="2245.24" cy="-30.76" fx="2245.24" fy="-30.76" r="20.06" xlink:href="#radial-gradient-7"/><radialGradient id="radial-gradient-44" cx="2389.55" cy="43.95" fx="2389.55" fy="43.95" r="20.04" xlink:href="#radial-gradient-5"/><radialGradient id="radial-gradient-45" cx="2382.86" cy="50.38" fx="2382.86" fy="50.38" r="21.4" xlink:href="#radial-gradient-6"/><radialGradient id="radial-gradient-46" cx="2384.55" cy="47.4" fx="2384.55" fy="47.4" r="20.06" xlink:href="#radial-gradient-7"/><radialGradient id="radial-gradient-47" cx="2527.02" cy="124.98" fx="2527.02" fy="124.98" r="20.04" xlink:href="#radial-gradient-5"/><radialGradient id="radial-gradient-48" cx="2520.33" cy="131.41" fx="2520.33" fy="131.41" r="21.4" xlink:href="#radial-gradient-6"/><radialGradient id="radial-gradient-49" cx="2522.02" cy="128.43" fx="2522.02" fy="128.43" r="20.06" xlink:href="#radial-gradient-7"/><radialGradient id="radial-gradient-50" cx="2529.44" cy="262.87" fx="2529.44" fy="262.87" r="20.04" xlink:href="#radial-gradient-5"/><radialGradient id="radial-gradient-51" cx="2522.74" cy="269.3" fx="2522.74" fy="269.3" r="21.4" xlink:href="#radial-gradient-6"/><radialGradient id="radial-gradient-52" cx="2524.44" cy="266.32" fx="2524.44" fy="266.32" r="20.06" xlink:href="#radial-gradient-7"/><radialGradient id="radial-gradient-53" cx="2394.93" cy="348.73" fx="2394.93" fy="348.73" r="20.04" xlink:href="#radial-gradient-5"/><radialGradient id="radial-gradient-54" cx="2388.24" cy="355.16" fx="2388.24" fy="355.16" r="21.4" xlink:href="#radial-gradient-6"/><radialGradient id="radial-gradient-55" cx="2389.93" cy="352.18" fx="2389.93" fy="352.18" r="20.06" xlink:href="#radial-gradient-7"/><radialGradient id="radial-gradient-56" cx="2258.48" cy="431.77" fx="2258.48" fy="431.77" r="20.04" xlink:href="#radial-gradient-5"/><radialGradient id="radial-gradient-57" cx="2251.79" cy="438.2" fx="2251.79" fy="438.2" r="21.4" xlink:href="#radial-gradient-6"/><radialGradient id="radial-gradient-58" cx="2253.48" cy="435.22" fx="2253.48" fy="435.22" r="20.06" xlink:href="#radial-gradient-7"/><radialGradient id="radial-gradient-59" cx="2028.12" cy="467.36" fx="2028.12" fy="467.36" r="20.04" xlink:href="#radial-gradient-5"/><radialGradient id="radial-gradient-60" cx="2021.43" cy="473.79" fx="2021.43" fy="473.79" r="21.4" xlink:href="#radial-gradient-6"/><radialGradient id="radial-gradient-61" cx="2023.12" cy="470.81" fx="2023.12" fy="470.81" r="20.06" xlink:href="#radial-gradient-7"/><radialGradient id="radial-gradient-62" cx="1884.79" cy="398.17" fx="1884.79" fy="398.17" r="20.04" xlink:href="#radial-gradient-5"/><radialGradient id="radial-gradient-63" cx="1878.1" cy="404.59" fx="1878.1" fy="404.59" r="21.4" xlink:href="#radial-gradient-6"/><radialGradient id="radial-gradient-64" cx="1879.79" cy="401.61" fx="1879.79" fy="401.61" r="20.06" xlink:href="#radial-gradient-7"/><radialGradient id="radial-gradient-65" cx="1815.2" cy="358.98" fx="1815.2" fy="358.98" r="20.04" xlink:href="#radial-gradient-5"/><radialGradient id="radial-gradient-66" cx="1808.51" cy="365.41" fx="1808.51" fy="365.41" r="21.4" xlink:href="#radial-gradient-6"/><radialGradient id="radial-gradient-67" cx="1810.2" cy="362.43" fx="1810.2" fy="362.43" r="20.06" xlink:href="#radial-gradient-7"/><radialGradient id="radial-gradient-68" cx="1677.72" cy="277.95" fx="1677.72" fy="277.95" r="20.04" xlink:href="#radial-gradient-5"/><radialGradient id="radial-gradient-69" cx="1671.03" cy="284.38" fx="1671.03" fy="284.38" r="21.4" xlink:href="#radial-gradient-6"/><radialGradient id="radial-gradient-70" cx="1672.72" cy="281.4" fx="1672.72" fy="281.4" r="20.06" xlink:href="#radial-gradient-7"/><radialGradient id="radial-gradient-71" cx="1764.4" cy="82" fx="1764.4" fy="82" r="20.04" xlink:href="#radial-gradient-5"/><radialGradient id="radial-gradient-72" cx="1757.71" cy="88.42" fx="1757.71" fy="88.42" r="21.4" xlink:href="#radial-gradient-6"/><radialGradient id="radial-gradient-73" cx="1759.4" cy="85.44" fx="1759.4" fy="85.44" r="20.06" xlink:href="#radial-gradient-7"/><radialGradient id="radial-gradient-74" cx="1923.47" cy="-15.08" fx="1923.47" fy="-15.08" r="20.04" xlink:href="#radial-gradient-5"/><radialGradient id="radial-gradient-75" cx="1916.78" cy="-8.65" fx="1916.78" fy="-8.65" r="21.4" xlink:href="#radial-gradient-6"/><radialGradient id="radial-gradient-76" cx="1918.47" cy="-11.63" fx="1918.47" fy="-11.63" r="20.06" xlink:href="#radial-gradient-7"/><radialGradient id="radial-gradient-77" cx="2563.44" cy="193.31" fx="2563.44" fy="193.31" r="20.04" xlink:href="#radial-gradient-5"/><radialGradient id="radial-gradient-78" cx="2556.75" cy="199.73" fx="2556.75" fy="199.73" r="21.4" xlink:href="#radial-gradient-6"/><radialGradient id="radial-gradient-79" cx="2558.44" cy="196.75" fx="2558.44" fy="196.75" r="20.06" xlink:href="#radial-gradient-7"/><radialGradient id="radial-gradient-80" cx="2097.5" cy="-73.47" fx="2097.5" fy="-73.47" r="20.04" xlink:href="#radial-gradient-5"/><radialGradient id="radial-gradient-81" cx="2090.81" cy="-67.04" fx="2090.81" fy="-67.04" r="21.4" xlink:href="#radial-gradient-6"/><radialGradient id="radial-gradient-82" cx="2092.5" cy="-70.02" fx="2092.5" fy="-70.02" r="20.06" xlink:href="#radial-gradient-7"/><radialGradient id="radial-gradient-83" cx="2176.62" cy="-64.43" fx="2176.62" fy="-64.43" r="20.04" xlink:href="#radial-gradient-5"/><radialGradient id="radial-gradient-84" cx="2169.93" cy="-58" fx="2169.93" fy="-58" r="21.4" xlink:href="#radial-gradient-6"/><radialGradient id="radial-gradient-85" cx="2171.62" cy="-60.98" fx="2171.62" fy="-60.98" r="20.06" xlink:href="#radial-gradient-7"/><radialGradient id="radial-gradient-86" cx="2319.95" cy="4.77" fx="2319.95" fy="4.77" r="20.04" xlink:href="#radial-gradient-5"/><radialGradient id="radial-gradient-87" cx="2313.26" cy="11.19" fx="2313.26" fy="11.19" r="21.4" xlink:href="#radial-gradient-6"/><radialGradient id="radial-gradient-88" cx="2314.95" cy="8.21" fx="2314.95" fy="8.21" r="20.06" xlink:href="#radial-gradient-7"/><radialGradient id="radial-gradient-89" cx="2459.1" cy="83.21" fx="2459.1" fy="83.21" r="20.04" xlink:href="#radial-gradient-5"/><radialGradient id="radial-gradient-90" cx="2452.41" cy="89.64" fx="2452.41" fy="89.64" r="21.4" xlink:href="#radial-gradient-6"/><radialGradient id="radial-gradient-91" cx="2454.1" cy="86.66" fx="2454.1" fy="86.66" r="20.06" xlink:href="#radial-gradient-7"/></defs><g class="cls-94"><g id="Layer_2"><g id="box"><path class="cls-93" d="m1077.48,469.04c-106.84,63.73-269.78,160.55-281.93,166.81l-3.27,1.57c-38.88,18.58-80.75,28-124.44,28s-85.56-9.42-124.41-27.98l-3.3-1.58c-12.13-6.25-175.08-103.08-282.01-166.86-34.76-20.56-53.9-46.59-53.9-73.3s19.14-52.74,53.98-73.34c106.84-63.73,269.79-160.56,281.93-166.81l3.27-1.57c38.88-18.58,80.74-28,124.44-28s85.56,9.42,124.4,27.98l3.31,1.59c12.1,6.23,175.08,103.08,282.01,166.86,34.76,20.55,53.9,46.59,53.9,73.3s-19.14,52.75-53.98,73.35Z"/><path class="cls-92" d="m1063.03,293.91c-41.11-23.69-246.81-142.2-259.81-148.4l-3.24-1.5c-41.33-19.09-85.78-28.77-132.13-28.77s-90.79,9.68-132.17,28.79l-3.41,1.59c-12.79,6.1-218.5,124.61-259.53,148.26-45.76,26.16-70.97,62.32-70.97,101.82,0,39.5,25.2,75.67,70.9,101.79,41.11,23.69,246.81,142.2,259.83,148.41l3.23,1.5c41.33,19.09,85.79,28.77,132.13,28.77s90.79-9.68,132.15-28.78l3.43-1.59c12.79-6.1,218.49-124.61,259.52-148.26,45.77-26.16,70.97-62.32,70.97-101.83s-25.2-75.67-70.9-101.78Zm-22.49,166.28c-97.2,56.03-245.45,141.17-256.5,146.68l-2.98,1.38c-35.37,16.34-73.46,24.62-113.21,24.62s-77.84-8.28-113.19-24.61l-3-1.39c-11.04-5.5-159.29-90.64-256.58-146.71-31.62-18.08-49.04-40.96-49.04-64.45s17.41-46.38,49.11-64.49c97.21-56.03,245.46-141.17,256.51-146.68l2.98-1.38c35.37-16.34,73.46-24.62,113.21-24.62s77.84,8.28,113.18,24.6l3.01,1.4c11.01,5.48,159.29,90.64,256.58,146.72,31.62,18.07,49.04,40.96,49.04,64.45s-17.41,46.38-49.11,64.49Z"/><g class="cls-95"><path class="cls-8" d="m667.87,158.78c146.14-.07,264.61-22.85,264.59-50.87-.01-28.03-118.49-50.69-264.64-50.62-146.14.07-264.61,22.85-264.59,50.87.01,28.03,118.5,50.69,264.64,50.62Z"/><path class="cls-28" d="m930.25,264.03c209.63,118.95,390.77,195.61,404.6,171.23,13.83-24.37-144.89-140.56-354.52-259.5C770.71,56.81,589.56-19.86,575.73,4.52c-13.83,24.37,144.89,140.56,354.52,259.51Z"/><path class="cls-9" d="m405.44,264.03C195.82,382.97,14.67,459.64.84,435.26c-13.83-24.37,144.89-140.56,354.52-259.5C564.98,56.81,746.13-19.86,759.96,4.52c13.83,24.37-144.89,140.56-354.52,259.51Z"/></g><path class="cls-96" d="m1078.32,287.56c-42.7-25.17-256.36-151.07-269.87-157.66l-3.37-1.6c-42.93-20.28-89.1-30.56-137.24-30.56s-94.31,10.28-137.28,30.58l-3.55,1.69c-13.29,6.48-226.95,132.38-269.57,157.52-47.54,27.79-73.71,66.21-73.71,108.18,0,41.97,26.18,80.39,73.64,108.14,42.7,25.17,256.36,151.07,269.88,157.67l3.36,1.59c42.93,20.28,89.11,30.56,137.24,30.56s94.31-10.28,137.26-30.57l3.57-1.69c13.28-6.48,226.94-132.38,269.57-157.51,47.54-27.79,73.72-66.21,73.72-108.18s-26.18-80.39-73.64-108.13Zm-23.36,176.65c-100.97,59.53-254.95,149.98-266.43,155.83l-3.09,1.47c-36.74,17.36-76.31,26.16-117.59,26.16s-80.85-8.8-117.57-26.14l-3.12-1.48c-11.47-5.84-165.46-96.3-266.5-155.87-32.85-19.2-50.93-43.52-50.93-68.48s18.09-49.27,51.01-68.52c100.97-59.53,254.96-149.99,266.43-155.83l3.09-1.47c36.74-17.35,76.31-26.16,117.59-26.16s80.85,8.8,117.56,26.14l3.13,1.48c11.43,5.82,165.45,96.29,266.51,155.87,32.85,19.2,50.93,43.52,50.93,68.47s-18.09,49.27-51.01,68.52Z"/><path class="cls-91" d="m931.68,589.16c-16.99,9.89-35.4,20.59-54.86,31.92-19.48,11.3-39.97,23.27-61.44,35.26-2.67,1.47-5.37,3.11-8.05,4.46-2.79,1.36-5.64,2.54-8.49,3.8-2.85,1.24-5.71,2.49-8.58,3.74-2.85,1.3-5.85,2.24-8.79,3.39-2.95,1.1-5.91,2.2-8.88,3.3-3,1.01-6.05,1.9-9.09,2.86-3.05.92-6.08,1.93-9.16,2.79-3.1.78-6.22,1.55-9.33,2.33-25.01,6.12-50.99,9.21-77.17,9.21-26.11.02-52.21-3.08-77.17-9.2-3.12-.78-6.23-1.56-9.33-2.33-3.08-.86-6.11-1.87-9.16-2.79-3.04-.96-6.09-1.84-9.09-2.86-2.96-1.1-5.92-2.2-8.87-3.3-2.93-1.14-5.92-2.08-8.78-3.39-2.88-1.26-5.75-2.51-8.61-3.76-2.88-1.27-5.69-2.44-8.48-3.8-2.72-1.42-5.38-3-8.06-4.49-21.4-11.94-41.93-23.93-61.41-35.23-19.47-11.33-37.88-22.04-54.88-31.93-68.04-39.45-113.4-65.74-113.4-65.74,0,0,11.25,6.72,30.95,18.49,19.71,11.74,47.78,28.65,81.67,48.59,16.95,9.97,35.31,20.76,54.73,32.18,19.44,11.39,39.88,23.47,61.36,35.57,2.69,1.51,5.33,3.1,8.09,4.55,2.77,1.37,5.7,2.6,8.52,3.86,2.85,1.26,5.72,2.53,8.59,3.8,2.85,1.32,5.89,2.29,8.84,3.46,2.97,1.12,5.96,2.25,8.95,3.38,3.02,1.04,6.09,1.94,9.15,2.92,3.07.94,6.12,1.97,9.22,2.85,3.13.8,6.26,1.59,9.4,2.39,25.13,6.28,51.44,9.53,77.77,9.63,26.25-.09,52.69-3.35,77.77-9.63,3.14-.8,6.27-1.6,9.4-2.39,3.1-.88,6.15-1.91,9.22-2.85,3.05-.98,6.13-1.89,9.15-2.92,2.99-1.13,5.96-2.25,8.93-3.37,2.95-1.17,5.97-2.13,8.84-3.45,2.88-1.27,5.76-2.54,8.62-3.81,2.86-1.28,5.74-2.49,8.52-3.86,2.85-1.46,5.41-3.04,8.12-4.55,21.4-12.08,41.88-24.17,61.32-35.57,19.43-11.42,37.79-22.22,54.74-32.19,33.9-19.93,61.96-36.86,81.67-48.59,19.69-11.76,30.94-18.49,30.94-18.49,0,0-45.36,26.3-113.4,65.74Z"/><path class="cls-91" d="m1010.36,300.66c-19.62-11.68-47.65-28.36-81.28-48.38-16.86-9.94-35.12-20.71-54.44-32.1-19.39-11.29-39.84-23.2-60.99-35.52-5.29-3.08-10.62-6.19-15.99-9.31-2.69-1.56-5.38-3.13-8.09-4.71-2.81-1.49-5.74-2.71-8.6-3.98-2.88-1.27-5.77-2.55-8.66-3.83-2.98-1.13-5.96-2.26-8.96-3.4-5.95-2.42-12.15-4.11-18.29-6.1-24.79-7.25-50.97-10.79-77.25-11.02-26.08.22-52.46,3.77-77.18,11.02-6.13,1.99-12.34,3.69-18.27,6.1-2.99,1.13-5.97,2.26-8.94,3.39-2.91,1.28-5.81,2.57-8.7,3.84-2.91,1.3-5.74,2.47-8.62,4-2.7,1.57-5.4,3.14-8.08,4.71-5.37,3.13-10.7,6.23-15.98,9.31-21.14,12.31-41.58,24.22-60.95,35.51-19.32,11.39-37.59,22.17-54.45,32.11-33.64,20.02-61.67,36.71-81.3,48.39-19.61,11.7-30.81,18.39-30.81,18.39,0,0,11.29-6.53,31.06-17.97,19.75-11.46,47.96-27.82,81.81-47.46,16.9-9.86,35.21-20.54,54.58-31.84,19.43-11.2,39.92-23,61.11-35.22,5.3-3.05,10.64-6.13,16.02-9.23,2.69-1.55,5.39-3.11,8.1-4.67,2.66-1.4,5.63-2.63,8.47-3.88,2.87-1.25,5.75-2.51,8.64-3.77,2.95-1.1,5.91-2.21,8.88-3.32,5.89-2.36,12.05-4.01,18.13-5.96,3.05-.97,6.19-1.6,9.29-2.42,3.13-.72,6.2-1.68,9.38-2.2,6.33-1.18,12.64-2.56,19.07-3.26,12.8-1.96,25.73-2.43,38.81-2.69,25.88.11,51.92,3.5,76.48,10.57,6.08,1.95,12.26,3.6,18.12,5.95,2.96,1.11,5.92,2.21,8.86,3.31,2.9,1.27,5.79,2.53,8.68,3.79,2.9,1.27,5.78,2.46,8.49,3.89,2.71,1.56,5.41,3.12,8.09,4.67,5.38,3.1,10.72,6.18,16.01,9.23,21.18,12.21,41.66,24.01,61.08,35.2,19.37,11.3,37.68,21.99,54.58,31.85,33.86,19.64,62.07,36.01,81.82,47.47,19.76,11.44,31.06,17.97,31.06,17.97,0,0-11.2-6.69-30.81-18.39Z"/><path class="cls-97" d="m1082.24,443.84c-1.35,1.16-3.14,3.12-5.86,5.24-5.22,4.5-13.51,10.31-24.64,16.74-22.24,12.92-54,31.39-92.12,53.54-19.03,11.13-39.64,23.19-61.44,35.95-21.87,12.65-44.93,25.98-68.78,39.78-11.93,6.89-24.07,13.89-36.35,20.98l-4.61,2.66c-1.45.76-3.16,1.56-4.76,2.25-3.25,1.42-6.52,2.85-9.79,4.27-3.23,1.52-6.65,2.61-10,3.9-3.37,1.22-6.69,2.6-10.16,3.58-3.44,1.07-6.88,2.13-10.34,3.2-3.48.96-7.01,1.78-10.52,2.67-1.76.43-3.51.91-5.28,1.29l-5.35,1.02c-3.58.64-7.13,1.47-10.74,1.95-14.41,2.26-28.98,3.17-43.65,3.35-14.62-.17-29.25-1.09-43.65-3.35-3.61-.49-7.16-1.31-10.74-1.95l-5.35-1.02c-1.77-.39-3.52-.86-5.28-1.29-3.51-.9-7.04-1.71-10.52-2.67-3.45-1.07-6.9-2.14-10.34-3.2-3.47-.98-6.78-2.36-10.15-3.57-3.34-1.29-6.73-2.37-9.99-3.9-3.29-1.43-6.56-2.87-9.83-4.29-1.63-.7-3.22-1.45-4.76-2.25l-4.61-2.66c-12.27-7.08-24.4-14.08-36.33-20.97-23.85-13.79-46.9-27.12-68.76-39.76-21.8-12.76-42.42-24.82-61.45-35.96-38.13-22.16-69.9-40.62-92.14-53.55-11.13-6.43-19.42-12.24-24.64-16.74-2.71-2.13-4.51-4.08-5.86-5.24-1.3-1.21-1.98-1.84-1.98-1.84,0,0,.67.63,1.95,1.86,1.33,1.18,3.11,3.16,5.79,5.31,5.17,4.57,13.41,10.49,24.48,17.06,22.11,13.15,53.69,31.93,91.6,54.47,18.98,11.21,39.55,23.36,61.3,36.21,21.83,12.74,44.85,26.18,68.66,40.08,11.91,6.94,24.03,14,36.29,21.14l4.61,2.68c1.6.85,3.24,1.61,4.88,2.33,3.26,1.44,6.53,2.88,9.81,4.33,3.23,1.53,6.7,2.66,10.07,3.98,3.4,1.25,6.77,2.66,10.26,3.66,3.47,1.09,6.94,2.18,10.42,3.27,3.51.99,7.07,1.82,10.61,2.74,1.78.44,3.54.93,5.33,1.33l5.4,1.06c3.61.66,7.19,1.51,10.83,2.02,14.54,2.34,29.3,3.33,44.07,3.56,14.72-.22,29.54-1.22,44.07-3.55,3.64-.51,7.23-1.36,10.83-2.01l5.4-1.06c1.79-.4,3.55-.89,5.33-1.33,3.54-.92,7.1-1.76,10.61-2.74,3.48-1.09,6.95-2.19,10.42-3.28,3.5-1,6.85-2.41,10.24-3.66,3.37-1.32,6.81-2.44,10.07-3.98,3.29-1.45,6.58-2.91,9.86-4.35,1.67-.73,3.19-1.44,4.89-2.33l4.6-2.68c12.25-7.14,24.36-14.19,36.27-21.13,23.8-13.9,46.81-27.33,68.63-40.07,21.76-12.85,42.33-25,61.31-36.22,37.91-22.54,69.5-41.32,91.61-54.47,11.06-6.57,19.31-12.5,24.48-17.06,2.69-2.16,4.46-4.14,5.8-5.32,1.29-1.23,1.95-1.86,1.95-1.86,0,0-.67.63-1.98,1.84Z"/><path class="cls-97" d="m1115.63,315.73s-2.92-2.65-8.39-7.63c-5.76-4.61-14.16-11.55-26.1-18.49-11.84-7.09-26.4-15.41-43-25.11-16.61-9.68-35.36-20.6-55.81-32.52-20.43-11.94-42.57-24.87-65.98-38.55-23.45-13.61-48.18-27.96-73.76-42.81-6.42-3.65-12.89-7.32-19.41-11.02-3.26-1.85-6.53-3.71-9.81-5.57l-4.93-2.8c-1.65-.85-3.43-1.69-5.11-2.41-3.49-1.52-6.99-3.05-10.49-4.58-1.76-.75-3.5-1.58-5.28-2.26l-5.37-2c-3.59-1.33-7.19-2.66-10.79-3.99-3.68-1.14-7.36-2.28-11.06-3.43l-5.55-1.7-5.64-1.41c-3.77-.94-7.54-1.87-11.32-2.81-3.82-.73-7.65-1.47-11.49-2.2l-5.76-1.09-5.81-.78-11.64-1.55-11.73-.93-5.87-.45-5.89-.15-11.78-.29-11.79.3-5.91.15-5.86.45-11.7.93-11.64,1.55-5.81.78-5.76,1.09c-3.83.73-7.66,1.47-11.49,2.2-3.78.94-7.55,1.88-11.32,2.81l-5.64,1.41-5.55,1.7c-3.69,1.15-7.38,2.29-11.06,3.43-3.61,1.33-7.22,2.67-10.81,3.99-7.26,2.49-14.12,5.87-21.1,8.82-1.72.73-3.5,1.6-5.1,2.39l-4.94,2.81c-3.29,1.87-6.57,3.73-9.83,5.58-6.53,3.71-13.01,7.39-19.44,11.05-25.57,14.85-50.3,29.2-73.74,42.8-23.41,13.68-45.55,26.61-65.98,38.55-20.45,11.92-39.19,22.84-55.8,32.52-16.6,9.7-31.17,18.02-43,25.11-11.95,6.96-20.33,13.89-26.1,18.5-5.47,4.97-8.39,7.63-8.39,7.63,0,0,2.89-2.69,8.31-7.72,5.71-4.67,14.06-11.72,25.93-18.81,11.77-7.23,26.23-15.71,42.73-25.59,16.54-9.81,35.19-20.88,55.55-32.96,20.39-12.02,42.48-25.04,65.84-38.81,23.41-13.71,48.1-28.17,73.64-43.12,6.42-3.68,12.89-7.39,19.4-11.12,3.26-1.87,6.53-3.74,9.81-5.62l4.93-2.83c1.79-.89,3.43-1.7,5.21-2.47,7.02-2.99,13.92-6.43,21.23-8.97,3.62-1.35,7.25-2.71,10.88-4.07,3.7-1.16,7.41-2.33,11.13-3.5l5.59-1.73,5.68-1.45c3.79-.96,7.59-1.92,11.4-2.88,3.85-.75,7.71-1.51,11.57-2.27l5.8-1.12,5.86-.81,11.74-1.61,11.85-.99,5.93-.48,5.91-.17,11.87-.33,11.88.34,5.94.17,5.92.48,11.82.98,11.74,1.61,5.86.81,5.8,1.12c3.86.76,7.72,1.51,11.57,2.26,3.81.96,7.61,1.92,11.4,2.88l5.68,1.45,5.59,1.73c3.72,1.17,7.43,2.34,11.13,3.5,3.64,1.36,7.28,2.72,10.9,4.07l5.42,2.05c1.8.69,3.52,1.53,5.28,2.28,3.5,1.55,6.99,3.09,10.48,4.62,1.81.79,3.47,1.58,5.19,2.47l4.94,2.83c3.29,1.88,6.56,3.76,9.83,5.63,6.53,3.74,13.01,7.45,19.44,11.14,25.53,14.95,50.22,29.4,73.62,43.11,23.36,13.77,45.45,26.79,65.84,38.8,20.35,12.08,39.01,23.15,55.55,32.96,16.5,9.88,30.95,18.36,42.73,25.59,11.88,7.09,20.22,14.14,25.93,18.81,5.42,5.04,8.31,7.72,8.31,7.72Z"/><path class="cls-13" d="m682.82,124.44c.2-11.07-8.62-20.2-19.68-20.39-11.07-.19-20.2,8.62-20.39,19.68-.2,11.07,8.62,20.2,19.68,20.39,11.07.2,20.2-8.62,20.39-19.68Z"/><path class="cls-54" d="m690.99,118.16c.21-11.82-9.2-21.57-21.02-21.78-11.82-.21-21.57,9.2-21.78,21.02-.21,11.82,9.2,21.57,21.02,21.78,11.82.21,21.57-9.2,21.78-21.02Z"/><path class="cls-62" d="m647.79,120.38c.19-11.08,9.33-19.9,20.41-19.7,11.08.2,19.9,9.33,19.7,20.41-.2,11.08-9.33,19.9-20.41,19.7-11.07-.2-19.9-9.33-19.7-20.41Z"/><path class="cls-6" d="m221.7,399.41c.2-11.07-8.62-20.2-19.68-20.39-11.07-.19-20.2,8.62-20.39,19.68-.2,11.07,8.62,20.2,19.68,20.39,11.07.2,20.2-8.62,20.39-19.68Z"/><path class="cls-49" d="m229.87,393.12c.21-11.82-9.2-21.57-21.02-21.78-11.82-.21-21.57,9.2-21.78,21.02-.21,11.82,9.2,21.57,21.02,21.78,11.82.21,21.57-9.2,21.78-21.02Z"/><path class="cls-81" d="m186.67,395.34c.19-11.08,9.33-19.9,20.41-19.7,11.08.2,19.9,9.33,19.7,20.41-.2,11.08-9.33,19.9-20.41,19.7-11.07-.2-19.9-9.33-19.7-20.41Z"/><path class="cls-1" d="m324.09,287.48c.2-11.07-8.62-20.2-19.68-20.39-11.07-.19-20.2,8.62-20.39,19.68-.2,11.07,8.62,20.2,19.68,20.39,11.07.2,20.2-8.62,20.39-19.68Z"/><path class="cls-43" d="m332.26,281.2c.21-11.82-9.2-21.57-21.02-21.78-11.82-.21-21.57,9.2-21.78,21.02-.21,11.82,9.2,21.57,21.02,21.78,11.82.21,21.57-9.2,21.78-21.02Z"/><path class="cls-80" d="m289.06,283.41c.19-11.08,9.33-19.9,20.41-19.7,11.07.2,19.9,9.33,19.7,20.41-.2,11.08-9.33,19.9-20.41,19.7-11.07-.2-19.9-9.33-19.7-20.41Z"/><path class="cls-22" d="m461.82,206.59c.2-11.07-8.62-20.2-19.68-20.39-11.07-.19-20.2,8.62-20.39,19.68-.2,11.07,8.62,20.2,19.68,20.39,11.07.2,20.2-8.62,20.39-19.68Z"/><path class="cls-45" d="m469.98,200.31c.21-11.82-9.2-21.57-21.02-21.78-11.82-.21-21.57,9.2-21.78,21.02-.21,11.82,9.2,21.57,21.02,21.78,11.82.21,21.57-9.2,21.78-21.02Z"/><path class="cls-77" d="m426.78,202.52c.19-11.08,9.33-19.9,20.41-19.7,11.07.2,19.9,9.33,19.7,20.41-.2,11.08-9.33,19.9-20.41,19.7-11.07-.2-19.9-9.33-19.7-20.41Z"/><path class="cls-24" d="m603.9,134.88c.2-11.07-8.62-20.2-19.68-20.39-11.07-.19-20.2,8.62-20.39,19.68-.2,11.07,8.62,20.2,19.68,20.39,11.07.2,20.2-8.62,20.39-19.68Z"/><path class="cls-44" d="m612.06,128.6c.21-11.82-9.2-21.57-21.02-21.78-11.82-.21-21.57,9.2-21.78,21.02-.21,11.82,9.2,21.57,21.02,21.78,11.82.21,21.57-9.2,21.78-21.02Z"/><path class="cls-63" d="m568.87,130.81c.19-11.08,9.33-19.9,20.41-19.7,11.07.2,19.9,9.33,19.7,20.41-.2,11.08-9.33,19.9-20.41,19.7-11.07-.2-19.9-9.33-19.7-20.41Z"/><path class="cls-11" d="m1143.94,399.41c.2-11.07-8.62-20.2-19.68-20.39-11.07-.19-20.2,8.62-20.39,19.68-.2,11.07,8.62,20.2,19.68,20.39,11.07.2,20.2-8.62,20.39-19.68Z"/><path class="cls-40" d="m1152.11,393.12c.21-11.82-9.2-21.57-21.02-21.78-11.82-.21-21.57,9.2-21.78,21.02-.21,11.82,9.2,21.57,21.02,21.78,11.82.21,21.57-9.2,21.78-21.02Z"/><path class="cls-89" d="m1108.91,395.34c.19-11.08,9.33-19.9,20.41-19.7,11.07.2,19.9,9.33,19.7,20.41-.2,11.08-9.33,19.9-20.41,19.7-11.07-.2-19.9-9.33-19.7-20.41Z"/><path class="cls-21" d="m834.83,166.39c.2-11.07-8.62-20.2-19.68-20.39-11.07-.19-20.2,8.62-20.39,19.68-.2,11.07,8.62,20.2,19.68,20.39,11.07.2,20.2-8.62,20.39-19.68Z"/><path class="cls-46" d="m843,160.11c.21-11.82-9.2-21.57-21.02-21.78-11.82-.21-21.57,9.2-21.78,21.02-.21,11.82,9.2,21.57,21.02,21.78,11.82.21,21.57-9.2,21.78-21.02Z"/><path class="cls-76" d="m799.8,162.33c.19-11.08,9.33-19.9,20.41-19.7,11.08.2,19.9,9.33,19.7,20.41-.2,11.08-9.33,19.9-20.41,19.7-11.07-.2-19.9-9.33-19.7-20.41Z"/><path class="cls-29" d="m1041.57,287.49c.2-11.07-8.62-20.2-19.68-20.39-11.07-.19-20.2,8.62-20.39,19.68-.2,11.07,8.62,20.2,19.68,20.39,11.07.2,20.2-8.62,20.39-19.68Z"/><path class="cls-39" d="m1049.73,281.21c.21-11.82-9.2-21.57-21.02-21.78-11.82-.21-21.57,9.2-21.78,21.02-.21,11.82,9.2,21.57,21.02,21.78,11.82.21,21.57-9.2,21.78-21.02Z"/><path class="cls-68" d="m1006.54,283.43c.19-11.08,9.33-19.9,20.41-19.7,11.08.2,19.9,9.33,19.7,20.41-.2,11.08-9.33,19.9-20.41,19.7-11.07-.2-19.9-9.33-19.7-20.41Z"/><path class="cls-7" d="m682.82,674.37c.2-11.07-8.62-20.2-19.68-20.39-11.07-.19-20.2,8.62-20.39,19.68-.2,11.07,8.62,20.2,19.68,20.39,11.07.2,20.2-8.62,20.39-19.68Z"/><path class="cls-36" d="m690.99,668.09c.21-11.82-9.2-21.57-21.02-21.78-11.82-.21-21.57,9.2-21.78,21.02-.21,11.82,9.2,21.57,21.02,21.78,11.82.21,21.57-9.2,21.78-21.02Z"/><path class="cls-82" d="m647.79,670.31c.19-11.08,9.33-19.9,20.41-19.7,11.08.2,19.9,9.33,19.7,20.41-.2,11.08-9.33,19.9-20.41,19.7-11.07-.2-19.9-9.33-19.7-20.41Z"/><path class="cls-31" d="m1098.37,476.72c.2-11.07-8.62-20.2-19.68-20.39-11.07-.19-20.2,8.62-20.39,19.68-.2,11.07,8.62,20.2,19.68,20.39,11.07.2,20.2-8.62,20.39-19.68Z"/><path class="cls-61" d="m1106.53,470.43c.21-11.82-9.2-21.57-21.02-21.78-11.82-.21-21.57,9.2-21.78,21.02-.21,11.82,9.2,21.57,21.02,21.78,11.82.21,21.57-9.2,21.78-21.02Z"/><path class="cls-66" d="m1063.34,472.65c.19-11.08,9.33-19.9,20.41-19.7,11.07.2,19.9,9.33,19.7,20.41-.2,11.08-9.33,19.9-20.41,19.7-11.07-.2-19.9-9.33-19.7-20.41Z"/><path class="cls-16" d="m938.28,572.04c.2-11.07-8.62-20.2-19.68-20.39-11.07-.19-20.2,8.62-20.39,19.68-.2,11.07,8.62,20.2,19.68,20.39,11.07.2,20.2-8.62,20.39-19.68Z"/><path class="cls-35" d="m946.45,565.75c.21-11.82-9.2-21.57-21.02-21.78-11.82-.21-21.57,9.2-21.78,21.02-.21,11.82,9.2,21.57,21.02,21.78,11.82.21,21.57-9.2,21.78-21.02Z"/><path class="cls-79" d="m903.25,567.97c.19-11.08,9.33-19.9,20.41-19.7,11.08.2,19.9,9.33,19.7,20.41-.2,11.08-9.33,19.9-20.41,19.7-11.07-.2-19.9-9.33-19.7-20.41Z"/><path class="cls-2" d="m774.51,660.15c.2-11.07-8.62-20.2-19.68-20.39-11.07-.19-20.2,8.62-20.39,19.68-.2,11.07,8.62,20.2,19.68,20.39,11.07.2,20.2-8.62,20.39-19.68Z"/><path class="cls-38" d="m782.67,653.86c.21-11.82-9.2-21.57-21.02-21.78-11.82-.21-21.57,9.2-21.78,21.02-.21,11.82,9.2,21.57,21.02,21.78,11.82.21,21.57-9.2,21.78-21.02Z"/><path class="cls-85" d="m739.48,656.08c.19-11.08,9.33-19.9,20.41-19.7,11.08.2,19.9,9.33,19.7,20.41-.2,11.08-9.33,19.9-20.41,19.7-11.07-.2-19.9-9.33-19.7-20.41Z"/><path class="cls-4" d="m530.81,632.42c.2-11.07-8.62-20.2-19.68-20.39-11.07-.19-20.2,8.62-20.39,19.68-.2,11.07,8.62,20.2,19.68,20.39,11.07.2,20.2-8.62,20.39-19.68Z"/><path class="cls-56" d="m538.97,626.14c.21-11.82-9.2-21.57-21.02-21.78-11.82-.21-21.57,9.2-21.78,21.02-.21,11.82,9.2,21.57,21.02,21.78,11.82.21,21.57-9.2,21.78-21.02Z"/><path class="cls-69" d="m495.78,628.36c.19-11.08,9.33-19.9,20.41-19.7,11.08.2,19.9,9.33,19.7,20.41-.2,11.08-9.33,19.9-20.41,19.7-11.07-.2-19.9-9.33-19.7-20.41Z"/><path class="cls-23" d="m392.91,551.81c.2-11.07-8.62-20.2-19.68-20.39-11.07-.19-20.2,8.62-20.39,19.68-.2,11.07,8.62,20.2,19.68,20.39,11.07.2,20.2-8.62,20.39-19.68Z"/><path class="cls-50" d="m401.08,545.53c.21-11.82-9.2-21.57-21.02-21.78-11.82-.21-21.57,9.2-21.78,21.02-.21,11.82,9.2,21.57,21.02,21.78,11.82.21,21.57-9.2,21.78-21.02Z"/><path class="cls-72" d="m357.88,547.75c.19-11.08,9.33-19.9,20.41-19.7,11.07.2,19.9,9.33,19.7,20.41-.2,11.08-9.33,19.9-20.41,19.7-11.07-.2-19.9-9.33-19.7-20.41Z"/><path class="cls-20" d="m256.91,468.36c.2-11.07-8.62-20.2-19.68-20.39-11.07-.19-20.2,8.62-20.39,19.68-.2,11.07,8.62,20.2,19.68,20.39,11.07.2,20.2-8.62,20.39-19.68Z"/><path class="cls-60" d="m265.07,462.08c.21-11.82-9.2-21.57-21.02-21.78-11.82-.21-21.57,9.2-21.78,21.02-.21,11.82,9.2,21.57,21.02,21.78,11.82.21,21.57-9.2,21.78-21.02Z"/><path class="cls-71" d="m221.87,464.29c.19-11.08,9.33-19.9,20.41-19.7,11.08.2,19.9,9.33,19.7,20.41-.2,11.08-9.33,19.9-20.41,19.7-11.07-.2-19.9-9.33-19.7-20.41Z"/><path class="cls-3" d="m256.93,330.46c.2-11.07-8.62-20.2-19.68-20.39-11.07-.19-20.2,8.62-20.39,19.68-.2,11.07,8.62,20.2,19.68,20.39,11.07.2,20.2-8.62,20.39-19.68Z"/><path class="cls-48" d="m265.09,324.17c.21-11.82-9.2-21.57-21.02-21.78-11.82-.21-21.57,9.2-21.78,21.02-.21,11.82,9.2,21.57,21.02,21.78,11.82.21,21.57-9.2,21.78-21.02Z"/><path class="cls-88" d="m221.9,326.39c.19-11.08,9.33-19.9,20.41-19.7,11.08.2,19.9,9.33,19.7,20.41-.2,11.08-9.33,19.9-20.41,19.7-11.07-.2-19.9-9.33-19.7-20.41Z"/><path class="cls-15" d="m392.93,247c.2-11.07-8.62-20.2-19.68-20.39-11.07-.19-20.2,8.62-20.39,19.68-.2,11.07,8.62,20.2,19.68,20.39,11.07.2,20.2-8.62,20.39-19.68Z"/><path class="cls-41" d="m401.09,240.71c.21-11.82-9.2-21.57-21.02-21.78-11.82-.21-21.57,9.2-21.78,21.02-.21,11.82,9.2,21.57,21.02,21.78,11.82.21,21.57-9.2,21.78-21.02Z"/><path class="cls-67" d="m357.9,242.93c.19-11.08,9.33-19.9,20.41-19.7,11.08.2,19.9,9.33,19.7,20.41-.2,11.08-9.33,19.9-20.41,19.7-11.07-.2-19.9-9.33-19.7-20.41Z"/><path class="cls-17" d="m530.82,166.39c.2-11.07-8.62-20.2-19.68-20.39-11.07-.19-20.2,8.62-20.39,19.68-.2,11.07,8.62,20.2,19.68,20.39,11.07.2,20.2-8.62,20.39-19.68Z"/><path class="cls-34" d="m538.98,160.1c.21-11.82-9.2-21.57-21.02-21.78-11.82-.21-21.57,9.2-21.78,21.02-.21,11.82,9.2,21.57,21.02,21.78,11.82.21,21.57-9.2,21.78-21.02Z"/><path class="cls-86" d="m495.79,162.32c.19-11.08,9.33-19.9,20.41-19.7,11.08.2,19.9,9.33,19.7,20.41-.2,11.08-9.33,19.9-20.41,19.7-11.07-.2-19.9-9.33-19.7-20.41Z"/><path class="cls-27" d="m761.76,134.88c.2-11.07-8.62-20.2-19.68-20.39-11.07-.19-20.2,8.62-20.39,19.68-.2,11.07,8.62,20.2,19.68,20.39,11.07.2,20.2-8.62,20.39-19.68Z"/><path class="cls-47" d="m769.93,128.59c.21-11.82-9.2-21.57-21.02-21.78-11.82-.21-21.57,9.2-21.78,21.02-.21,11.82,9.2,21.57,21.02,21.78,11.82.21,21.57-9.2,21.78-21.02Z"/><path class="cls-73" d="m726.73,130.81c.19-11.08,9.33-19.9,20.41-19.7,11.08.2,19.9,9.33,19.7,20.41-.2,11.08-9.33,19.9-20.41,19.7-11.07-.2-19.9-9.33-19.7-20.41Z"/><path class="cls-10" d="m903.84,206.6c.2-11.07-8.62-20.2-19.68-20.39-11.07-.19-20.2,8.62-20.39,19.68-.2,11.07,8.62,20.2,19.68,20.39,11.07.2,20.2-8.62,20.39-19.68Z"/><path class="cls-52" d="m912,200.31c.21-11.82-9.2-21.57-21.02-21.78-11.82-.21-21.57,9.2-21.78,21.02-.21,11.82,9.2,21.57,21.02,21.78,11.82.21,21.57-9.2,21.78-21.02Z"/><path class="cls-65" d="m868.81,202.53c.19-11.08,9.33-19.9,20.41-19.7,11.07.2,19.9,9.33,19.7,20.41-.2,11.08-9.33,19.9-20.41,19.7-11.07-.2-19.9-9.33-19.7-20.41Z"/><path class="cls-5" d="m972.73,247c.2-11.07-8.62-20.2-19.68-20.39-11.07-.19-20.2,8.62-20.39,19.68-.2,11.07,8.62,20.2,19.68,20.39,11.07.2,20.2-8.62,20.39-19.68Z"/><path class="cls-51" d="m980.89,240.72c.21-11.82-9.2-21.57-21.02-21.78-11.82-.21-21.57,9.2-21.78,21.02-.21,11.82,9.2,21.57,21.02,21.78,11.82.21,21.57-9.2,21.78-21.02Z"/><path class="cls-84" d="m937.7,242.94c.19-11.08,9.33-19.9,20.41-19.7,11.08.2,19.9,9.33,19.7,20.41-.2,11.08-9.33,19.9-20.41,19.7-11.07-.2-19.9-9.33-19.7-20.41Z"/><path class="cls-25" d="m1108.74,330.45c.2-11.07-8.62-20.2-19.68-20.39-11.07-.19-20.2,8.62-20.39,19.68-.2,11.07,8.62,20.2,19.68,20.39,11.07.2,20.2-8.62,20.39-19.68Z"/><path class="cls-42" d="m1116.9,324.17c.21-11.82-9.2-21.57-21.02-21.78-11.82-.21-21.57,9.2-21.78,21.02-.21,11.82,9.2,21.57,21.02,21.78,11.82.21,21.57-9.2,21.78-21.02Z"/><path class="cls-70" d="m1073.71,326.39c.19-11.08,9.33-19.9,20.41-19.7,11.07.2,19.9,9.33,19.7,20.41-.2,11.08-9.33,19.9-20.41,19.7-11.07-.2-19.9-9.33-19.7-20.41Z"/><path class="cls-12" d="m1018.61,524.84c.2-11.07-8.62-20.2-19.68-20.39-11.07-.19-20.2,8.62-20.39,19.68-.2,11.07,8.62,20.2,19.68,20.39,11.07.2,20.2-8.62,20.39-19.68Z"/><path class="cls-55" d="m1026.78,518.55c.21-11.82-9.2-21.57-21.02-21.78-11.82-.21-21.57,9.2-21.78,21.02-.21,11.82,9.2,21.57,21.02,21.78,11.82.21,21.57-9.2,21.78-21.02Z"/><path class="cls-75" d="m983.58,520.77c.19-11.08,9.33-19.9,20.41-19.7,11.07.2,19.9,9.33,19.7,20.41-.2,11.08-9.33,19.9-20.41,19.7-11.07-.2-19.9-9.33-19.7-20.41Z"/><path class="cls-30" d="m857.85,619.08c.2-11.07-8.62-20.2-19.68-20.39-11.07-.19-20.2,8.62-20.39,19.68-.2,11.07,8.62,20.2,19.68,20.39,11.07.2,20.2-8.62,20.39-19.68Z"/><path class="cls-57" d="m866.02,612.79c.21-11.82-9.2-21.57-21.02-21.78-11.82-.21-21.57,9.2-21.78,21.02-.21,11.82,9.2,21.57,21.02,21.78,11.82.21,21.57-9.2,21.78-21.02Z"/><path class="cls-90" d="m822.82,615.01c.19-11.08,9.33-19.9,20.41-19.7,11.08.2,19.9,9.33,19.7,20.41-.2,11.08-9.33,19.9-20.41,19.7-11.07-.2-19.9-9.33-19.7-20.41Z"/><path class="cls-18" d="m221.7,399.41c.2-11.07-8.62-20.2-19.68-20.39-11.07-.19-20.2,8.62-20.39,19.68-.2,11.07,8.62,20.2,19.68,20.39,11.07.2,20.2-8.62,20.39-19.68Z"/><path class="cls-58" d="m229.87,393.12c.21-11.82-9.2-21.57-21.02-21.78-11.82-.21-21.57,9.2-21.78,21.02-.21,11.82,9.2,21.57,21.02,21.78,11.82.21,21.57-9.2,21.78-21.02Z"/><path class="cls-78" d="m186.67,395.34c.19-11.08,9.33-19.9,20.41-19.7,11.08.2,19.9,9.33,19.7,20.41-.2,11.08-9.33,19.9-20.41,19.7-11.07-.2-19.9-9.33-19.7-20.41Z"/><path class="cls-26" d="m682.82,674.37c.2-11.07-8.62-20.2-19.68-20.39-11.07-.19-20.2,8.62-20.39,19.68-.2,11.07,8.62,20.2,19.68,20.39,11.07.2,20.2-8.62,20.39-19.68Z"/><path class="cls-37" d="m690.99,668.09c.21-11.82-9.2-21.57-21.02-21.78-11.82-.21-21.57,9.2-21.78,21.02-.21,11.82,9.2,21.57,21.02,21.78,11.82.21,21.57-9.2,21.78-21.02Z"/><path class="cls-64" d="m647.79,670.31c.19-11.08,9.33-19.9,20.41-19.7,11.08.2,19.9,9.33,19.7,20.41-.2,11.08-9.33,19.9-20.41,19.7-11.07-.2-19.9-9.33-19.7-20.41Z"/><path class="cls-14" d="m603.88,663.94c.2-11.07-8.62-20.2-19.68-20.39-11.07-.19-20.2,8.62-20.39,19.68-.2,11.07,8.62,20.2,19.68,20.39,11.07.2,20.2-8.62,20.39-19.68Z"/><path class="cls-53" d="m612.05,657.65c.21-11.82-9.2-21.57-21.02-21.78-11.82-.21-21.57,9.2-21.78,21.02-.21,11.82,9.2,21.57,21.02,21.78,11.82.21,21.57-9.2,21.78-21.02Z"/><path class="cls-87" d="m568.85,659.87c.19-11.08,9.33-19.9,20.41-19.7,11.08.2,19.9,9.33,19.7,20.41-.2,11.08-9.33,19.9-20.41,19.7-11.07-.2-19.9-9.33-19.7-20.41Z"/><path class="cls-19" d="m461.8,592.22c.2-11.07-8.62-20.2-19.68-20.39-11.07-.19-20.2,8.62-20.39,19.68-.2,11.07,8.62,20.2,19.68,20.39,11.07.2,20.2-8.62,20.39-19.68Z"/><path class="cls-33" d="m469.97,585.94c.21-11.82-9.2-21.57-21.02-21.78-11.82-.21-21.57,9.2-21.78,21.02-.21,11.82,9.2,21.57,21.02,21.78,11.82.21,21.57-9.2,21.78-21.02Z"/><path class="cls-74" d="m426.77,588.15c.19-11.08,9.33-19.9,20.41-19.7,11.07.2,19.9,9.33,19.7,20.41-.2,11.08-9.33,19.9-20.41,19.7-11.07-.2-19.9-9.33-19.7-20.41Z"/><path class="cls-32" d="m324.07,511.32c.2-11.07-8.62-20.2-19.68-20.39-11.07-.19-20.2,8.62-20.39,19.68-.2,11.07,8.62,20.2,19.68,20.39,11.07.2,20.2-8.62,20.39-19.68Z"/><path class="cls-59" d="m332.24,505.04c.21-11.82-9.2-21.57-21.02-21.78-11.82-.21-21.57,9.2-21.78,21.02-.21,11.82,9.2,21.57,21.02,21.78,11.82.21,21.57-9.2,21.78-21.02Z"/><path class="cls-83" d="m289.04,507.26c.19-11.08,9.33-19.9,20.41-19.7,11.08.2,19.9,9.33,19.7,20.41-.2,11.08-9.33,19.9-20.41,19.7-11.07-.2-19.9-9.33-19.7-20.41Z"/></g></g></g></svg>