<?xml version="1.0" encoding="UTF-8"?><svg id="Layer_2" xmlns="http://www.w3.org/2000/svg" xmlns:xlink="http://www.w3.org/1999/xlink" viewBox="0 0 970.18 204.47"><defs><style>.cls-1{fill:url(#linear-gradient-2);}.cls-2{fill:#ffe1b5;}.cls-3{fill:url(#linear-gradient-14);}.cls-4{fill:url(#linear-gradient-6);}.cls-5{fill:url(#linear-gradient-11);}.cls-6{fill:url(#linear-gradient-10);}.cls-7{fill:#4d3b21;}.cls-8{fill:url(#linear-gradient-5);}.cls-9{fill:url(#linear-gradient-7);}.cls-10{fill:#302515;}.cls-11{fill:url(#linear-gradient-9);}.cls-12{fill:url(#linear-gradient-3);}.cls-13{fill:url(#linear-gradient);}.cls-14{fill:url(#linear-gradient-4);}.cls-15{fill:url(#linear-gradient-8);}.cls-16{fill:url(#linear-gradient-12);}.cls-17{fill:url(#linear-gradient-13);}</style><linearGradient id="linear-gradient" x1="343.53" y1="204.47" x2="343.53" y2="0" gradientUnits="userSpaceOnUse"><stop offset="0" stop-color="#ffc672"/><stop offset=".34" stop-color="#ad6b11"/><stop offset=".4" stop-color="#9e5b00"/><stop offset=".4" stop-color="#ae6d15"/><stop offset=".4" stop-color="#c2852f"/><stop offset=".41" stop-color="#d39845"/><stop offset=".41" stop-color="#e0a756"/><stop offset=".42" stop-color="#e9b262"/><stop offset=".43" stop-color="#eeb869"/><stop offset=".45" stop-color="#f0ba6b"/><stop offset=".6" stop-color="#f0bb6d"/><stop offset=".71" stop-color="#f2c077"/><stop offset=".81" stop-color="#f4c887"/><stop offset=".9" stop-color="#f8d39d"/><stop offset=".98" stop-color="#fde2ba"/><stop offset="1" stop-color="#ffe6c2"/></linearGradient><linearGradient id="linear-gradient-2" x1="201.96" x2="201.96" xlink:href="#linear-gradient"/><linearGradient id="linear-gradient-3" x1="485.09" x2="485.09" xlink:href="#linear-gradient"/><linearGradient id="linear-gradient-4" x1="768.22" x2="768.22" xlink:href="#linear-gradient"/><linearGradient id="linear-gradient-5" x1="60.39" x2="60.39" xlink:href="#linear-gradient"/><linearGradient id="linear-gradient-6" x1="626.66" x2="626.66" xlink:href="#linear-gradient"/><linearGradient id="linear-gradient-7" x1="909.79" x2="909.79" xlink:href="#linear-gradient"/><linearGradient id="linear-gradient-8" x1="343.53" y1="204.47" x2="343.53" y2="0" gradientUnits="userSpaceOnUse"><stop offset="0" stop-color="#ffc772"/><stop offset=".35" stop-color="#9e691b"/><stop offset=".46" stop-color="#804b00"/><stop offset=".47" stop-color="#9a6518"/><stop offset=".47" stop-color="#b47f32"/><stop offset=".48" stop-color="#ca9547"/><stop offset=".48" stop-color="#dba657"/><stop offset=".49" stop-color="#e7b262"/><stop offset=".5" stop-color="#eeb969"/><stop offset=".53" stop-color="#f0bb6b"/><stop offset=".89" stop-color="#fbe4c2"/><stop offset="1" stop-color="#fff1de"/></linearGradient><linearGradient id="linear-gradient-9" x1="201.96" x2="201.96" xlink:href="#linear-gradient-8"/><linearGradient id="linear-gradient-10" x1="485.09" x2="485.09" xlink:href="#linear-gradient-8"/><linearGradient id="linear-gradient-11" x1="768.22" x2="768.22" xlink:href="#linear-gradient-8"/><linearGradient id="linear-gradient-12" x1="60.39" x2="60.39" xlink:href="#linear-gradient-8"/><linearGradient id="linear-gradient-13" x1="626.66" x2="626.66" xlink:href="#linear-gradient-8"/><linearGradient id="linear-gradient-14" x1="909.79" x2="909.79" xlink:href="#linear-gradient-8"/></defs><g id="jackpot"><path class="cls-10" d="m952.7,0h-106.28c-9.64,0-17.48,7.32-17.48,16.31v19.07c-.05-.08-.08-.17-.13-.25l-.79-1.31-.1-.15-28.27-26.82c-.9-.82-1.94-1.61-3.09-2.34l-.36-.22c-.23-.14-.46-.28-.76-.45-.32-.18-.64-.36-.9-.49-.3-.16-.61-.31-.94-.46l-.18-.09c-3.87-1.81-8.06-2.8-11.81-2.8h-40.42c-3.73,0-7.93,1-11.83,2.81l-.33.16c-.24.11-.47.23-.65.32-.39.2-.79.42-1.1.6-.33.19-.65.38-1.02.61l-.07.05c-1.14.73-2.15,1.51-3.03,2.31l-24.68,22.57c-.21.19-.41.39-.64.61l-.43.43c-.16.17-.32.34-.5.56-.16.19-.31.36-.51.6l-.1.13c-.18.22-.35.43-.47.6-.27.36-.63.85-1.01,1.44l-.59.95c-.74,1.26-1.37,2.59-1.88,3.93-1.34-3.5-3.47-6.8-6.11-9.21l-24.74-22.62c-1.1-1-2.37-1.93-3.78-2.77-4.31-2.55-9.63-4.08-14.24-4.08h-73.35c-7.09,0-13.2,3.96-15.94,9.63-2.74-5.67-8.85-9.63-15.94-9.63h-28.98c-9.64,0-17.48,7.32-17.48,16.31v45.42c-.1.39-.44,1.13-.67,1.45l-12.67,11.59V16.31c0-8.99-7.84-16.31-17.48-16.31h-28.98c-9.64,0-17.48,7.32-17.48,16.31v19.03c-1.23-2.22-2.78-4.25-4.56-5.87l-24.73-22.61c-4.49-4.1-11.73-6.85-18.04-6.85h-40.43c-6.3,0-13.55,2.76-18.04,6.86l-24.73,22.61c-2.63,2.41-4.76,5.69-6.1,9.17-1.34-3.49-3.47-6.77-6.11-9.18l-24.73-22.62c-4.49-4.1-11.74-6.85-18.03-6.85h-40.42c-6.3,0-13.55,2.75-18.04,6.85l-24.73,22.61c-1.78,1.63-3.33,3.65-4.56,5.87v-19.03c0-8.99-7.84-16.31-17.48-16.31h-28.99c-7.38,0-14.01,4.37-16.49,10.88-.66,1.75-1,3.58-1,5.43v126.2c-.1.38-.43,1.11-.65,1.42l-.75.69c-.42.26-1.47.65-1.95.73h-6.62c-.48-.08-1.54-.47-1.96-.73l-.73-.66c-.23-.32-.57-1.07-.67-1.46v-7.93c0-8.99-7.84-16.31-17.48-16.31h-28.99c-9.64,0-17.48,7.32-17.48,16.31v23.5c0,5.96,3.07,12.77,7.64,16.95l24.73,22.61c4.49,4.1,11.73,6.85,18.03,6.85h40.42c6.3,0,13.55-2.76,18.04-6.86l24.72-22.61c1.78-1.63,3.33-3.66,4.57-5.88v19.03c0,2.65.7,5.29,2.03,7.63,3.04,5.36,8.95,8.68,15.45,8.68h28.99c9.64,0,17.48-7.32,17.48-16.31v-51.59h13.34v51.59c0,3.89,1.49,7.65,4.18,10.57,3.33,3.65,8.18,5.74,13.31,5.74h28.99c9.64,0,17.48-7.32,17.48-16.31v-19.03c1.23,2.22,2.78,4.24,4.56,5.87l24.73,22.61c4.49,4.1,11.73,6.85,18.03,6.85h40.43c6.3,0,13.55-2.75,18.04-6.86l24.73-22.61c1.78-1.63,3.33-3.66,4.56-5.87v19.02c0,8.99,7.84,16.31,17.48,16.31h28.98c9.64,0,17.48-7.32,17.48-16.31v-50.57l12.67,11.59c.23.32.57,1.06.67,1.45v37.53c0,8.99,7.84,16.31,17.48,16.31h28.98c7.09,0,13.2-3.96,15.94-9.63,2.74,5.67,8.85,9.63,15.94,9.63h28.98c2.41,0,4.76-.45,6.95-1.35,6.4-2.59,10.53-8.46,10.53-14.96v-51.59h27.01c6.3,0,13.55-2.76,18.04-6.86l24.59-22.49c1.78-1.63,3.33-3.66,4.56-5.87v56.72c0,5.87,3.15,12.84,7.65,16.95l24.72,22.6c4.41,4.04,11.83,6.86,18.05,6.86h40.42c6.3,0,13.55-2.75,18.04-6.85l24.72-22.61c4.5-4.12,7.65-11.09,7.65-16.95V52.05c3.16,4.27,8.43,7.07,14.4,7.07h21.17v129.04c0,8.99,7.84,16.31,17.48,16.31h28.98c8.08,0,15.06-5.11,16.98-12.42.34-1.27.51-2.58.51-3.9V59.12h21.17c9.64,0,17.48-7.32,17.48-16.31v-26.5c0-8.99-7.84-16.31-17.48-16.31ZM215.45,77.44h-13.34v-15.49c.1-.38.43-1.11.65-1.42l.75-.68c.42-.26,1.48-.66,1.96-.73h6.62c.48.07,1.54.47,1.95.73l.75.68c.22.31.56,1.04.65,1.42v15.49Zm199.03,47.89c-3.16-4.27-8.43-7.07-14.4-7.07h-28.98c-9.64,0-17.48,7.32-17.48,16.31v7.93c-.1.39-.44,1.13-.67,1.45l-.73.67c-.42.26-1.48.65-1.96.73h-6.62c-.48-.07-1.54-.47-1.95-.73l-.73-.67c-.23-.32-.57-1.06-.67-1.45V61.97c.1-.39.44-1.13.67-1.45l.74-.67c.42-.26,1.48-.65,1.95-.73h6.63c.48.07,1.54.47,1.96.73l.85.78c.16.15.43.56.59.88.58,7.85,8.23,14.11,17.45,14.11h28.98c5.97,0,11.24-2.8,14.4-7.07v56.79Zm138.16-1.33c-1.23-2.22-2.78-4.25-4.56-5.87l-13.06-11.94,13.06-11.94c1.78-1.63,3.33-3.66,4.56-5.87v35.63Zm77.29-49.28c-.1.39-.44,1.13-.67,1.45l-.6.55c-.42.26-1.48.66-1.96.73h-10.11v-18.33h9.98c.48.08,1.54.47,1.96.73l.75.68c.22.31.56,1.04.65,1.42v12.76Zm138.16,67.8c-.1.38-.44,1.12-.66,1.44l-.74.67c-.42.26-1.48.66-1.96.73h-6.63c-.48-.07-1.54-.47-1.96-.73l-.73-.67c-.23-.33-.57-1.06-.67-1.45V61.96c.1-.38.43-1.11.65-1.42l.75-.68c.42-.26,1.48-.66,1.95-.73h6.62c.48.08,1.54.47,1.95.73l.73.67c.23.32.57,1.06.68,1.46v80.53Z"/><path class="cls-7" d="m381.21,5.94c-3.7-3.5-9.92-5.94-15.14-5.94h-40.8c-5.22,0-11.44,2.44-15.14,5.94l-24.95,23.59c-3.72,3.52-6.32,9.46-6.32,14.45v116.51c0,4.99,2.6,10.93,6.32,14.45l24.96,23.6c3.7,3.5,9.92,5.94,15.14,5.94h40.8c5.22,0,11.44-2.44,15.14-5.94l24.95-23.59c3.72-3.52,6.32-9.46,6.32-14.45v-24.52c0-6.93-5.92-12.57-13.19-12.57h-29.25c-7.27,0-13.19,5.64-13.19,12.57v8.48c0,1.14-1.09,3.62-1.95,4.43l-.96.91c-.89.85-3.56,1.89-4.83,1.89h-6.89c-1.27,0-3.94-1.04-4.83-1.88l-.96-.91c-.86-.81-1.95-3.3-1.95-4.44V60.01c0-1.14,1.09-3.62,1.95-4.43l.96-.91c.89-.85,3.56-1.88,4.83-1.88h6.89c1.27,0,3.94,1.04,4.83,1.89l.96.9c1,.94,1.82,2.64,1.95,3.28.08,6.16,5.97,11.15,13.19,11.15h29.25c7.27,0,13.19-5.64,13.19-12.57v-13.46c0-4.99-2.6-10.93-6.32-14.45l-24.95-23.59Z"/><path class="cls-7" d="m241.78,5.93c-3.7-3.49-9.93-5.93-15.14-5.93h-40.79c-5.22,0-11.44,2.44-15.14,5.94l-24.95,23.6c-3.72,3.52-6.32,9.46-6.32,14.45v147.92c0,2.02.52,4.04,1.5,5.82,2.28,4.16,6.76,6.75,11.68,6.75h29.25c7.27,0,13.19-5.64,13.19-12.57v-58.3h22.37v58.3c0,2.97,1.11,5.85,3.1,8.09,2.51,2.85,6.19,4.48,10.09,4.48h29.25c7.27,0,13.19-5.64,13.19-12.57V43.97c0-4.99-2.6-10.93-6.33-14.45l-24.95-23.6Zm-24.35,54.08v20.8h-22.37v-20.8c0-1.17,1.07-3.61,1.95-4.43l.96-.91c.9-.85,3.56-1.89,4.83-1.89h6.89c1.27,0,3.94,1.04,4.83,1.89l.96.9c.87.82,1.95,3.27,1.95,4.44Z"/><path class="cls-7" d="m538.72,0h-29.25c-7.27,0-13.19,5.64-13.19,12.57v47.6c0,1.14-1.09,3.62-1.95,4.44l-15.16,14.33c-.89.85-3.56,1.88-4.83,1.88h-.43V12.57c0-6.93-5.92-12.57-13.19-12.57h-29.25c-7.27,0-13.19,5.64-13.19,12.57v179.34c0,6.93,5.92,12.57,13.19,12.57h29.25c7.27,0,13.19-5.64,13.19-12.57v-58.3h2.25c1.27,0,3.94,1.04,4.83,1.88l13.33,12.61c.86.81,1.95,3.3,1.95,4.44v39.37c0,6.93,5.92,12.57,13.19,12.57h29.25c7.27,0,13.19-5.64,13.19-12.57v-55.4c0-4.99-2.6-10.93-6.32-14.45l-16.6-15.7,16.61-15.7c3.72-3.52,6.32-9.46,6.32-14.45V12.57c0-6.93-5.92-12.57-13.19-12.57Z"/><path class="cls-7" d="m827.32,33.1c-.2-.31-.44-.67-.71-1.04l-27.14-26.12c-.71-.68-1.56-1.33-2.51-1.96l-.28-.18c-.2-.12-.39-.25-.63-.38-.28-.16-.56-.32-.81-.46-.25-.14-.51-.27-.79-.4l-.15-.08c-3.31-1.6-6.86-2.48-9.98-2.48h-40.79c-3.11,0-6.67.89-10.02,2.49l-.25.13c-.21.1-.42.21-.59.3-.34.18-.68.37-.9.51-.29.17-.57.34-.87.54l-.06.04c-.94.62-1.76,1.27-2.47,1.94l-24.93,23.58c-.17.16-.33.32-.49.49l-.33.34c-.13.14-.25.28-.39.44-.14.17-.28.33-.42.51l-.11.14c-.14.17-.26.34-.37.49-.23.31-.53.74-.84,1.23l-.5.84c-1.83,3.23-2.89,6.87-2.89,9.98v116.52c0,4.92,2.66,10.99,6.33,14.45l24.95,23.59c3.63,3.44,10,5.94,15.15,5.94h40.79c5.22,0,11.44-2.44,15.14-5.94l24.95-23.59c3.66-3.47,6.32-9.55,6.32-14.45V43.98c0-3-.98-6.49-2.7-9.63l-.73-1.25Zm-74.57,111.36V60.01c0-1.17,1.07-3.61,1.95-4.43l.96-.91c.89-.85,3.56-1.89,4.83-1.89h6.89c1.27,0,3.93,1.04,4.83,1.89l.95.89c.86.81,1.96,3.3,1.96,4.44v84.44c0,1.16-1.08,3.61-1.95,4.44l-.96.9c-.9.85-3.56,1.89-4.83,1.89h-6.89c-1.28,0-3.94-1.04-4.84-1.89l-.95-.9c-.86-.81-1.95-3.3-1.95-4.44Z"/><path class="cls-7" d="m120.44,0h-29.25c-5.59,0-10.6,3.38-12.45,8.43-.49,1.33-.74,2.73-.74,4.14v131.89c0,1.17-1.07,3.61-1.95,4.43l-.97.91c-.89.84-3.55,1.88-4.83,1.88h-6.89c-1.27,0-3.94-1.04-4.83-1.89l-.95-.9c-.86-.81-1.95-3.3-1.95-4.44v-8.48c0-6.93-5.92-12.57-13.19-12.57H13.18c-7.27,0-13.18,5.64-13.18,12.57v24.52c0,4.99,2.6,10.93,6.32,14.45l24.96,23.59c3.7,3.49,9.92,5.93,15.14,5.93h40.79c5.22,0,11.44-2.44,15.15-5.94l24.95-23.59c3.72-3.52,6.33-9.46,6.33-14.45V12.57c0-6.93-5.92-12.57-13.19-12.57Z"/><path class="cls-7" d="m660.05,5.93c-.89-.83-1.93-1.62-3.09-2.33-3.62-2.22-8.24-3.6-12.05-3.6h-74.02c-7.27,0-13.19,5.64-13.19,12.57v179.34c0,6.93,5.92,12.57,13.19,12.57h29.25c1.84,0,3.63-.36,5.3-1.06,4.79-2,7.89-6.52,7.89-11.51v-58.3h31.71c5.22,0,11.44-2.44,15.15-5.94l24.82-23.47c3.72-3.52,6.32-9.46,6.32-14.45v-45.77c0-4.99-2.6-10.93-6.32-14.45l-24.96-23.6Zm-24.35,54.08v13.71c0,1.14-1.09,3.62-1.95,4.43l-.83.78c-.9.85-3.56,1.89-4.83,1.89h-14.76v-28.04h14.63c1.27,0,3.94,1.04,4.83,1.89l.96.9c.87.82,1.95,3.27,1.95,4.44Z"/><path class="cls-7" d="m957,0h-107.26c-7.27,0-13.19,5.64-13.19,12.57v27.66c0,6.93,5.92,12.56,13.19,12.56h25.82v139.12c0,6.93,5.92,12.57,13.19,12.57h29.25c6.11,0,11.39-3.96,12.82-9.61.25-.96.37-1.96.37-2.96V52.79h25.82c7.27,0,13.18-5.64,13.18-12.56V12.57c0-6.93-5.91-12.57-13.18-12.57Z"/><path class="cls-2" d="m377.14,4.93c-2.87-2.81-8.1-4.93-12.17-4.93h-41.17c-4.06,0-9.29,2.12-12.17,4.93l-25.18,24.62c-2.87,2.81-5.04,7.92-5.04,11.89v121.58c0,3.97,2.17,9.09,5.04,11.89l25.18,24.62c2.87,2.81,8.1,4.93,12.17,4.93h41.17c4.06,0,9.29-2.12,12.17-4.93l25.18-24.62c2.87-2.81,5.04-7.92,5.04-11.89v-25.59c0-4.77-3.97-8.66-8.86-8.66h-29.52c-4.88,0-8.86,3.88-8.86,8.66v8.85c0,2.4-1.58,6.12-3.31,7.81l-.97.95c-1.73,1.69-5.54,3.24-7.99,3.24h-6.95c-2.45,0-6.26-1.54-7.99-3.24l-.97-.95c-1.73-1.69-3.31-5.42-3.31-7.81V58.17c0-2.4,1.58-6.12,3.31-7.81l.97-.95c1.73-1.69,5.54-3.24,7.99-3.24h6.95c2.45,0,6.26,1.54,7.99,3.24l.97.94c1.86,1.82,3.31,4.97,3.31,6.47,0,4.03,3.97,7.31,8.86,7.31h29.52c4.88,0,8.86-3.88,8.86-8.66v-14.04c0-3.97-2.17-9.09-5.04-11.89l-25.18-24.62Z"/><path class="cls-2" d="m261.61,29.54l-25.18-24.62c-2.87-2.8-8.11-4.92-12.17-4.92h-41.17c-4.06,0-9.3,2.12-12.16,4.92l-24.66,24.11-.53.52c-2.87,2.81-5.04,7.92-5.04,11.89v154.37c0,1.44.36,2.79,1,3.99,1.47,2.78,4.44,4.67,7.85,4.67h29.52c4.88,0,8.86-3.88,8.86-8.66v-62.4c0-1.59,1.32-2.89,2.95-2.89h25.58c1.63,0,2.95,1.29,2.95,2.89v62.4c0,2.11.77,4.04,2.07,5.55,1.62,1.9,4.06,3.11,6.79,3.11h29.52c4.88,0,8.86-3.88,8.86-8.66V41.44c0-3.97-2.17-9.08-5.04-11.89Zm-73.68,28.63c0-2.4,1.57-6.12,3.31-7.82l.97-.94c1.73-1.69,5.54-3.24,7.99-3.24h6.96c2.45,0,6.26,1.54,7.99,3.24l.97.94c1.73,1.69,3.31,5.42,3.31,7.82v23.28c0,1.59-1.32,2.88-2.95,2.88h-25.58c-1.63,0-2.95-1.29-2.95-2.88v-23.28Z"/><path class="cls-2" d="m539.21,0h-29.52c-4.88,0-8.86,3.88-8.86,8.66v49.67c0,2.4-1.58,6.12-3.31,7.81l-15.3,14.96c-1.73,1.69-5.54,3.24-7.99,3.24h-1.94c-1.63,0-2.95-1.29-2.95-2.89V8.66c0-4.77-3.97-8.66-8.86-8.66h-29.52c-4.88,0-8.86,3.88-8.86,8.66v187.15c0,4.77,3.97,8.66,8.86,8.66h29.52c4.88,0,8.86-3.88,8.86-8.66v-62.41c0-1.59,1.32-2.89,2.95-2.89h3.78c2.45,0,6.26,1.54,7.99,3.24l13.46,13.16c1.73,1.69,3.31,5.42,3.31,7.81v41.09c0,4.77,3.97,8.66,8.86,8.66h29.52c4.88,0,8.86-3.88,8.86-8.66v-57.82c0-3.97-2.17-9.09-5.04-11.89l-17.93-17.53c-1.15-1.13-1.15-2.96,0-4.08l17.93-17.53c2.87-2.81,5.04-7.92,5.04-11.89V8.66c0-4.77-3.97-8.66-8.86-8.66Z"/><path class="cls-2" d="m827.12,33.19s0-.02-.01-.03l-.42-.72c-.24-.38-.46-.72-.69-1.04l-.05-.07c-.05-.06-.08-.12-.15-.21-.15-.21-.31-.42-.49-.63l-1.6-1.67-24.44-23.9c-.55-.53-1.19-1.05-1.92-1.54-.23-.15-.46-.3-.71-.45-.24-.14-.48-.29-.7-.41-.24-.14-.49-.26-.76-.4-2.7-1.35-5.64-2.12-8.08-2.12h-41.17c-2.43,0-5.38.77-8.13,2.14l-.12.07c-.2.1-.4.2-.57.3-.26.14-.52.29-.72.42-.24.15-.48.3-.72.46-.72.5-1.37,1.02-1.9,1.54l-25.18,24.62c-.17.17-.34.34-.51.52l-.08.09c-.09.1-.18.21-.26.31-.12.15-.24.3-.37.46l-.09.12c-.1.12-.18.24-.28.38-.23.32-.45.65-.67,1.01l-.42.72c-1.48,2.7-2.36,5.79-2.36,8.27v121.6c0,3.91,2.22,9.14,5.04,11.89l25.18,24.62c2.82,2.76,8.17,4.92,12.17,4.92h41.17c4.06,0,9.3-2.12,12.16-4.92l24.64-24.1.53-.52c2.83-2.77,5.04-7.99,5.04-11.9V41.44c0-2.48-.89-5.57-2.36-8.25Zm-44.87,113.11c0,2.4-1.58,6.12-3.31,7.82l-.96.94c-1.73,1.69-5.54,3.24-7.99,3.24h-6.96c-2.45,0-6.27-1.54-7.99-3.24l-.96-.94c-1.73-1.69-3.31-5.42-3.31-7.82V58.17c0-2.4,1.57-6.12,3.31-7.82l.96-.94c1.73-1.7,5.54-3.24,7.99-3.24h6.96c2.45,0,6.25,1.54,7.99,3.24l.96.94c1.73,1.7,3.31,5.42,3.31,7.82v88.12Z"/><path class="cls-2" d="m125.95,8.66v154.37c0,3.97-2.17,9.08-5.04,11.89l-25.18,24.62c-2.87,2.81-8.11,4.93-12.17,4.93h-41.17c-4.06,0-9.3-2.12-12.16-4.92l-25.18-24.62C2.16,172.12,0,167,0,163.04v-25.59c0-4.78,3.97-8.66,8.85-8.66h29.52c4.88,0,8.86,3.88,8.86,8.66v8.85c0,2.4,1.58,6.12,3.31,7.82l.97.94c1.73,1.69,5.54,3.24,7.99,3.24h6.96c2.45,0,6.26-1.54,7.99-3.24l.97-.94c1.73-1.69,3.31-5.42,3.31-7.82V8.66c0-.99.17-1.94.49-2.83,1.21-3.39,4.5-5.83,8.37-5.83h29.52c4.88,0,8.86,3.88,8.86,8.66Z"/><path class="cls-2" d="m683.73,29.55l-25.18-24.63c-.68-.67-1.49-1.29-2.39-1.86-2.89-1.83-6.67-3.06-9.77-3.06h-74.7c-4.88,0-8.86,3.88-8.86,8.66v187.15c0,4.78,3.97,8.66,8.86,8.66h29.51c1.27,0,2.49-.27,3.58-.74,3.11-1.34,5.27-4.39,5.27-7.92v-62.4c0-1.59,1.32-2.89,2.95-2.89h33.51c4.06,0,9.3-2.12,12.17-4.93l25.05-24.5c2.87-2.81,5.04-7.92,5.04-11.89v-47.76c0-3.97-2.16-9.08-5.04-11.89Zm-73.68,19.51c0-1.59,1.32-2.89,2.95-2.89h16.27c2.45,0,6.25,1.54,7.99,3.24l.97.94c1.73,1.69,3.31,5.42,3.31,7.82v14.3c0,2.39-1.57,6.12-3.31,7.81l-.84.82c-1.73,1.69-5.54,3.24-7.99,3.24h-16.4c-1.63,0-2.95-1.29-2.95-2.89v-32.4Z"/><path class="cls-2" d="m970.18,8.66v28.86c0,4.77-3.97,8.65-8.85,8.65h-27.55c-1.63,0-2.95,1.29-2.95,2.89v146.75c0,.69-.08,1.37-.24,2.01-.93,3.81-4.44,6.65-8.61,6.65h-29.51c-4.89,0-8.86-3.88-8.86-8.66V49.06c0-1.59-1.32-2.89-2.95-2.89h-27.55c-4.88,0-8.86-3.88-8.86-8.65V8.66c0-4.78,3.97-8.66,8.86-8.66h108.24c4.88,0,8.85,3.88,8.85,8.66Z"/><path class="cls-13" d="m312.67,200.27c2.31,2.31,6.87,4.2,10.14,4.2h41.42c3.27,0,7.83-1.89,10.14-4.2l25.34-25.33c2.31-2.31,4.2-6.87,4.2-10.14v-26.33c0-3.27-2.67-5.94-5.94-5.94h-29.7c-3.27,0-5.94,2.67-5.94,5.94v9.11c0,3.27-1.89,7.83-4.2,10.14l-.97.97c-2.31,2.31-6.87,4.2-10.14,4.2h-7c-3.27,0-7.83-1.89-10.14-4.2l-.97-.97c-2.31-2.31-4.2-6.87-4.2-10.14V56.89c0-3.27,1.89-7.83,4.2-10.14l.97-.97c2.31-2.31,6.87-4.2,10.14-4.2h7c3.27,0,7.83,1.89,10.14,4.2l.97.97c2.31,2.31,4.2,6.25,4.2,8.76s2.67,4.56,5.94,4.56h29.7c3.27,0,5.94-2.67,5.94-5.94v-14.45c0-3.27-1.89-7.83-4.2-10.14l-25.34-25.33c-2.31-2.31-6.87-4.2-10.14-4.2h-41.42c-3.27,0-7.83,1.89-10.14,4.2l-25.34,25.34c-2.31,2.31-4.2,6.87-4.2,10.14v125.12c0,3.27,1.89,7.83,4.2,10.14l25.34,25.34Z"/><path class="cls-1" d="m258.14,29.53l-25.33-25.33c-2.31-2.31-6.87-4.2-10.14-4.2h-41.42c-3.27,0-7.83,1.89-10.15,4.2l-24.83,24.83-.5.5c-2.31,2.31-4.2,6.87-4.2,10.14v158.85c0,.43.05.86.14,1.27,1.47,2.78,4.44,4.67,7.85,4.67h27.65c3.27,0,5.94-2.67,5.94-5.94v-64.22c0-3.27,2.67-5.94,5.94-5.94h25.74c3.27,0,5.94,2.67,5.94,5.94v64.22c0,1.02.26,1.98.72,2.83,1.62,1.9,4.06,3.11,6.79,3.11h28.13c3.27,0,5.94-2.67,5.94-5.94V39.67c0-3.27-1.89-7.83-4.21-10.14Zm-37.37,51.32c0,3.27-2.67,5.94-5.94,5.94h-25.74c-3.27,0-5.94-2.67-5.94-5.94v-23.96c0-3.27,1.89-7.83,4.2-10.14l.97-.97c2.3-2.31,6.87-4.2,10.14-4.2h7c3.27,0,7.83,1.89,10.14,4.2l.97.97c2.31,2.31,4.21,6.87,4.21,10.14v23.96Z"/><path class="cls-12" d="m503.9,198.53c0,3.27,2.67,5.94,5.94,5.94h29.7c3.27,0,5.94-2.67,5.94-5.94v-59.5c0-3.27-1.89-7.83-4.2-10.14l-18.04-18.04c-2.31-2.31-2.31-6.09,0-8.4l18.04-18.04c2.31-2.31,4.2-6.87,4.2-10.14V5.94c0-3.27-2.67-5.94-5.94-5.94h-29.7c-3.27,0-5.94,2.67-5.94,5.94v51.12c0,3.27-1.89,7.83-4.2,10.14l-15.39,15.39c-2.31,2.31-6.87,4.2-10.14,4.2h-1.95c-3.27,0-5.94-2.67-5.94-5.94V5.94c0-3.27-2.67-5.94-5.94-5.94h-29.7c-3.27,0-5.94,2.67-5.94,5.94v192.59c0,3.27,2.67,5.94,5.94,5.94h29.7c3.27,0,5.94-2.67,5.94-5.94v-64.22c0-3.27,2.67-5.94,5.94-5.94h3.8c3.27,0,7.83,1.89,10.14,4.2l13.54,13.54c2.31,2.31,4.2,6.87,4.2,10.14v42.28Z"/><path class="cls-14" d="m826.58,32.57c-.11-.21-.23-.42-.36-.62h0c-.18-.31-.37-.61-.57-.89-.07-.1-.14-.19-.2-.29-.13-.18-.27-.36-.41-.52-.07-.09-.14-.17-.21-.26-.14-.16-.28-.31-.43-.45h0s-.71-.72-.71-.72l-24.62-24.61h0c-.43-.44-.94-.86-1.51-1.25-.19-.13-.39-.26-.59-.39-.2-.12-.4-.25-.62-.37-.21-.12-.42-.23-.64-.34-2.19-1.12-4.73-1.86-6.78-1.86h-41.42c-2.04,0-4.59.74-6.78,1.86-.21.11-.43.23-.64.34-.21.12-.42.24-.62.37-.2.12-.4.26-.59.39-.57.4-1.08.81-1.51,1.25l-25.33,25.33c-.14.14-.29.3-.43.45-.07.08-.14.17-.21.26-.14.17-.27.34-.41.52-.07.1-.14.19-.2.29-.2.29-.39.58-.57.89h0c-.12.21-.24.42-.36.63-1.21,2.26-2.03,4.96-2.03,7.1v125.13c0,3.27,1.89,7.83,4.2,10.14l25.33,25.33c2.31,2.31,6.88,4.2,10.15,4.2h41.42c3.27,0,7.83-1.89,10.14-4.2l24.82-24.82.51-.51c2.31-2.31,4.21-6.88,4.21-10.15V39.68c0-2.14-.82-4.85-2.03-7.11Zm-39.55,115.01c0,3.27-1.89,7.83-4.21,10.15l-.97.97c-2.31,2.31-6.87,4.2-10.14,4.2h-7c-3.27,0-7.83-1.89-10.15-4.2l-.97-.97c-2.31-2.31-4.2-6.88-4.2-10.15V56.89c0-3.27,1.89-7.83,4.2-10.14l.97-.97c2.31-2.31,6.88-4.21,10.15-4.21h7c3.27,0,7.83,1.89,10.14,4.21l.97.97c2.31,2.31,4.21,6.87,4.21,10.14v90.69Z"/><path class="cls-8" d="m120.78,5.94v158.85c0,3.27-1.89,7.83-4.21,10.14l-25.33,25.34c-2.31,2.31-6.87,4.2-10.14,4.2h-41.42c-3.27,0-7.83-1.89-10.15-4.2l-25.33-25.33C1.89,172.63,0,168.07,0,164.8v-26.33c0-3.27,2.67-5.94,5.94-5.94h29.7c3.27,0,5.94,2.67,5.94,5.94v9.11c0,3.27,1.89,7.83,4.2,10.14l.97.97c2.3,2.31,6.87,4.2,10.14,4.2h7c3.27,0,7.83-1.89,10.14-4.2l.97-.97c2.31-2.31,4.21-6.87,4.21-10.14V5.83c1.21-3.39,4.5-5.83,8.37-5.83h27.27c3.27,0,5.94,2.67,5.94,5.94Z"/><path class="cls-4" d="m682.84,29.54l-25.33-25.34c-.39-.39-.85-.78-1.36-1.13-2.46-1.76-6.08-3.06-8.78-3.06h-75.16c-3.27,0-5.94,2.67-5.94,5.94v192.59c0,3.27,2.67,5.94,5.94,5.94h29.7c1.04,0,2.02-.27,2.87-.74,1.83-1.02,3.07-2.97,3.07-5.2v-64.22c0-3.27,2.67-5.94,5.94-5.94h33.71c3.27,0,7.83-1.89,10.14-4.2l20.79-20.79,4.41-4.42c2.31-2.31,4.2-6.87,4.2-10.14v-49.15c0-3.27-1.89-7.83-4.2-10.14Zm-37.38,42.07c0,3.27-1.89,7.83-4.2,10.14l-.84.84c-2.31,2.31-6.88,4.2-10.15,4.2h-16.49c-3.27,0-5.94-2.67-5.94-5.94v-33.33c0-3.27,2.67-5.94,5.94-5.94h16.36c3.27,0,7.83,1.89,10.15,4.2l.97.97c2.31,2.31,4.2,6.87,4.2,10.14v14.72Z"/><path class="cls-9" d="m970.18,8.66v26.98c0,3.27-2.67,5.94-5.94,5.94h-27.72c-3.27,0-5.94,2.67-5.94,5.94v151.01c0,3.27-2.67,5.94-5.94,5.94h-29.7c-3.27,0-5.94-2.67-5.94-5.94V47.52c0-3.27-2.67-5.94-5.94-5.94h-27.72c-3.27,0-5.94-2.67-5.94-5.94V5.94c0-3.27,2.67-5.94,5.94-5.94h105.99c4.88,0,8.85,3.88,8.85,8.66Z"/><path class="cls-15" d="m312.67,200.27c2.31,2.31,6.87,4.2,10.14,4.2h41.42c3.27,0,7.83-1.89,10.14-4.2l25.34-25.33c2.31-2.31,4.2-6.87,4.2-10.14v-26.33c0-3.27-2.67-5.94-5.94-5.94h-29.7c-3.27,0-5.94,2.67-5.94,5.94v9.11c0,3.27-1.89,7.83-4.2,10.14l-.97.97c-2.31,2.31-6.87,4.2-10.14,4.2h-7c-3.27,0-7.83-1.89-10.14-4.2l-.97-.97c-2.31-2.31-4.2-6.87-4.2-10.14V56.89c0-3.27,1.89-7.83,4.2-10.14l.97-.97c2.31-2.31,6.87-4.2,10.14-4.2h7c3.27,0,7.83,1.89,10.14,4.2l.97.97c2.31,2.31,4.2,6.25,4.2,8.76s2.67,4.56,5.94,4.56h29.7c3.27,0,5.94-2.67,5.94-5.94v-14.45c0-3.27-1.89-7.83-4.2-10.14l-25.34-25.33c-2.31-2.31-6.87-4.2-10.14-4.2h-41.42c-3.27,0-7.83,1.89-10.14,4.2l-25.34,25.34c-2.31,2.31-4.2,6.87-4.2,10.14v125.12c0,3.27,1.89,7.83,4.2,10.14l25.34,25.34Z"/><path class="cls-11" d="m258.14,29.53l-25.33-25.33c-2.31-2.31-6.87-4.2-10.14-4.2h-41.42c-3.27,0-7.83,1.89-10.15,4.2l-24.83,24.83-.5.5c-2.31,2.31-4.2,6.87-4.2,10.14v158.85c0,.43.05.86.14,1.27,1.47,2.78,4.44,4.67,7.85,4.67h27.65c3.27,0,5.94-2.67,5.94-5.94v-64.22c0-3.27,2.67-5.94,5.94-5.94h25.74c3.27,0,5.94,2.67,5.94,5.94v64.22c0,1.02.26,1.98.72,2.83,1.62,1.9,4.06,3.11,6.79,3.11h28.13c3.27,0,5.94-2.67,5.94-5.94V39.67c0-3.27-1.89-7.83-4.21-10.14Zm-37.37,51.32c0,3.27-2.67,5.94-5.94,5.94h-25.74c-3.27,0-5.94-2.67-5.94-5.94v-23.96c0-3.27,1.89-7.83,4.2-10.14l.97-.97c2.3-2.31,6.87-4.2,10.14-4.2h7c3.27,0,7.83,1.89,10.14,4.2l.97.97c2.31,2.31,4.21,6.87,4.21,10.14v23.96Z"/><path class="cls-6" d="m503.9,198.53c0,3.27,2.67,5.94,5.94,5.94h29.7c3.27,0,5.94-2.67,5.94-5.94v-59.5c0-3.27-1.89-7.83-4.2-10.14l-18.04-18.04c-2.31-2.31-2.31-6.09,0-8.4l18.04-18.04c2.31-2.31,4.2-6.87,4.2-10.14V5.94c0-3.27-2.67-5.94-5.94-5.94h-29.7c-3.27,0-5.94,2.67-5.94,5.94v51.12c0,3.27-1.89,7.83-4.2,10.14l-15.39,15.39c-2.31,2.31-6.87,4.2-10.14,4.2h-1.95c-3.27,0-5.94-2.67-5.94-5.94V5.94c0-3.27-2.67-5.94-5.94-5.94h-29.7c-3.27,0-5.94,2.67-5.94,5.94v192.59c0,3.27,2.67,5.94,5.94,5.94h29.7c3.27,0,5.94-2.67,5.94-5.94v-64.22c0-3.27,2.67-5.94,5.94-5.94h3.8c3.27,0,7.83,1.89,10.14,4.2l13.54,13.54c2.31,2.31,4.2,6.87,4.2,10.14v42.28Z"/><path class="cls-5" d="m826.58,32.57c-.11-.21-.23-.42-.36-.62h0c-.18-.31-.37-.61-.57-.89-.07-.1-.14-.19-.2-.29-.13-.18-.27-.36-.41-.52-.07-.09-.14-.17-.21-.26-.14-.16-.28-.31-.43-.45h0s-.71-.72-.71-.72l-24.62-24.61h0c-.43-.44-.94-.86-1.51-1.25-.19-.13-.39-.26-.59-.39-.2-.12-.4-.25-.62-.37-.21-.12-.42-.23-.64-.34-2.19-1.12-4.73-1.86-6.78-1.86h-41.42c-2.04,0-4.59.74-6.78,1.86-.21.11-.43.23-.64.34-.21.12-.42.24-.62.37-.2.12-.4.26-.59.39-.57.4-1.08.81-1.51,1.25l-25.33,25.33c-.14.14-.29.3-.43.45-.07.08-.14.17-.21.26-.14.17-.27.34-.41.52-.07.1-.14.19-.2.29-.2.29-.39.58-.57.89h0c-.12.21-.24.42-.36.63-1.21,2.26-2.03,4.96-2.03,7.1v125.13c0,3.27,1.89,7.83,4.2,10.14l25.33,25.33c2.31,2.31,6.88,4.2,10.15,4.2h41.42c3.27,0,7.83-1.89,10.14-4.2l24.82-24.82.51-.51c2.31-2.31,4.21-6.88,4.21-10.15V39.68c0-2.14-.82-4.85-2.03-7.11Zm-39.55,115.01c0,3.27-1.89,7.83-4.21,10.15l-.97.97c-2.31,2.31-6.87,4.2-10.14,4.2h-7c-3.27,0-7.83-1.89-10.15-4.2l-.97-.97c-2.31-2.31-4.2-6.88-4.2-10.15V56.89c0-3.27,1.89-7.83,4.2-10.14l.97-.97c2.31-2.31,6.88-4.21,10.15-4.21h7c3.27,0,7.83,1.89,10.14,4.21l.97.97c2.31,2.31,4.21,6.87,4.21,10.14v90.69Z"/><path class="cls-16" d="m120.78,5.94v158.85c0,3.27-1.89,7.83-4.21,10.14l-25.33,25.34c-2.31,2.31-6.87,4.2-10.14,4.2h-41.42c-3.27,0-7.83-1.89-10.15-4.2l-25.33-25.33C1.89,172.63,0,168.07,0,164.8v-26.33c0-3.27,2.67-5.94,5.94-5.94h29.7c3.27,0,5.94,2.67,5.94,5.94v9.11c0,3.27,1.89,7.83,4.2,10.14l.97.97c2.3,2.31,6.87,4.2,10.14,4.2h7c3.27,0,7.83-1.89,10.14-4.2l.97-.97c2.31-2.31,4.21-6.87,4.21-10.14V5.83c1.21-3.39,4.5-5.83,8.37-5.83h27.27c3.27,0,5.94,2.67,5.94,5.94Z"/><path class="cls-17" d="m682.84,29.54l-25.33-25.34c-.39-.39-.85-.78-1.36-1.13-2.46-1.76-6.08-3.06-8.78-3.06h-75.16c-3.27,0-5.94,2.67-5.94,5.94v192.59c0,3.27,2.67,5.94,5.94,5.94h29.7c1.04,0,2.02-.27,2.87-.74,1.83-1.02,3.07-2.97,3.07-5.2v-64.22c0-3.27,2.67-5.94,5.94-5.94h33.71c3.27,0,7.83-1.89,10.14-4.2l20.79-20.79,4.41-4.42c2.31-2.31,4.2-6.87,4.2-10.14v-49.15c0-3.27-1.89-7.83-4.2-10.14Zm-37.38,42.07c0,3.27-1.89,7.83-4.2,10.14l-.84.84c-2.31,2.31-6.88,4.2-10.15,4.2h-16.49c-3.27,0-5.94-2.67-5.94-5.94v-33.33c0-3.27,2.67-5.94,5.94-5.94h16.36c3.27,0,7.83,1.89,10.15,4.2l.97.97c2.31,2.31,4.2,6.87,4.2,10.14v14.72Z"/><path class="cls-3" d="m970.18,8.66v26.98c0,3.27-2.67,5.94-5.94,5.94h-27.72c-3.27,0-5.94,2.67-5.94,5.94v151.01c0,3.27-2.67,5.94-5.94,5.94h-29.7c-3.27,0-5.94-2.67-5.94-5.94V47.52c0-3.27-2.67-5.94-5.94-5.94h-27.72c-3.27,0-5.94-2.67-5.94-5.94V5.94c0-3.27,2.67-5.94,5.94-5.94h105.99c4.88,0,8.85,3.88,8.85,8.66Z"/></g></svg>