<?xml version="1.0" encoding="UTF-8"?><svg xmlns="http://www.w3.org/2000/svg" xmlns:xlink="http://www.w3.org/1999/xlink" viewBox="0 0 1403.12 243.14"><defs><style>.cls-1{fill:url(#linear-gradient-2);}.cls-2{fill:url(#radial-gradient);mix-blend-mode:multiply;}.cls-3{isolation:isolate;}.cls-3,.cls-4{fill:none;}.cls-5{fill:#fff;opacity:.2;}.cls-6{fill:url(#radial-gradient-2);mix-blend-mode:screen;}.cls-7{fill:url(#linear-gradient-3);}.cls-4{clip-path:url(#clippath-1);}.cls-8{fill:url(#linear-gradient);}</style><linearGradient id="linear-gradient" x1="701.56" y1="243.14" x2="701.56" y2="0" gradientUnits="userSpaceOnUse"><stop offset="0" stop-color="#a81919"/><stop offset=".23" stop-color="#ab1919"/><stop offset=".44" stop-color="#b71b1b"/><stop offset=".64" stop-color="#c91e1e"/><stop offset=".84" stop-color="#e42222"/><stop offset="1" stop-color="#ff2626"/></linearGradient><linearGradient id="linear-gradient-2" x1="701.56" y1="226.12" x2="701.56" y2="17.01" gradientUnits="userSpaceOnUse"><stop offset="0" stop-color="#ff2626"/><stop offset=".16" stop-color="#e42222"/><stop offset=".36" stop-color="#c91e1e"/><stop offset=".56" stop-color="#b71b1b"/><stop offset=".77" stop-color="#ab1919"/><stop offset="1" stop-color="#a81919"/></linearGradient><clipPath id="clippath-1"><path class="cls-1" d="m1003.77,17.01H399.35c-60.67,0-110.04,46.91-110.04,104.55s49.37,104.56,110.04,104.56h604.42c60.68,0,110.05-46.91,110.05-104.56s-49.36-104.55-110.05-104.55Z"/></clipPath><radialGradient id="radial-gradient" cx="695.41" cy="2115.46" fx="695.41" fy="2115.46" r="109.43" gradientTransform="translate(-1825.84 -176.75) scale(3.63 .1)" gradientUnits="userSpaceOnUse"><stop offset="0" stop-color="#919191"/><stop offset="1" stop-color="#fff"/></radialGradient><radialGradient id="radial-gradient-2" cx="518.18" cy="552.83" fx="518.18" fy="552.83" r="57.47" gradientTransform="translate(-5909.64 86.07) scale(12.76 .25)" gradientUnits="userSpaceOnUse"><stop offset="0" stop-color="#ff8282"/><stop offset=".05" stop-color="#df7272"/><stop offset=".16" stop-color="#ab5757"/><stop offset=".26" stop-color="#7d4040"/><stop offset=".37" stop-color="#572c2c"/><stop offset=".48" stop-color="#371c1c"/><stop offset=".59" stop-color="#1e0f0f"/><stop offset=".72" stop-color="#0d0606"/><stop offset=".84" stop-color="#030101"/><stop offset="1" stop-color="#000"/></radialGradient><linearGradient id="linear-gradient-3" x1="701.56" y1="211.54" x2="701.56" y2="31.6" gradientUnits="userSpaceOnUse"><stop offset="0" stop-color="#800022"/><stop offset=".02" stop-color="#920027"/><stop offset=".05" stop-color="#a3002b"/><stop offset=".08" stop-color="#af002e"/><stop offset=".12" stop-color="#b60030"/><stop offset=".25" stop-color="#b80031"/><stop offset=".28" stop-color="#be012c"/><stop offset=".46" stop-color="#da0618"/><stop offset=".64" stop-color="#ee0a0b"/><stop offset=".82" stop-color="#fa0c02"/><stop offset="1" stop-color="#ff0d00"/></linearGradient></defs><g class="cls-3"><g id="Layer_2"><g id="Layer_4"><path class="cls-8" d="m1003.77,0H399.35c-70.06,0-127.05,54.53-127.05,121.56s56.99,121.58,127.05,121.58h604.42c70.05,0,127.05-54.54,127.05-121.58S1073.82,0,1003.77,0Z"/><path class="cls-1" d="m1003.77,17.01H399.35c-60.67,0-110.04,46.91-110.04,104.55s49.37,104.56,110.04,104.56h604.42c60.68,0,110.05-46.91,110.05-104.56s-49.36-104.55-110.05-104.55Z"/><g class="cls-4"><path class="cls-2" d="m1066.95,34.8c0,6.5-90.1,11.77-326.27,11.77s-404.52-5.27-404.52-11.77,168.35-11.77,404.52-11.77,326.27,5.27,326.27,11.77Z"/><path class="cls-6" d="m0,226.33c0,8.38,318.86,15.18,740.69,15.18s662.43-6.8,662.43-15.18-240.6-15.19-662.43-15.19S0,217.94,0,226.33Z"/></g><path class="cls-7" d="m1099.21,121.57c0,49.48-42.95,89.97-95.44,89.97H399.35c-52.49,0-95.44-40.49-95.44-89.97s42.95-89.96,95.44-89.96h604.42c52.5,0,95.44,40.49,95.44,89.96Z"/><path class="cls-5" d="m1099.19,120.59c-.57-49.03-43.27-88.98-95.42-88.98H399.35c-52.14,0-94.84,39.95-95.41,88.98h795.25Z"/></g></g></g></svg>