<?xml version="1.0" encoding="UTF-8"?><svg xmlns="http://www.w3.org/2000/svg" xmlns:xlink="http://www.w3.org/1999/xlink" viewBox="0 0 714.96 155"><defs><style>.cls-1{fill:url(#linear-gradient-2);}.cls-2{fill:url(#radial-gradient-2);}.cls-2,.cls-3{mix-blend-mode:multiply;}.cls-4{fill:url(#linear-gradient-6);}.cls-5{fill:#0060c9;}.cls-3{fill:url(#radial-gradient);}.cls-6{isolation:isolate;}.cls-6,.cls-7,.cls-8{fill:none;}.cls-9{fill:url(#linear-gradient-5);}.cls-7{clip-path:url(#clippath);}.cls-10{fill:url(#linear-gradient-3);}.cls-8{clip-path:url(#clippath-1);}.cls-11{fill:url(#linear-gradient);}.cls-12{fill:url(#linear-gradient-4);}</style><linearGradient id="linear-gradient" x1="541.69" y1="-92.33" x2="728.47" y2="-92.33" gradientTransform="translate(728.47 -7.59) rotate(-180)" gradientUnits="userSpaceOnUse"><stop offset="0" stop-color="#001a45"/><stop offset=".3" stop-color="#003f82"/><stop offset=".53" stop-color="#014e83"/><stop offset=".75" stop-color="#035885"/><stop offset=".83" stop-color="#025281"/><stop offset=".93" stop-color="#014378"/><stop offset="1" stop-color="#00346f"/></linearGradient><linearGradient id="linear-gradient-2" x1="538.15" y1="-85.1" x2="642.66" y2="-85.1" gradientTransform="translate(728.47 -7.59) rotate(-180)" gradientUnits="userSpaceOnUse"><stop offset="0" stop-color="#00346f"/><stop offset=".29" stop-color="#035885"/><stop offset=".5" stop-color="#014e83"/><stop offset=".71" stop-color="#003f82"/><stop offset=".78" stop-color="#003a7a"/><stop offset=".88" stop-color="#002d65"/><stop offset="1" stop-color="#001a45"/></linearGradient><clipPath id="clippath"><path class="cls-1" d="m86.6,138.16c.43.2,1.03.42,1.78.63.76.22,1.67.44,2.75.66,1.07.22,2.3.44,3.68.64,1.37.21,2.89.4,4.55.57,1.66.18,3.47.33,5.42.47,1.95.13,4.04.24,6.27.31,2.23.07,4.6.11,7.1.11h36.38c1.72,0,3.6.02,5.56.08,1.96.05,4.01.13,6.08.25,2.07.11,4.15.26,6.18.46,2.03.19,4.01.42,5.86.7,1.73.26,3.35.56,4.81.9,1.46.34,2.76.73,3.84,1.15,1.08.43,1.95.91,2.55,1.44.6.53.92,1.11.92,1.75l-.27-131.06c0-.63-.31-1.21-.88-1.73-.57-.52-1.39-1-2.43-1.42-1.03-.43-2.27-.8-3.67-1.14-1.39-.33-2.94-.63-4.58-.88-1.77-.27-3.66-.5-5.59-.69-1.94-.19-3.92-.34-5.89-.45-1.97-.11-3.92-.2-5.8-.25-1.87-.06-3.66-.08-5.31-.08h-34.7c-2.39,0-4.65-.04-6.77-.11-2.13-.07-4.12-.17-5.98-.3-1.86-.13-3.59-.29-5.17-.46-1.59-.17-3.04-.36-4.34-.56-1.32-.2-2.49-.42-3.52-.63-1.02-.22-1.89-.44-2.62-.65-.72-.21-1.29-.43-1.7-.62-.41-.2-.67-.38-.76-.55l-4.55,130.89c.1.17.36.36.79.56Z"/></clipPath><radialGradient id="radial-gradient" cx="383.62" cy="-5225.98" fx="383.62" fy="-5225.98" r="124.97" gradientTransform="translate(720.02 -588.22) rotate(179.06) scale(1.49 .13)" gradientUnits="userSpaceOnUse"><stop offset="0" stop-color="#000653"/><stop offset="1" stop-color="#add6d9"/></radialGradient><linearGradient id="linear-gradient-3" x1="603.11" x2="789.89" gradientTransform="translate(-74.93 -7.59) scale(1 -1)" xlink:href="#linear-gradient"/><linearGradient id="linear-gradient-4" x1="99.32" x2="203.84" xlink:href="#linear-gradient-2"/><linearGradient id="linear-gradient-5" x1="99.32" x2="203.84" xlink:href="#linear-gradient-2"/><clipPath id="clippath-1"><path class="cls-9" d="m628.36,138.16c-.43.2-1.03.42-1.78.63-.76.22-1.67.44-2.75.66-1.07.22-2.3.44-3.68.64-1.37.21-2.89.4-4.55.57-1.66.18-3.47.33-5.42.47-1.95.13-4.05.24-6.27.31-2.23.07-4.6.11-7.1.11h-36.38c-1.72,0-3.6.02-5.56.08-1.96.05-4.01.13-6.08.25-2.07.11-4.15.26-6.18.46-2.03.19-4.01.42-5.86.7-1.73.26-3.35.56-4.81.9-1.46.34-2.76.73-3.84,1.15-1.08.43-1.95.91-2.55,1.44-.6.53-.92,1.11-.92,1.75l.27-131.06c0-.63.31-1.21.88-1.73.57-.52,1.39-1,2.43-1.42,1.03-.43,2.27-.8,3.67-1.14,1.39-.33,2.94-.63,4.58-.88,1.77-.27,3.66-.5,5.59-.69,1.94-.19,3.92-.34,5.89-.45,1.97-.11,3.92-.2,5.8-.25,1.87-.06,3.66-.08,5.31-.08h34.7c2.39,0,4.64-.04,6.77-.11,2.13-.07,4.12-.17,5.98-.3,1.86-.13,3.59-.29,5.17-.46,1.59-.17,3.04-.36,4.34-.56,1.32-.2,2.49-.42,3.51-.63,1.02-.22,1.9-.44,2.62-.65.72-.21,1.29-.43,1.7-.62.41-.2.66-.38.76-.55l4.55,130.89c-.1.17-.36.36-.79.56Z"/></clipPath><radialGradient id="radial-gradient-2" cx="471.2" cy="-5210.02" fx="471.2" fy="-5210.02" r="124.97" gradientTransform="translate(-135.44 -588.22) rotate(.94) scale(1.49 -.13)" xlink:href="#radial-gradient"/><linearGradient id="linear-gradient-6" x1="95.77" y1="-76.37" x2="646.21" y2="-76.37" gradientTransform="translate(728.47 -7.59) rotate(-180)" gradientUnits="userSpaceOnUse"><stop offset="0" stop-color="#002454"/><stop offset="0" stop-color="#002556"/><stop offset=".06" stop-color="#00336e"/><stop offset=".11" stop-color="#003c7c"/><stop offset=".15" stop-color="#003f82"/><stop offset=".23" stop-color="#004482"/><stop offset=".49" stop-color="#025384"/><stop offset=".71" stop-color="#035885"/><stop offset="1" stop-color="#003877"/></linearGradient></defs><g class="cls-6"><g id="Layer_2"><g id="ribbon"><path class="cls-11" d="m154.61,152.3h.46c.07,0,.15,0,.23,0h.23c2.21,0,4.31-.05,6.3-.11,1.99-.07,3.87-.16,5.63-.28,1.76-.11,3.41-.25,4.95-.4,1.54-.15,2.95-.32,4.25-.5.77-.11,1.5-.22,2.18-.33.69-.11,1.33-.23,1.93-.35.6-.12,1.16-.24,1.67-.36.51-.12.98-.24,1.4-.36.22-.06.43-.12.63-.19.2-.06.38-.13.56-.19.17-.06.33-.12.48-.18.15-.06.28-.12.41-.18.12-.06.23-.11.32-.17.09-.05.18-.11.25-.16.07-.05.13-.1.18-.16.05-.05.09-.1.11-.15l-.1-131.06s-.06.1-.1.15c-.05.05-.11.1-.18.16-.07.05-.15.11-.24.16-.09.05-.19.11-.31.16-.12.06-.25.12-.39.18-.14.06-.29.12-.46.18-.17.06-.35.12-.53.18-.19.06-.39.12-.6.18-.41.12-.85.24-1.34.35-.49.12-1.02.24-1.59.35-.57.11-1.19.23-1.84.34-.65.11-1.35.22-2.08.32-1.24.18-2.59.35-4.05.5-1.47.15-3.04.28-4.72.4-1.68.11-3.47.21-5.37.27-1.9.06-3.9.11-6.01.12H11.13L0,152.3h154.61Z"/><path class="cls-1" d="m86.6,138.16c.43.2,1.03.42,1.78.63.76.22,1.67.44,2.75.66,1.07.22,2.3.44,3.68.64,1.37.21,2.89.4,4.55.57,1.66.18,3.47.33,5.42.47,1.95.13,4.04.24,6.27.31,2.23.07,4.6.11,7.1.11h36.38c1.72,0,3.6.02,5.56.08,1.96.05,4.01.13,6.08.25,2.07.11,4.15.26,6.18.46,2.03.19,4.01.42,5.86.7,1.73.26,3.35.56,4.81.9,1.46.34,2.76.73,3.84,1.15,1.08.43,1.95.91,2.55,1.44.6.53.92,1.11.92,1.75l-.27-131.06c0-.63-.31-1.21-.88-1.73-.57-.52-1.39-1-2.43-1.42-1.03-.43-2.27-.8-3.67-1.14-1.39-.33-2.94-.63-4.58-.88-1.77-.27-3.66-.5-5.59-.69-1.94-.19-3.92-.34-5.89-.45-1.97-.11-3.92-.2-5.8-.25-1.87-.06-3.66-.08-5.31-.08h-34.7c-2.39,0-4.65-.04-6.77-.11-2.13-.07-4.12-.17-5.98-.3-1.86-.13-3.59-.29-5.17-.46-1.59-.17-3.04-.36-4.34-.56-1.32-.2-2.49-.42-3.52-.63-1.02-.22-1.89-.44-2.62-.65-.72-.21-1.29-.43-1.7-.62-.41-.2-.67-.38-.76-.55l-4.55,130.89c.1.17.36.36.79.56Z"/><g class="cls-7"><path class="cls-3" d="m347.12,121.02c-.15-9.28-83.56-15.44-186.3-13.75-102.74,1.69-185.9,10.59-185.74,19.87.15,9.28,83.56,15.43,186.3,13.75,102.74-1.69,185.9-10.58,185.74-19.87Z"/></g><path class="cls-10" d="m560.35,152.3h-.46c-.07,0-.15,0-.23,0h-.23c-2.21,0-4.31-.05-6.3-.11-1.99-.07-3.87-.16-5.63-.28-1.76-.11-3.41-.25-4.95-.4-1.54-.15-2.95-.32-4.25-.5-.77-.11-1.5-.22-2.18-.33-.69-.11-1.33-.23-1.93-.35-.6-.12-1.16-.24-1.67-.36-.51-.12-.98-.24-1.4-.36-.22-.06-.43-.12-.63-.19-.2-.06-.39-.13-.56-.19-.17-.06-.33-.12-.48-.18-.15-.06-.28-.12-.41-.18-.12-.06-.23-.11-.32-.17-.09-.05-.18-.11-.25-.16-.07-.05-.13-.1-.18-.16-.05-.05-.09-.1-.11-.15l.1-131.06s.06.1.1.15c.05.05.11.1.17.16.07.05.15.11.24.16.09.05.19.11.3.16.12.06.25.12.39.18.14.06.3.12.46.18.17.06.35.12.53.18.19.06.39.12.6.18.41.12.85.24,1.34.35.49.12,1.02.24,1.59.35.57.11,1.19.23,1.84.34.65.11,1.35.22,2.08.32,1.24.18,2.59.35,4.05.5,1.47.15,3.04.28,4.72.4,1.68.11,3.48.21,5.38.27,1.9.06,3.9.11,6.01.12h145.72l11.13,131.13h-154.61Z"/><path class="cls-12" d="m628.36,138.16c-.43.2-1.03.42-1.78.63-.76.22-1.67.44-2.75.66-1.07.22-2.3.44-3.68.64-1.37.21-2.89.4-4.55.57-1.66.18-3.47.33-5.42.47-1.95.13-4.05.24-6.27.31-2.23.07-4.6.11-7.1.11h-36.38c-1.72,0-3.6.02-5.56.08-1.96.05-4.01.13-6.08.25-2.07.11-4.15.26-6.18.46-2.03.19-4.01.42-5.86.7-1.73.26-3.35.56-4.81.9-1.46.34-2.76.73-3.84,1.15-1.08.43-1.95.91-2.55,1.44-.6.53-.92,1.11-.92,1.75l.27-131.06c0-.63.31-1.21.88-1.73.57-.52,1.39-1,2.43-1.42,1.03-.43,2.27-.8,3.67-1.14,1.39-.33,2.94-.63,4.58-.88,1.77-.27,3.66-.5,5.59-.69,1.94-.19,3.92-.34,5.89-.45,1.97-.11,3.92-.2,5.8-.25,1.87-.06,3.66-.08,5.31-.08h34.7c2.39,0,4.64-.04,6.77-.11,2.13-.07,4.12-.17,5.98-.3,1.86-.13,3.59-.29,5.17-.46,1.59-.17,3.04-.36,4.34-.56,1.32-.2,2.49-.42,3.51-.63,1.02-.22,1.9-.44,2.62-.65.72-.21,1.29-.43,1.7-.62.41-.2.66-.38.76-.55l4.55,130.89c-.1.17-.36.36-.79.56Z"/><g class="cls-8"><path class="cls-2" d="m367.85,121.02c.15-9.28,83.56-15.44,186.3-13.75,102.74,1.69,185.9,10.59,185.74,19.87-.15,9.28-83.56,15.43-186.3,13.75-102.74-1.69-185.9-10.58-185.74-19.87Z"/></g><path class="cls-5" d="m86.06,140.85c2.34.88,5.58,1.55,9.24,2.06,3.65.51,7.72.85,11.7,1.07,3.98.21,7.88.3,11.2.3h36.35c5.02,0,9.5.16,13.41.43,3.91.27,7.24.64,9.97,1.04,2.72.41,4.84.86,6.33,1.3,1.49.43,2.33.85,2.52,1.18-.18.37-1.03.8-2.52,1.25-1.48.45-3.6.91-6.33,1.33-2.72.42-6.05.79-9.95,1.06-3.9.27-8.37.43-13.38.43H0l.16,2.7h154.47c3.32,0,7.2-.09,11.17-.3,3.97-.21,8.01-.56,11.64-1.06,3.63-.51,6.85-1.18,9.16-2.05,2.31-.87,3.72-1.95,3.72-3.28,0-1.33-1.4-2.41-3.72-3.29-2.31-.89-5.54-1.56-9.18-2.07-3.64-.51-7.7-.85-11.68-1.07-3.98-.21-7.88-.31-11.2-.31h-36.38c-5.03,0-9.51-.16-13.43-.43-3.91-.26-7.26-.64-10-1.05-2.74-.41-4.87-.86-6.37-1.3-1.5-.43-2.36-.85-2.55-1.19.18-.37,1.02-.81,2.5-1.26,1.48-.45,3.59-.92,6.32-1.34,2.72-.42,6.06-.79,9.97-1.06,3.91-.27,8.4-.43,13.43-.43h478.9c5.04,0,9.52.16,13.43.43,3.91.27,7.24.64,9.97,1.06,2.72.42,4.84.89,6.32,1.34,1.48.45,2.32.89,2.5,1.26-.19.33-1.05.75-2.55,1.19-1.5.44-3.63.89-6.37,1.3-2.74.41-6.08.78-9.99,1.05-3.91.27-8.4.43-13.43.43h-36.38c-3.32,0-7.23.09-11.2.31-3.98.22-8.04.56-11.68,1.07-3.64.51-6.87,1.18-9.19,2.07-2.32.88-3.72,1.96-3.72,3.29,0,1.32,1.41,2.4,3.72,3.28,2.31.88,5.53,1.55,9.16,2.05,3.63.5,7.68.85,11.64,1.06,3.97.22,7.85.3,11.17.3h154.47l.16-2.7h-154.61c-5.01,0-9.49-.16-13.38-.43-3.9-.27-7.23-.64-9.95-1.06-2.72-.42-4.84-.88-6.33-1.33-1.48-.45-2.33-.89-2.52-1.25.18-.33,1.03-.75,2.52-1.18,1.49-.43,3.61-.89,6.33-1.3,2.73-.41,6.06-.78,9.97-1.04,3.9-.27,8.39-.43,13.41-.43h36.35c3.32,0,7.22-.09,11.2-.3,3.98-.22,8.05-.56,11.7-1.07,3.65-.51,6.9-1.18,9.24-2.06,2.34-.88,3.77-1.96,3.8-3.29.03-1.33-1.35-2.43-3.65-3.31-2.3-.89-5.52-1.57-9.16-2.08-3.64-.51-7.7-.86-11.69-1.08-3.99-.22-7.89-.31-11.22-.31H117.98c-3.33,0-7.24.09-11.22.31-3.98.22-8.05.56-11.69,1.08-3.64.51-6.86,1.19-9.16,2.08-2.3.89-3.68,1.98-3.65,3.31.03,1.33,1.47,2.41,3.8,3.29Z"/><path class="cls-4" d="m82.26,137.53v.02-.22s.01-.08.02-.12c0-.04.01-.09.03-.13,0-.04.02-.09.03-.13.07-.21.17-.42.31-.61.14-.2.31-.39.52-.58.21-.18.45-.36.72-.54.27-.17.57-.34.9-.5.21-.11.44-.21.67-.3.24-.1.49-.19.74-.29.26-.1.53-.19.81-.28.27-.09.56-.18.86-.26.52-.15,1.06-.29,1.63-.42.57-.13,1.17-.26,1.78-.38.62-.12,1.25-.23,1.91-.34.65-.11,1.33-.21,2.02-.31,1.74-.25,3.58-.45,5.46-.62,1.88-.17,3.8-.31,5.7-.42,1.91-.11,3.8-.18,5.62-.24,1.82-.05,3.58-.08,5.21-.09h.39c.07,0,.13,0,.19,0h479.37c.06,0,.13,0,.19,0h.39c1.63,0,3.39.04,5.21.09,1.83.06,3.72.13,5.63.24,1.9.11,3.83.24,5.7.42,1.88.17,3.72.37,5.46.62.69.1,1.36.2,2.02.31.65.11,1.29.22,1.91.34.61.12,1.21.25,1.78.38.57.14,1.11.28,1.63.42.3.08.58.17.86.26.28.09.55.18.81.28.26.09.5.19.74.29.23.1.46.2.67.3.33.16.63.33.9.5.27.18.51.35.72.54.21.19.38.38.52.58.14.2.24.4.31.61.01.04.03.09.03.13.01.04.02.08.03.13,0,.04,0,.08.01.12v.22s0,0,0,0v-.06l-4.71-130.89s0-.09,0-.13c0-.04,0-.08-.01-.13,0-.04-.02-.08-.03-.13,0-.04-.02-.08-.03-.13-.06-.21-.16-.41-.29-.61-.13-.2-.3-.38-.5-.57-.2-.18-.43-.36-.69-.53-.26-.17-.55-.33-.86-.49-.2-.1-.42-.2-.64-.3-.23-.1-.46-.19-.71-.28-.25-.09-.5-.18-.77-.27-.27-.09-.54-.18-.83-.26-.49-.14-1.01-.28-1.55-.41-.54-.13-1.11-.26-1.7-.37-.59-.12-1.2-.23-1.82-.34-.62-.11-1.27-.21-1.92-.3-1.67-.24-3.42-.44-5.21-.61-1.79-.17-3.63-.3-5.44-.41-1.82-.11-3.62-.18-5.36-.24-1.74-.05-3.41-.08-4.97-.09H120.32c-1.56,0-3.23.04-4.97.09-1.74.05-3.54.13-5.36.24-1.82.11-3.65.24-5.44.41-1.79.17-3.55.37-5.21.61-.65.1-1.3.2-1.92.3-.62.11-1.23.22-1.82.34-.58.12-1.15.24-1.7.37-.54.13-1.06.27-1.55.41-.28.08-.56.17-.83.26-.27.09-.52.18-.77.27-.25.09-.48.18-.71.28-.23.1-.44.2-.64.3-.31.16-.6.32-.86.49-.26.17-.49.35-.69.53-.2.18-.36.37-.5.57-.13.19-.23.4-.29.61-.01.04-.03.08-.03.13-.01.04-.02.08-.03.13,0,.04-.01.09-.01.13,0,.05,0,.09,0,.13l-4.71,130.89v.02h0v.04Z"/><path class="cls-5" d="m86.19,137.94c-.19-.12-.32-.23-.38-.34.18-.37,1.02-.81,2.5-1.26,1.48-.45,3.59-.92,6.32-1.34,2.72-.42,6.06-.79,9.97-1.06,3.91-.27,8.4-.43,13.43-.43h478.9c5.04,0,9.52.16,13.43.43,3.91.27,7.24.64,9.97,1.06,2.72.42,4.84.89,6.32,1.34,1.48.45,2.32.89,2.5,1.26-.06.1-.19.22-.38.34h3.87c.03-.13.06-.25.06-.39.03-1.33-1.35-2.43-3.65-3.31-2.3-.89-5.52-1.57-9.16-2.08-3.64-.51-7.7-.86-11.69-1.08-3.99-.22-7.89-.31-11.22-.31H117.98c-3.33,0-7.24.09-11.22.31-3.98.22-8.05.56-11.69,1.08-3.64.51-6.86,1.19-9.16,2.08-2.3.89-3.68,1.98-3.65,3.31,0,.13.03.26.06.39h3.87Z"/></g></g></g></svg>