<?xml version="1.0" encoding="utf-8"?>
<!-- Generator: Adobe Illustrator 28.0.0, SVG Export Plug-In . SVG Version: 6.00 Build 0)  -->
<svg version="1.1" id="Layer_1" xmlns="http://www.w3.org/2000/svg" xmlns:xlink="http://www.w3.org/1999/xlink" x="0px" y="0px"
	 viewBox="0 0 200 200" style="enable-background:new 0 0 200 200;" xml:space="preserve">
<style type="text/css">
	.st0{fill:url(#SVGID_1_);}
	
		.st1{clip-path:url(#SVGID_00000084514620666837366550000002106393449854580912_);fill:url(#SVGID_00000062190260267164207660000002855492059973264276_);}
	.st2{clip-path:url(#SVGID_00000084514620666837366550000002106393449854580912_);fill:#22252D;}
	.st3{fill:url(#SVGID_00000169534549897617378220000001692721613054864521_);}
</style>
<g>
	<linearGradient id="SVGID_1_" gradientUnits="userSpaceOnUse" x1="3.838" y1="100.0002" x2="196.1619" y2="100.0002">
		<stop  offset="0" style="stop-color:#E57E09"/>
		<stop  offset="1" style="stop-color:#FDEE6B"/>
	</linearGradient>
	<path class="st0" d="M89.4,191.8L8.2,110.6c-5.8-5.8-5.8-15.3,0-21.2L89.4,8.2c5.8-5.8,15.3-5.8,21.2,0l81.2,81.2
		c5.8,5.8,5.8,15.3,0,21.2l-81.2,81.2C104.7,197.6,95.3,197.6,89.4,191.8z"/>
	<g>
		<defs>
			<path id="SVGID_00000023997686283250371200000018017933667124658310_" d="M90.9,178.6l-69.5-69.5c-5-5-5-13.1,0-18.1l69.5-69.5
				c5-5,13.1-5,18.1,0l69.5,69.5c5,5,5,13.1,0,18.1l-69.5,69.5C104.1,183.6,95.9,183.6,90.9,178.6z"/>
		</defs>
		
			<linearGradient id="SVGID_00000163754701449070751590000008665119229771026575_" gradientUnits="userSpaceOnUse" x1="17.6873" y1="100.0002" x2="182.3125" y2="100.0002">
			<stop  offset="0" style="stop-color:#E57E09"/>
			<stop  offset="1" style="stop-color:#FDEE6B"/>
		</linearGradient>
		
			<use xlink:href="#SVGID_00000023997686283250371200000018017933667124658310_"  style="overflow:visible;fill:url(#SVGID_00000163754701449070751590000008665119229771026575_);"/>
		<clipPath id="SVGID_00000142878639777509408420000003393632752225920932_">
			<use xlink:href="#SVGID_00000023997686283250371200000018017933667124658310_"  style="overflow:visible;"/>
		</clipPath>
		
			<linearGradient id="SVGID_00000085959503711825690500000005388647123798768060_" gradientUnits="userSpaceOnUse" x1="19.9406" y1="99.9996" x2="180.0594" y2="99.9996">
			<stop  offset="0" style="stop-color:#E57E09"/>
			<stop  offset="1" style="stop-color:#FDEE6B"/>
		</linearGradient>
		
			<polygon style="clip-path:url(#SVGID_00000142878639777509408420000003393632752225920932_);fill:url(#SVGID_00000085959503711825690500000005388647123798768060_);" points="
			19.9,100 100,19.9 180.1,100 100,180.1 		"/>
		<path style="clip-path:url(#SVGID_00000142878639777509408420000003393632752225920932_);fill:#22252D;" d="M100,96.2
			c15.3,0,27.7-12.4,27.7-27.7c0-15.3-12.4-27.7-27.7-27.7c-15.3,0-27.7,12.4-27.7,27.7C72.3,83.9,84.7,96.2,100,96.2z M115.3,96.3
			c-4.5,2.5-9.8,4-15.3,4c-5.6,0-10.8-1.4-15.3-4C69,102.4,58,117.6,58,135.4v65.2H142v-65.2C142,117.6,131,102.4,115.3,96.3z"/>
	</g>
	<g>
		
			<linearGradient id="SVGID_00000084520725491480915950000016305930815375166886_" gradientUnits="userSpaceOnUse" x1="100" y1="2.8379" x2="100" y2="197.1621">
			<stop  offset="0" style="stop-color:#FFC0F7"/>
			<stop  offset="0.4242" style="stop-color:#8251E5"/>
			<stop  offset="0.7581" style="stop-color:#FFC0F7"/>
			<stop  offset="1" style="stop-color:#5937C1"/>
		</linearGradient>
		<path style="fill:url(#SVGID_00000084520725491480915950000016305930815375166886_);" d="M100,197.2c-4.3,0-8.3-1.7-11.3-4.7
			L7.5,111.3c-6.2-6.2-6.2-16.4,0-22.6L88.7,7.5c3-3,7-4.7,11.3-4.7c4.3,0,8.3,1.7,11.3,4.7l81.2,81.2c6.2,6.2,6.2,16.4,0,22.6
			l-81.2,81.2C108.3,195.5,104.3,197.2,100,197.2z M100,4.8c-3.7,0-7.2,1.5-9.9,4.1L8.9,90.1c-5.4,5.4-5.4,14.3,0,19.8l81.2,81.2
			c2.6,2.6,6.1,4.1,9.9,4.1c3.7,0,7.2-1.5,9.9-4.1l81.2-81.2c5.4-5.4,5.4-14.3,0-19.8L109.9,8.9C107.2,6.3,103.7,4.8,100,4.8z"/>
	</g>
</g>
</svg>
