{
	"asset":{
		"generator":"Khronos glTF Blender I/O v4.2.57",
		"version":"2.0"
	},
	"scene":0,
	"scenes":[
		{
			"name":"Scene",
			"nodes":[
				0,
				1
			]
		}
	],
	"nodes":[
		{
			"mesh":0,
			"name":"roata"
		},
		{
			"mesh":1,
			"name":"maneta",
			"translation":[
				0.6506766080856323,
				0,
				0
			]
		}
	],
	"meshes":[
		{
			"name":"Cylinder",
			"primitives":[
				{
					"attributes":{
						"POSITION":0,
						"NORMAL":1,
						"TEXCOORD_0":2
					},
					"indices":3
				}
			]
		},
		{
			"name":"Cylinder.001",
			"primitives":[
				{
					"attributes":{
						"POSITION":4,
						"NORMAL":5,
						"TEXCOORD_0":6
					},
					"indices":7
				}
			]
		}
	],
	"accessors":[
		{
			"bufferView":0,
			"componentType":5126,
			"count":548,
			"max":[
				0.5000000596046448,
				1.1176908016204834,
				1.1176908016204834
			],
			"min":[
				-0.5000000596046448,
				-1.1176908016204834,
				-1.1176908016204834
			],
			"type":"VEC3"
		},
		{
			"bufferView":1,
			"componentType":5126,
			"count":548,
			"type":"VEC3"
		},
		{
			"bufferView":2,
			"componentType":5126,
			"count":548,
			"type":"VEC2"
		},
		{
			"bufferView":3,
			"componentType":5123,
			"count":1044,
			"type":"SCALAR"
		},
		{
			"bufferView":4,
			"componentType":5126,
			"count":864,
			"max":[
				0.5941579341888428,
				1.3180099725723267,
				1
			],
			"min":[
				-0.12731248140335083,
				-1,
				-1
			],
			"type":"VEC3"
		},
		{
			"bufferView":5,
			"componentType":5126,
			"count":864,
			"type":"VEC3"
		},
		{
			"bufferView":6,
			"componentType":5126,
			"count":864,
			"type":"VEC2"
		},
		{
			"bufferView":7,
			"componentType":5123,
			"count":1644,
			"type":"SCALAR"
		}
	],
	"bufferViews":[
		{
			"buffer":0,
			"byteLength":6576,
			"byteOffset":0,
			"target":34962
		},
		{
			"buffer":0,
			"byteLength":6576,
			"byteOffset":6576,
			"target":34962
		},
		{
			"buffer":0,
			"byteLength":4384,
			"byteOffset":13152,
			"target":34962
		},
		{
			"buffer":0,
			"byteLength":2088,
			"byteOffset":17536,
			"target":34963
		},
		{
			"buffer":0,
			"byteLength":10368,
			"byteOffset":19624,
			"target":34962
		},
		{
			"buffer":0,
			"byteLength":10368,
			"byteOffset":29992,
			"target":34962
		},
		{
			"buffer":0,
			"byteLength":6912,
			"byteOffset":40360,
			"target":34962
		},
		{
			"buffer":0,
			"byteLength":3288,
			"byteOffset":47272,
			"target":34963
		}
	],
	"buffers":[
		{
			"byteLength":50560,
			"uri":"roata.bin"
		}
	]
}
