<svg id="Layer_1" data-name="Layer 1" xmlns="http://www.w3.org/2000/svg" xmlns:xlink="http://www.w3.org/1999/xlink" viewBox="0 0 137.01 24.51"><defs><style>.cls-1{fill:url(#RedGradient_RGB);}.cls-2{fill:url(#RedGradient_RGB-2);}.cls-3{fill:url(#RedGradient_RGB-3);}.cls-4{fill:url(#GreyGradient_RGB);}.cls-5{fill:url(#GreyGradient_RGB-2);}.cls-6{fill:url(#GreyGradient_RGB-3);}</style><linearGradient id="RedGradient_RGB" x1="136.23" y1="61.41" x2="136.23" y2="36.91" gradientUnits="userSpaceOnUse"><stop offset="0" stop-color="#a11c1f"/><stop offset="1" stop-color="#d91921"/></linearGradient><linearGradient id="RedGradient_RGB-2" x1="160.5" y1="61.41" x2="160.5" y2="39.26" xlink:href="#RedGradient_RGB"/><linearGradient id="RedGradient_RGB-3" x1="181.5" y1="61.41" x2="181.5" y2="36.91" xlink:href="#RedGradient_RGB"/><linearGradient id="GreyGradient_RGB" x1="65.42" y1="61.41" x2="65.42" y2="36.91" gradientUnits="userSpaceOnUse"><stop offset="0" stop-color="#d4d4d5"/><stop offset="1" stop-color="#fff"/></linearGradient><linearGradient id="GreyGradient_RGB-2" x1="89.9" y1="61.41" x2="89.9" y2="39.26" xlink:href="#GreyGradient_RGB"/><linearGradient id="GreyGradient_RGB-3" x1="111" y1="61.41" x2="111" y2="36.91" xlink:href="#GreyGradient_RGB"/></defs><path class="cls-1" d="M133,43.17h4.52a2.93,2.93,0,0,1,1.78.42,1.66,1.66,0,0,1,.53,1.37,1.92,1.92,0,0,1-.62,1.55,2.73,2.73,0,0,1-1.81.53H133Zm0,8.55h4.59a3.37,3.37,0,0,1,2,.48,1.63,1.63,0,0,1,.65,1.44,1.81,1.81,0,0,1-.67,1.59,4,4,0,0,1-2.26.48H133Zm7.33,9.69c3,0,5.1-.49,6.37-1.49s1.91-2.63,1.91-4.93A5.46,5.46,0,0,0,147,50.71a7.75,7.75,0,0,0-4.94-1.56,7.09,7.09,0,0,0,4.68-1.73,6.14,6.14,0,0,0,1.49-4.5c0-2.23-.53-3.78-1.6-4.67s-3-1.34-5.73-1.34h-17v24.5Z" transform="translate(-53.39 -36.91)"/><path class="cls-2" d="M158.42,45.76a3.91,3.91,0,0,1,2.74-.83,3.85,3.85,0,0,1,2.72.83,3.47,3.47,0,0,1,.94,2.56h-7.35A3.44,3.44,0,0,1,158.42,45.76Zm12.7,8.63a37.07,37.07,0,0,1-4.58,1.09,24.2,24.2,0,0,1-4,.36A6.88,6.88,0,0,1,159,55.1a3,3,0,0,1-1.43-2.28h14.12c.06-.64.11-1.24.15-1.81s.06-1.11.06-1.62q0-5.4-2.6-7.76t-8.51-2.37q-6.22,0-8.95,2.5T149.1,50q0,5.93,2.73,8.68t8.57,2.76a28.79,28.79,0,0,0,4.85-.41,35.94,35.94,0,0,0,5.05-1.23Z" transform="translate(-53.39 -36.91)"/><path class="cls-3" d="M190.12,55.49q-1.19.18-2,.24c-.53.05-1,.08-1.37.09a3.09,3.09,0,0,1-1.84-.44,1.56,1.56,0,0,1-.58-1.34V47.7h6.05V40.9h-6.05v-4h-4.82c-1.14,1.22-2.28,2.39-3.44,3.49s-2.32,2.14-3.49,3.12V47.7h2.84v8.18c0,2,.5,3.45,1.5,4.28s2.71,1.25,5.14,1.25a37.21,37.21,0,0,0,4-.2c1.3-.13,2.57-.33,3.81-.58Z" transform="translate(-53.39 -36.91)"/><path class="cls-4" d="M61.51,46c.33,1.08.71,2.19,1.14,3.31s.91,2.26,1.44,3.4l4,8.71h9.4V36.91H69.1V41.4c0,1.73,0,3.28.13,4.66s.22,2.66.4,3.84h-.3c-.5-1.47-1-2.75-1.36-3.85s-.79-2-1.14-2.83L64,36.91H53.39v24.5h8.38V54.88c0-1.78-.05-3.41-.14-4.88s-.23-2.81-.41-4Z" transform="translate(-53.39 -36.91)"/><path class="cls-5" d="M87.82,45.76a3.91,3.91,0,0,1,2.74-.83,3.85,3.85,0,0,1,2.72.83,3.47,3.47,0,0,1,.94,2.56H86.87A3.44,3.44,0,0,1,87.82,45.76Zm12.7,8.63a37.07,37.07,0,0,1-4.58,1.09,24.11,24.11,0,0,1-4,.36,6.88,6.88,0,0,1-3.55-.74A3,3,0,0,1,87,52.82h14.12c.06-.64.11-1.24.15-1.81s.06-1.11.06-1.62q0-5.4-2.6-7.76t-8.51-2.37q-6.22,0-9,2.5T78.5,50q0,5.93,2.73,8.68t8.57,2.76A28.79,28.79,0,0,0,94.65,61a35.94,35.94,0,0,0,5-1.23Z" transform="translate(-53.39 -36.91)"/><path class="cls-6" d="M119.62,55.49q-1.19.18-2,.24c-.53.05-1,.08-1.37.09a3.09,3.09,0,0,1-1.84-.44,1.56,1.56,0,0,1-.58-1.34V47.7h6.05V40.9h-6.05v-4H109c-1.14,1.22-2.28,2.39-3.44,3.49s-2.32,2.14-3.49,3.12V47.7h2.84v8.18c0,2,.5,3.45,1.5,4.28s2.71,1.25,5.14,1.25a37.21,37.21,0,0,0,4-.2,38.15,38.15,0,0,0,3.8-.58Z" transform="translate(-53.39 -36.91)"/></svg>